<?xml version="1.0" encoding="utf-8" standalone="no"?>
<!DOCTYPE svg PUBLIC "-//W3C//DTD SVG 1.1//EN"
  "http://www.w3.org/Graphics/SVG/1.1/DTD/svg11.dtd">
<!-- Created with matplotlib (https://matplotlib.org/) -->
<svg height="288pt" version="1.1" viewBox="0 0 252 288" width="252pt" xmlns="http://www.w3.org/2000/svg" xmlns:xlink="http://www.w3.org/1999/xlink">
 <metadata>
  <rdf:RDF xmlns:cc="http://creativecommons.org/ns#" xmlns:dc="http://purl.org/dc/elements/1.1/" xmlns:rdf="http://www.w3.org/1999/02/22-rdf-syntax-ns#">
   <cc:Work>
    <dc:type rdf:resource="http://purl.org/dc/dcmitype/StillImage"/>
    <dc:date>2021-06-28T09:50:10.865407</dc:date>
    <dc:format>image/svg+xml</dc:format>
    <dc:creator>
     <cc:Agent>
      <dc:title>Matplotlib v3.3.2, https://matplotlib.org/</dc:title>
     </cc:Agent>
    </dc:creator>
   </cc:Work>
  </rdf:RDF>
 </metadata>
 <defs>
  <style type="text/css">*{stroke-linecap:butt;stroke-linejoin:round;}</style>
 </defs>
 <g id="figure_1">
  <g id="patch_1">
   <path d="M 0 288 
L 252 288 
L 252 0 
L 0 0 
z
" style="fill:#ffffff;"/>
  </g>
  <g id="axes_1">
   <g id="patch_2">
    <path d="M 52.13 241.72 
L 233.229545 241.72 
L 233.229545 26.88 
L 52.13 26.88 
z
" style="fill:#ffffff;"/>
   </g>
   <g id="matplotlib.axis_1">
    <g id="xtick_1">
     <g id="line2d_1">
      <defs>
       <path d="M 0 0 
L 0 3.5 
" id="m870f25b185" style="stroke:#000000;stroke-width:0.8;"/>
      </defs>
      <g>
       <use style="stroke:#000000;stroke-width:0.8;" x="60.361798" xlink:href="#m870f25b185" y="241.72"/>
      </g>
     </g>
     <g id="text_1">
      <!-- 0 -->
      <g transform="translate(57.180548 256.318438)scale(0.1 -0.1)">
       <defs>
        <path d="M 31.78125 66.40625 
Q 24.171875 66.40625 20.328125 58.90625 
Q 16.5 51.421875 16.5 36.375 
Q 16.5 21.390625 20.328125 13.890625 
Q 24.171875 6.390625 31.78125 6.390625 
Q 39.453125 6.390625 43.28125 13.890625 
Q 47.125 21.390625 47.125 36.375 
Q 47.125 51.421875 43.28125 58.90625 
Q 39.453125 66.40625 31.78125 66.40625 
z
M 31.78125 74.21875 
Q 44.046875 74.21875 50.515625 64.515625 
Q 56.984375 54.828125 56.984375 36.375 
Q 56.984375 17.96875 50.515625 8.265625 
Q 44.046875 -1.421875 31.78125 -1.421875 
Q 19.53125 -1.421875 13.0625 8.265625 
Q 6.59375 17.96875 6.59375 36.375 
Q 6.59375 54.828125 13.0625 64.515625 
Q 19.53125 74.21875 31.78125 74.21875 
z
" id="DejaVuSans-48"/>
       </defs>
       <use xlink:href="#DejaVuSans-48"/>
      </g>
     </g>
    </g>
    <g id="xtick_2">
     <g id="line2d_2">
      <g>
       <use style="stroke:#000000;stroke-width:0.8;" x="103.235743" xlink:href="#m870f25b185" y="241.72"/>
      </g>
     </g>
     <g id="text_2">
      <!-- 50 -->
      <g transform="translate(96.873243 256.318438)scale(0.1 -0.1)">
       <defs>
        <path d="M 10.796875 72.90625 
L 49.515625 72.90625 
L 49.515625 64.59375 
L 19.828125 64.59375 
L 19.828125 46.734375 
Q 21.96875 47.46875 24.109375 47.828125 
Q 26.265625 48.1875 28.421875 48.1875 
Q 40.625 48.1875 47.75 41.5 
Q 54.890625 34.8125 54.890625 23.390625 
Q 54.890625 11.625 47.5625 5.09375 
Q 40.234375 -1.421875 26.90625 -1.421875 
Q 22.3125 -1.421875 17.546875 -0.640625 
Q 12.796875 0.140625 7.71875 1.703125 
L 7.71875 11.625 
Q 12.109375 9.234375 16.796875 8.0625 
Q 21.484375 6.890625 26.703125 6.890625 
Q 35.15625 6.890625 40.078125 11.328125 
Q 45.015625 15.765625 45.015625 23.390625 
Q 45.015625 31 40.078125 35.4375 
Q 35.15625 39.890625 26.703125 39.890625 
Q 22.75 39.890625 18.8125 39.015625 
Q 14.890625 38.140625 10.796875 36.28125 
z
" id="DejaVuSans-53"/>
       </defs>
       <use xlink:href="#DejaVuSans-53"/>
       <use x="63.623047" xlink:href="#DejaVuSans-48"/>
      </g>
     </g>
    </g>
    <g id="xtick_3">
     <g id="line2d_3">
      <g>
       <use style="stroke:#000000;stroke-width:0.8;" x="146.109688" xlink:href="#m870f25b185" y="241.72"/>
      </g>
     </g>
     <g id="text_3">
      <!-- 100 -->
      <g transform="translate(136.565938 256.318438)scale(0.1 -0.1)">
       <defs>
        <path d="M 12.40625 8.296875 
L 28.515625 8.296875 
L 28.515625 63.921875 
L 10.984375 60.40625 
L 10.984375 69.390625 
L 28.421875 72.90625 
L 38.28125 72.90625 
L 38.28125 8.296875 
L 54.390625 8.296875 
L 54.390625 0 
L 12.40625 0 
z
" id="DejaVuSans-49"/>
       </defs>
       <use xlink:href="#DejaVuSans-49"/>
       <use x="63.623047" xlink:href="#DejaVuSans-48"/>
       <use x="127.246094" xlink:href="#DejaVuSans-48"/>
      </g>
     </g>
    </g>
    <g id="xtick_4">
     <g id="line2d_4">
      <g>
       <use style="stroke:#000000;stroke-width:0.8;" x="188.983634" xlink:href="#m870f25b185" y="241.72"/>
      </g>
     </g>
     <g id="text_4">
      <!-- 150 -->
      <g transform="translate(179.439884 256.318438)scale(0.1 -0.1)">
       <use xlink:href="#DejaVuSans-49"/>
       <use x="63.623047" xlink:href="#DejaVuSans-53"/>
       <use x="127.246094" xlink:href="#DejaVuSans-48"/>
      </g>
     </g>
    </g>
    <g id="xtick_5">
     <g id="line2d_5">
      <g>
       <use style="stroke:#000000;stroke-width:0.8;" x="231.857579" xlink:href="#m870f25b185" y="241.72"/>
      </g>
     </g>
     <g id="text_5">
      <!-- 200 -->
      <g transform="translate(222.313829 256.318438)scale(0.1 -0.1)">
       <defs>
        <path d="M 19.1875 8.296875 
L 53.609375 8.296875 
L 53.609375 0 
L 7.328125 0 
L 7.328125 8.296875 
Q 12.9375 14.109375 22.625 23.890625 
Q 32.328125 33.6875 34.8125 36.53125 
Q 39.546875 41.84375 41.421875 45.53125 
Q 43.3125 49.21875 43.3125 52.78125 
Q 43.3125 58.59375 39.234375 62.25 
Q 35.15625 65.921875 28.609375 65.921875 
Q 23.96875 65.921875 18.8125 64.3125 
Q 13.671875 62.703125 7.8125 59.421875 
L 7.8125 69.390625 
Q 13.765625 71.78125 18.9375 73 
Q 24.125 74.21875 28.421875 74.21875 
Q 39.75 74.21875 46.484375 68.546875 
Q 53.21875 62.890625 53.21875 53.421875 
Q 53.21875 48.921875 51.53125 44.890625 
Q 49.859375 40.875 45.40625 35.40625 
Q 44.1875 33.984375 37.640625 27.21875 
Q 31.109375 20.453125 19.1875 8.296875 
z
" id="DejaVuSans-50"/>
       </defs>
       <use xlink:href="#DejaVuSans-50"/>
       <use x="63.623047" xlink:href="#DejaVuSans-48"/>
       <use x="127.246094" xlink:href="#DejaVuSans-48"/>
      </g>
     </g>
    </g>
    <g id="text_6">
     <!-- Processing time [min] -->
     <g transform="translate(55.478523 274.555625)scale(0.16 -0.16)">
      <defs>
       <path d="M 19.671875 64.796875 
L 19.671875 37.40625 
L 32.078125 37.40625 
Q 38.96875 37.40625 42.71875 40.96875 
Q 46.484375 44.53125 46.484375 51.125 
Q 46.484375 57.671875 42.71875 61.234375 
Q 38.96875 64.796875 32.078125 64.796875 
z
M 9.8125 72.90625 
L 32.078125 72.90625 
Q 44.34375 72.90625 50.609375 67.359375 
Q 56.890625 61.8125 56.890625 51.125 
Q 56.890625 40.328125 50.609375 34.8125 
Q 44.34375 29.296875 32.078125 29.296875 
L 19.671875 29.296875 
L 19.671875 0 
L 9.8125 0 
z
" id="DejaVuSans-80"/>
       <path d="M 41.109375 46.296875 
Q 39.59375 47.171875 37.8125 47.578125 
Q 36.03125 48 33.890625 48 
Q 26.265625 48 22.1875 43.046875 
Q 18.109375 38.09375 18.109375 28.8125 
L 18.109375 0 
L 9.078125 0 
L 9.078125 54.6875 
L 18.109375 54.6875 
L 18.109375 46.1875 
Q 20.953125 51.171875 25.484375 53.578125 
Q 30.03125 56 36.53125 56 
Q 37.453125 56 38.578125 55.875 
Q 39.703125 55.765625 41.0625 55.515625 
z
" id="DejaVuSans-114"/>
       <path d="M 30.609375 48.390625 
Q 23.390625 48.390625 19.1875 42.75 
Q 14.984375 37.109375 14.984375 27.296875 
Q 14.984375 17.484375 19.15625 11.84375 
Q 23.34375 6.203125 30.609375 6.203125 
Q 37.796875 6.203125 41.984375 11.859375 
Q 46.1875 17.53125 46.1875 27.296875 
Q 46.1875 37.015625 41.984375 42.703125 
Q 37.796875 48.390625 30.609375 48.390625 
z
M 30.609375 56 
Q 42.328125 56 49.015625 48.375 
Q 55.71875 40.765625 55.71875 27.296875 
Q 55.71875 13.875 49.015625 6.21875 
Q 42.328125 -1.421875 30.609375 -1.421875 
Q 18.84375 -1.421875 12.171875 6.21875 
Q 5.515625 13.875 5.515625 27.296875 
Q 5.515625 40.765625 12.171875 48.375 
Q 18.84375 56 30.609375 56 
z
" id="DejaVuSans-111"/>
       <path d="M 48.78125 52.59375 
L 48.78125 44.1875 
Q 44.96875 46.296875 41.140625 47.34375 
Q 37.3125 48.390625 33.40625 48.390625 
Q 24.65625 48.390625 19.8125 42.84375 
Q 14.984375 37.3125 14.984375 27.296875 
Q 14.984375 17.28125 19.8125 11.734375 
Q 24.65625 6.203125 33.40625 6.203125 
Q 37.3125 6.203125 41.140625 7.25 
Q 44.96875 8.296875 48.78125 10.40625 
L 48.78125 2.09375 
Q 45.015625 0.34375 40.984375 -0.53125 
Q 36.96875 -1.421875 32.421875 -1.421875 
Q 20.0625 -1.421875 12.78125 6.34375 
Q 5.515625 14.109375 5.515625 27.296875 
Q 5.515625 40.671875 12.859375 48.328125 
Q 20.21875 56 33.015625 56 
Q 37.15625 56 41.109375 55.140625 
Q 45.0625 54.296875 48.78125 52.59375 
z
" id="DejaVuSans-99"/>
       <path d="M 56.203125 29.59375 
L 56.203125 25.203125 
L 14.890625 25.203125 
Q 15.484375 15.921875 20.484375 11.0625 
Q 25.484375 6.203125 34.421875 6.203125 
Q 39.59375 6.203125 44.453125 7.46875 
Q 49.3125 8.734375 54.109375 11.28125 
L 54.109375 2.78125 
Q 49.265625 0.734375 44.1875 -0.34375 
Q 39.109375 -1.421875 33.890625 -1.421875 
Q 20.796875 -1.421875 13.15625 6.1875 
Q 5.515625 13.8125 5.515625 26.8125 
Q 5.515625 40.234375 12.765625 48.109375 
Q 20.015625 56 32.328125 56 
Q 43.359375 56 49.78125 48.890625 
Q 56.203125 41.796875 56.203125 29.59375 
z
M 47.21875 32.234375 
Q 47.125 39.59375 43.09375 43.984375 
Q 39.0625 48.390625 32.421875 48.390625 
Q 24.90625 48.390625 20.390625 44.140625 
Q 15.875 39.890625 15.1875 32.171875 
z
" id="DejaVuSans-101"/>
       <path d="M 44.28125 53.078125 
L 44.28125 44.578125 
Q 40.484375 46.53125 36.375 47.5 
Q 32.28125 48.484375 27.875 48.484375 
Q 21.1875 48.484375 17.84375 46.4375 
Q 14.5 44.390625 14.5 40.28125 
Q 14.5 37.15625 16.890625 35.375 
Q 19.28125 33.59375 26.515625 31.984375 
L 29.59375 31.296875 
Q 39.15625 29.25 43.1875 25.515625 
Q 47.21875 21.78125 47.21875 15.09375 
Q 47.21875 7.46875 41.1875 3.015625 
Q 35.15625 -1.421875 24.609375 -1.421875 
Q 20.21875 -1.421875 15.453125 -0.5625 
Q 10.6875 0.296875 5.421875 2 
L 5.421875 11.28125 
Q 10.40625 8.6875 15.234375 7.390625 
Q 20.0625 6.109375 24.8125 6.109375 
Q 31.15625 6.109375 34.5625 8.28125 
Q 37.984375 10.453125 37.984375 14.40625 
Q 37.984375 18.0625 35.515625 20.015625 
Q 33.0625 21.96875 24.703125 23.78125 
L 21.578125 24.515625 
Q 13.234375 26.265625 9.515625 29.90625 
Q 5.8125 33.546875 5.8125 39.890625 
Q 5.8125 47.609375 11.28125 51.796875 
Q 16.75 56 26.8125 56 
Q 31.78125 56 36.171875 55.265625 
Q 40.578125 54.546875 44.28125 53.078125 
z
" id="DejaVuSans-115"/>
       <path d="M 9.421875 54.6875 
L 18.40625 54.6875 
L 18.40625 0 
L 9.421875 0 
z
M 9.421875 75.984375 
L 18.40625 75.984375 
L 18.40625 64.59375 
L 9.421875 64.59375 
z
" id="DejaVuSans-105"/>
       <path d="M 54.890625 33.015625 
L 54.890625 0 
L 45.90625 0 
L 45.90625 32.71875 
Q 45.90625 40.484375 42.875 44.328125 
Q 39.84375 48.1875 33.796875 48.1875 
Q 26.515625 48.1875 22.3125 43.546875 
Q 18.109375 38.921875 18.109375 30.90625 
L 18.109375 0 
L 9.078125 0 
L 9.078125 54.6875 
L 18.109375 54.6875 
L 18.109375 46.1875 
Q 21.34375 51.125 25.703125 53.5625 
Q 30.078125 56 35.796875 56 
Q 45.21875 56 50.046875 50.171875 
Q 54.890625 44.34375 54.890625 33.015625 
z
" id="DejaVuSans-110"/>
       <path d="M 45.40625 27.984375 
Q 45.40625 37.75 41.375 43.109375 
Q 37.359375 48.484375 30.078125 48.484375 
Q 22.859375 48.484375 18.828125 43.109375 
Q 14.796875 37.75 14.796875 27.984375 
Q 14.796875 18.265625 18.828125 12.890625 
Q 22.859375 7.515625 30.078125 7.515625 
Q 37.359375 7.515625 41.375 12.890625 
Q 45.40625 18.265625 45.40625 27.984375 
z
M 54.390625 6.78125 
Q 54.390625 -7.171875 48.1875 -13.984375 
Q 42 -20.796875 29.203125 -20.796875 
Q 24.46875 -20.796875 20.265625 -20.09375 
Q 16.0625 -19.390625 12.109375 -17.921875 
L 12.109375 -9.1875 
Q 16.0625 -11.328125 19.921875 -12.34375 
Q 23.78125 -13.375 27.78125 -13.375 
Q 36.625 -13.375 41.015625 -8.765625 
Q 45.40625 -4.15625 45.40625 5.171875 
L 45.40625 9.625 
Q 42.625 4.78125 38.28125 2.390625 
Q 33.9375 0 27.875 0 
Q 17.828125 0 11.671875 7.65625 
Q 5.515625 15.328125 5.515625 27.984375 
Q 5.515625 40.671875 11.671875 48.328125 
Q 17.828125 56 27.875 56 
Q 33.9375 56 38.28125 53.609375 
Q 42.625 51.21875 45.40625 46.390625 
L 45.40625 54.6875 
L 54.390625 54.6875 
z
" id="DejaVuSans-103"/>
       <path id="DejaVuSans-32"/>
       <path d="M 18.3125 70.21875 
L 18.3125 54.6875 
L 36.8125 54.6875 
L 36.8125 47.703125 
L 18.3125 47.703125 
L 18.3125 18.015625 
Q 18.3125 11.328125 20.140625 9.421875 
Q 21.96875 7.515625 27.59375 7.515625 
L 36.8125 7.515625 
L 36.8125 0 
L 27.59375 0 
Q 17.1875 0 13.234375 3.875 
Q 9.28125 7.765625 9.28125 18.015625 
L 9.28125 47.703125 
L 2.6875 47.703125 
L 2.6875 54.6875 
L 9.28125 54.6875 
L 9.28125 70.21875 
z
" id="DejaVuSans-116"/>
       <path d="M 52 44.1875 
Q 55.375 50.25 60.0625 53.125 
Q 64.75 56 71.09375 56 
Q 79.640625 56 84.28125 50.015625 
Q 88.921875 44.046875 88.921875 33.015625 
L 88.921875 0 
L 79.890625 0 
L 79.890625 32.71875 
Q 79.890625 40.578125 77.09375 44.375 
Q 74.3125 48.1875 68.609375 48.1875 
Q 61.625 48.1875 57.5625 43.546875 
Q 53.515625 38.921875 53.515625 30.90625 
L 53.515625 0 
L 44.484375 0 
L 44.484375 32.71875 
Q 44.484375 40.625 41.703125 44.40625 
Q 38.921875 48.1875 33.109375 48.1875 
Q 26.21875 48.1875 22.15625 43.53125 
Q 18.109375 38.875 18.109375 30.90625 
L 18.109375 0 
L 9.078125 0 
L 9.078125 54.6875 
L 18.109375 54.6875 
L 18.109375 46.1875 
Q 21.1875 51.21875 25.484375 53.609375 
Q 29.78125 56 35.6875 56 
Q 41.65625 56 45.828125 52.96875 
Q 50 49.953125 52 44.1875 
z
" id="DejaVuSans-109"/>
       <path d="M 8.59375 75.984375 
L 29.296875 75.984375 
L 29.296875 69 
L 17.578125 69 
L 17.578125 -6.203125 
L 29.296875 -6.203125 
L 29.296875 -13.1875 
L 8.59375 -13.1875 
z
" id="DejaVuSans-91"/>
       <path d="M 30.421875 75.984375 
L 30.421875 -13.1875 
L 9.71875 -13.1875 
L 9.71875 -6.203125 
L 21.390625 -6.203125 
L 21.390625 69 
L 9.71875 69 
L 9.71875 75.984375 
z
" id="DejaVuSans-93"/>
      </defs>
      <use xlink:href="#DejaVuSans-80"/>
      <use x="58.552734" xlink:href="#DejaVuSans-114"/>
      <use x="97.416016" xlink:href="#DejaVuSans-111"/>
      <use x="158.597656" xlink:href="#DejaVuSans-99"/>
      <use x="213.578125" xlink:href="#DejaVuSans-101"/>
      <use x="275.101562" xlink:href="#DejaVuSans-115"/>
      <use x="327.201172" xlink:href="#DejaVuSans-115"/>
      <use x="379.300781" xlink:href="#DejaVuSans-105"/>
      <use x="407.083984" xlink:href="#DejaVuSans-110"/>
      <use x="470.462891" xlink:href="#DejaVuSans-103"/>
      <use x="533.939453" xlink:href="#DejaVuSans-32"/>
      <use x="565.726562" xlink:href="#DejaVuSans-116"/>
      <use x="604.935547" xlink:href="#DejaVuSans-105"/>
      <use x="632.71875" xlink:href="#DejaVuSans-109"/>
      <use x="730.130859" xlink:href="#DejaVuSans-101"/>
      <use x="791.654297" xlink:href="#DejaVuSans-32"/>
      <use x="823.441406" xlink:href="#DejaVuSans-91"/>
      <use x="862.455078" xlink:href="#DejaVuSans-109"/>
      <use x="959.867188" xlink:href="#DejaVuSans-105"/>
      <use x="987.650391" xlink:href="#DejaVuSans-110"/>
      <use x="1051.029297" xlink:href="#DejaVuSans-93"/>
     </g>
    </g>
   </g>
   <g id="matplotlib.axis_2">
    <g id="ytick_1">
     <g id="line2d_6">
      <path clip-path="url(#p47ef667ca4)" d="M 52.13 215.421258 
L 233.229545 215.421258 
" style="fill:none;stroke:#000000;stroke-dasharray:0.37,0.16;stroke-dashoffset:0;stroke-opacity:0.5;stroke-width:0.1;"/>
     </g>
     <g id="line2d_7">
      <defs>
       <path d="M 0 0 
L -3.5 0 
" id="m8151a74a79" style="stroke:#000000;stroke-width:0.8;"/>
      </defs>
      <g>
       <use style="stroke:#000000;stroke-width:0.8;" x="52.13" xlink:href="#m8151a74a79" y="215.421258"/>
      </g>
     </g>
     <g id="text_7">
      <!-- 0.4 -->
      <g transform="translate(29.226875 219.220476)scale(0.1 -0.1)">
       <defs>
        <path d="M 10.6875 12.40625 
L 21 12.40625 
L 21 0 
L 10.6875 0 
z
" id="DejaVuSans-46"/>
        <path d="M 37.796875 64.3125 
L 12.890625 25.390625 
L 37.796875 25.390625 
z
M 35.203125 72.90625 
L 47.609375 72.90625 
L 47.609375 25.390625 
L 58.015625 25.390625 
L 58.015625 17.1875 
L 47.609375 17.1875 
L 47.609375 0 
L 37.796875 0 
L 37.796875 17.1875 
L 4.890625 17.1875 
L 4.890625 26.703125 
z
" id="DejaVuSans-52"/>
       </defs>
       <use xlink:href="#DejaVuSans-48"/>
       <use x="63.623047" xlink:href="#DejaVuSans-46"/>
       <use x="95.410156" xlink:href="#DejaVuSans-52"/>
      </g>
     </g>
    </g>
    <g id="ytick_2">
     <g id="line2d_8">
      <path clip-path="url(#p47ef667ca4)" d="M 52.13 188.086217 
L 233.229545 188.086217 
" style="fill:none;stroke:#000000;stroke-dasharray:0.37,0.16;stroke-dashoffset:0;stroke-opacity:0.5;stroke-width:0.1;"/>
     </g>
     <g id="line2d_9">
      <g>
       <use style="stroke:#000000;stroke-width:0.8;" x="52.13" xlink:href="#m8151a74a79" y="188.086217"/>
      </g>
     </g>
     <g id="text_8">
      <!-- 0.6 -->
      <g transform="translate(29.226875 191.885435)scale(0.1 -0.1)">
       <defs>
        <path d="M 33.015625 40.375 
Q 26.375 40.375 22.484375 35.828125 
Q 18.609375 31.296875 18.609375 23.390625 
Q 18.609375 15.53125 22.484375 10.953125 
Q 26.375 6.390625 33.015625 6.390625 
Q 39.65625 6.390625 43.53125 10.953125 
Q 47.40625 15.53125 47.40625 23.390625 
Q 47.40625 31.296875 43.53125 35.828125 
Q 39.65625 40.375 33.015625 40.375 
z
M 52.59375 71.296875 
L 52.59375 62.3125 
Q 48.875 64.0625 45.09375 64.984375 
Q 41.3125 65.921875 37.59375 65.921875 
Q 27.828125 65.921875 22.671875 59.328125 
Q 17.53125 52.734375 16.796875 39.40625 
Q 19.671875 43.65625 24.015625 45.921875 
Q 28.375 48.1875 33.59375 48.1875 
Q 44.578125 48.1875 50.953125 41.515625 
Q 57.328125 34.859375 57.328125 23.390625 
Q 57.328125 12.15625 50.6875 5.359375 
Q 44.046875 -1.421875 33.015625 -1.421875 
Q 20.359375 -1.421875 13.671875 8.265625 
Q 6.984375 17.96875 6.984375 36.375 
Q 6.984375 53.65625 15.1875 63.9375 
Q 23.390625 74.21875 37.203125 74.21875 
Q 40.921875 74.21875 44.703125 73.484375 
Q 48.484375 72.75 52.59375 71.296875 
z
" id="DejaVuSans-54"/>
       </defs>
       <use xlink:href="#DejaVuSans-48"/>
       <use x="63.623047" xlink:href="#DejaVuSans-46"/>
       <use x="95.410156" xlink:href="#DejaVuSans-54"/>
      </g>
     </g>
    </g>
    <g id="ytick_3">
     <g id="line2d_10">
      <path clip-path="url(#p47ef667ca4)" d="M 52.13 160.751175 
L 233.229545 160.751175 
" style="fill:none;stroke:#000000;stroke-dasharray:0.37,0.16;stroke-dashoffset:0;stroke-opacity:0.5;stroke-width:0.1;"/>
     </g>
     <g id="line2d_11">
      <g>
       <use style="stroke:#000000;stroke-width:0.8;" x="52.13" xlink:href="#m8151a74a79" y="160.751175"/>
      </g>
     </g>
     <g id="text_9">
      <!-- 0.8 -->
      <g transform="translate(29.226875 164.550394)scale(0.1 -0.1)">
       <defs>
        <path d="M 31.78125 34.625 
Q 24.75 34.625 20.71875 30.859375 
Q 16.703125 27.09375 16.703125 20.515625 
Q 16.703125 13.921875 20.71875 10.15625 
Q 24.75 6.390625 31.78125 6.390625 
Q 38.8125 6.390625 42.859375 10.171875 
Q 46.921875 13.96875 46.921875 20.515625 
Q 46.921875 27.09375 42.890625 30.859375 
Q 38.875 34.625 31.78125 34.625 
z
M 21.921875 38.8125 
Q 15.578125 40.375 12.03125 44.71875 
Q 8.5 49.078125 8.5 55.328125 
Q 8.5 64.0625 14.71875 69.140625 
Q 20.953125 74.21875 31.78125 74.21875 
Q 42.671875 74.21875 48.875 69.140625 
Q 55.078125 64.0625 55.078125 55.328125 
Q 55.078125 49.078125 51.53125 44.71875 
Q 48 40.375 41.703125 38.8125 
Q 48.828125 37.15625 52.796875 32.3125 
Q 56.78125 27.484375 56.78125 20.515625 
Q 56.78125 9.90625 50.3125 4.234375 
Q 43.84375 -1.421875 31.78125 -1.421875 
Q 19.734375 -1.421875 13.25 4.234375 
Q 6.78125 9.90625 6.78125 20.515625 
Q 6.78125 27.484375 10.78125 32.3125 
Q 14.796875 37.15625 21.921875 38.8125 
z
M 18.3125 54.390625 
Q 18.3125 48.734375 21.84375 45.5625 
Q 25.390625 42.390625 31.78125 42.390625 
Q 38.140625 42.390625 41.71875 45.5625 
Q 45.3125 48.734375 45.3125 54.390625 
Q 45.3125 60.0625 41.71875 63.234375 
Q 38.140625 66.40625 31.78125 66.40625 
Q 25.390625 66.40625 21.84375 63.234375 
Q 18.3125 60.0625 18.3125 54.390625 
z
" id="DejaVuSans-56"/>
       </defs>
       <use xlink:href="#DejaVuSans-48"/>
       <use x="63.623047" xlink:href="#DejaVuSans-46"/>
       <use x="95.410156" xlink:href="#DejaVuSans-56"/>
      </g>
     </g>
    </g>
    <g id="ytick_4">
     <g id="line2d_12">
      <path clip-path="url(#p47ef667ca4)" d="M 52.13 133.416134 
L 233.229545 133.416134 
" style="fill:none;stroke:#000000;stroke-dasharray:0.37,0.16;stroke-dashoffset:0;stroke-opacity:0.5;stroke-width:0.1;"/>
     </g>
     <g id="line2d_13">
      <g>
       <use style="stroke:#000000;stroke-width:0.8;" x="52.13" xlink:href="#m8151a74a79" y="133.416134"/>
      </g>
     </g>
     <g id="text_10">
      <!-- 1.0 -->
      <g transform="translate(29.226875 137.215353)scale(0.1 -0.1)">
       <use xlink:href="#DejaVuSans-49"/>
       <use x="63.623047" xlink:href="#DejaVuSans-46"/>
       <use x="95.410156" xlink:href="#DejaVuSans-48"/>
      </g>
     </g>
    </g>
    <g id="ytick_5">
     <g id="line2d_14">
      <path clip-path="url(#p47ef667ca4)" d="M 52.13 106.081093 
L 233.229545 106.081093 
" style="fill:none;stroke:#000000;stroke-dasharray:0.37,0.16;stroke-dashoffset:0;stroke-opacity:0.5;stroke-width:0.1;"/>
     </g>
     <g id="line2d_15">
      <g>
       <use style="stroke:#000000;stroke-width:0.8;" x="52.13" xlink:href="#m8151a74a79" y="106.081093"/>
      </g>
     </g>
     <g id="text_11">
      <!-- 1.2 -->
      <g transform="translate(29.226875 109.880312)scale(0.1 -0.1)">
       <use xlink:href="#DejaVuSans-49"/>
       <use x="63.623047" xlink:href="#DejaVuSans-46"/>
       <use x="95.410156" xlink:href="#DejaVuSans-50"/>
      </g>
     </g>
    </g>
    <g id="ytick_6">
     <g id="line2d_16">
      <path clip-path="url(#p47ef667ca4)" d="M 52.13 78.746052 
L 233.229545 78.746052 
" style="fill:none;stroke:#000000;stroke-dasharray:0.37,0.16;stroke-dashoffset:0;stroke-opacity:0.5;stroke-width:0.1;"/>
     </g>
     <g id="line2d_17">
      <g>
       <use style="stroke:#000000;stroke-width:0.8;" x="52.13" xlink:href="#m8151a74a79" y="78.746052"/>
      </g>
     </g>
     <g id="text_12">
      <!-- 1.4 -->
      <g transform="translate(29.226875 82.54527)scale(0.1 -0.1)">
       <use xlink:href="#DejaVuSans-49"/>
       <use x="63.623047" xlink:href="#DejaVuSans-46"/>
       <use x="95.410156" xlink:href="#DejaVuSans-52"/>
      </g>
     </g>
    </g>
    <g id="ytick_7">
     <g id="line2d_18">
      <path clip-path="url(#p47ef667ca4)" d="M 52.13 51.41101 
L 233.229545 51.41101 
" style="fill:none;stroke:#000000;stroke-dasharray:0.37,0.16;stroke-dashoffset:0;stroke-opacity:0.5;stroke-width:0.1;"/>
     </g>
     <g id="line2d_19">
      <g>
       <use style="stroke:#000000;stroke-width:0.8;" x="52.13" xlink:href="#m8151a74a79" y="51.41101"/>
      </g>
     </g>
     <g id="text_13">
      <!-- 1.6 -->
      <g transform="translate(29.226875 55.210229)scale(0.1 -0.1)">
       <use xlink:href="#DejaVuSans-49"/>
       <use x="63.623047" xlink:href="#DejaVuSans-46"/>
       <use x="95.410156" xlink:href="#DejaVuSans-54"/>
      </g>
     </g>
    </g>
    <g id="text_14">
     <!-- Cross-entropy -->
     <g transform="translate(21.899375 190.0575)rotate(-90)scale(0.16 -0.16)">
      <defs>
       <path d="M 64.40625 67.28125 
L 64.40625 56.890625 
Q 59.421875 61.53125 53.78125 63.8125 
Q 48.140625 66.109375 41.796875 66.109375 
Q 29.296875 66.109375 22.65625 58.46875 
Q 16.015625 50.828125 16.015625 36.375 
Q 16.015625 21.96875 22.65625 14.328125 
Q 29.296875 6.6875 41.796875 6.6875 
Q 48.140625 6.6875 53.78125 8.984375 
Q 59.421875 11.28125 64.40625 15.921875 
L 64.40625 5.609375 
Q 59.234375 2.09375 53.4375 0.328125 
Q 47.65625 -1.421875 41.21875 -1.421875 
Q 24.65625 -1.421875 15.125 8.703125 
Q 5.609375 18.84375 5.609375 36.375 
Q 5.609375 53.953125 15.125 64.078125 
Q 24.65625 74.21875 41.21875 74.21875 
Q 47.75 74.21875 53.53125 72.484375 
Q 59.328125 70.75 64.40625 67.28125 
z
" id="DejaVuSans-67"/>
       <path d="M 4.890625 31.390625 
L 31.203125 31.390625 
L 31.203125 23.390625 
L 4.890625 23.390625 
z
" id="DejaVuSans-45"/>
       <path d="M 18.109375 8.203125 
L 18.109375 -20.796875 
L 9.078125 -20.796875 
L 9.078125 54.6875 
L 18.109375 54.6875 
L 18.109375 46.390625 
Q 20.953125 51.265625 25.265625 53.625 
Q 29.59375 56 35.59375 56 
Q 45.5625 56 51.78125 48.09375 
Q 58.015625 40.1875 58.015625 27.296875 
Q 58.015625 14.40625 51.78125 6.484375 
Q 45.5625 -1.421875 35.59375 -1.421875 
Q 29.59375 -1.421875 25.265625 0.953125 
Q 20.953125 3.328125 18.109375 8.203125 
z
M 48.6875 27.296875 
Q 48.6875 37.203125 44.609375 42.84375 
Q 40.53125 48.484375 33.40625 48.484375 
Q 26.265625 48.484375 22.1875 42.84375 
Q 18.109375 37.203125 18.109375 27.296875 
Q 18.109375 17.390625 22.1875 11.75 
Q 26.265625 6.109375 33.40625 6.109375 
Q 40.53125 6.109375 44.609375 11.75 
Q 48.6875 17.390625 48.6875 27.296875 
z
" id="DejaVuSans-112"/>
       <path d="M 32.171875 -5.078125 
Q 28.375 -14.84375 24.75 -17.8125 
Q 21.140625 -20.796875 15.09375 -20.796875 
L 7.90625 -20.796875 
L 7.90625 -13.28125 
L 13.1875 -13.28125 
Q 16.890625 -13.28125 18.9375 -11.515625 
Q 21 -9.765625 23.484375 -3.21875 
L 25.09375 0.875 
L 2.984375 54.6875 
L 12.5 54.6875 
L 29.59375 11.921875 
L 46.6875 54.6875 
L 56.203125 54.6875 
z
" id="DejaVuSans-121"/>
      </defs>
      <use xlink:href="#DejaVuSans-67"/>
      <use x="69.824219" xlink:href="#DejaVuSans-114"/>
      <use x="108.6875" xlink:href="#DejaVuSans-111"/>
      <use x="169.869141" xlink:href="#DejaVuSans-115"/>
      <use x="221.96875" xlink:href="#DejaVuSans-115"/>
      <use x="274.068359" xlink:href="#DejaVuSans-45"/>
      <use x="310.152344" xlink:href="#DejaVuSans-101"/>
      <use x="371.675781" xlink:href="#DejaVuSans-110"/>
      <use x="435.054688" xlink:href="#DejaVuSans-116"/>
      <use x="474.263672" xlink:href="#DejaVuSans-114"/>
      <use x="513.126953" xlink:href="#DejaVuSans-111"/>
      <use x="574.308594" xlink:href="#DejaVuSans-112"/>
      <use x="637.785156" xlink:href="#DejaVuSans-121"/>
     </g>
    </g>
   </g>
   <g id="LineCollection_1">
    <path clip-path="url(#p47ef667ca4)" d="M 60.361798 49.912233 
L 60.361798 36.645455 
" style="fill:none;stroke:#c7c7c7;stroke-width:1.5;"/>
    <path clip-path="url(#p47ef667ca4)" d="M 62.076755 99.786627 
L 62.076755 88.629216 
" style="fill:none;stroke:#c7c7c7;stroke-width:1.5;"/>
    <path clip-path="url(#p47ef667ca4)" d="M 63.791713 125.213057 
L 63.791713 117.940323 
" style="fill:none;stroke:#c7c7c7;stroke-width:1.5;"/>
    <path clip-path="url(#p47ef667ca4)" d="M 65.506671 134.277744 
L 65.506671 126.39817 
" style="fill:none;stroke:#c7c7c7;stroke-width:1.5;"/>
    <path clip-path="url(#p47ef667ca4)" d="M 67.221629 140.460349 
L 67.221629 135.360479 
" style="fill:none;stroke:#c7c7c7;stroke-width:1.5;"/>
    <path clip-path="url(#p47ef667ca4)" d="M 68.936587 145.531837 
L 68.936587 139.591901 
" style="fill:none;stroke:#c7c7c7;stroke-width:1.5;"/>
    <path clip-path="url(#p47ef667ca4)" d="M 70.651544 156.715375 
L 70.651544 147.414337 
" style="fill:none;stroke:#c7c7c7;stroke-width:1.5;"/>
    <path clip-path="url(#p47ef667ca4)" d="M 72.366502 159.370462 
L 72.366502 151.416529 
" style="fill:none;stroke:#c7c7c7;stroke-width:1.5;"/>
    <path clip-path="url(#p47ef667ca4)" d="M 74.08146 162.779743 
L 74.08146 158.920505 
" style="fill:none;stroke:#c7c7c7;stroke-width:1.5;"/>
    <path clip-path="url(#p47ef667ca4)" d="M 75.796418 164.896339 
L 75.796418 160.768573 
" style="fill:none;stroke:#c7c7c7;stroke-width:1.5;"/>
    <path clip-path="url(#p47ef667ca4)" d="M 77.511376 169.30817 
L 77.511376 163.997226 
" style="fill:none;stroke:#c7c7c7;stroke-width:1.5;"/>
    <path clip-path="url(#p47ef667ca4)" d="M 79.226334 171.494581 
L 79.226334 166.768646 
" style="fill:none;stroke:#c7c7c7;stroke-width:1.5;"/>
    <path clip-path="url(#p47ef667ca4)" d="M 80.941291 173.627081 
L 80.941291 170.599267 
" style="fill:none;stroke:#c7c7c7;stroke-width:1.5;"/>
    <path clip-path="url(#p47ef667ca4)" d="M 82.656249 175.075846 
L 82.656249 172.195644 
" style="fill:none;stroke:#c7c7c7;stroke-width:1.5;"/>
    <path clip-path="url(#p47ef667ca4)" d="M 84.371207 178.353478 
L 84.371207 173.581673 
" style="fill:none;stroke:#c7c7c7;stroke-width:1.5;"/>
    <path clip-path="url(#p47ef667ca4)" d="M 86.086165 177.651506 
L 86.086165 173.872351 
" style="fill:none;stroke:#c7c7c7;stroke-width:1.5;"/>
    <path clip-path="url(#p47ef667ca4)" d="M 87.801123 179.687504 
L 87.801123 176.148754 
" style="fill:none;stroke:#c7c7c7;stroke-width:1.5;"/>
    <path clip-path="url(#p47ef667ca4)" d="M 89.51608 182.802323 
L 89.51608 179.68624 
" style="fill:none;stroke:#c7c7c7;stroke-width:1.5;"/>
    <path clip-path="url(#p47ef667ca4)" d="M 91.231038 182.212776 
L 91.231038 177.768243 
" style="fill:none;stroke:#c7c7c7;stroke-width:1.5;"/>
    <path clip-path="url(#p47ef667ca4)" d="M 92.945996 182.342275 
L 92.945996 179.620415 
" style="fill:none;stroke:#c7c7c7;stroke-width:1.5;"/>
    <path clip-path="url(#p47ef667ca4)" d="M 94.660954 184.886726 
L 94.660954 181.642648 
" style="fill:none;stroke:#c7c7c7;stroke-width:1.5;"/>
    <path clip-path="url(#p47ef667ca4)" d="M 96.375912 186.128907 
L 96.375912 181.650459 
" style="fill:none;stroke:#c7c7c7;stroke-width:1.5;"/>
    <path clip-path="url(#p47ef667ca4)" d="M 98.090869 187.329938 
L 98.090869 184.208795 
" style="fill:none;stroke:#c7c7c7;stroke-width:1.5;"/>
    <path clip-path="url(#p47ef667ca4)" d="M 99.805827 186.25187 
L 99.805827 182.735728 
" style="fill:none;stroke:#c7c7c7;stroke-width:1.5;"/>
    <path clip-path="url(#p47ef667ca4)" d="M 101.520785 187.872958 
L 101.520785 184.484607 
" style="fill:none;stroke:#c7c7c7;stroke-width:1.5;"/>
    <path clip-path="url(#p47ef667ca4)" d="M 103.235743 188.700602 
L 103.235743 184.033352 
" style="fill:none;stroke:#c7c7c7;stroke-width:1.5;"/>
    <path clip-path="url(#p47ef667ca4)" d="M 104.950701 190.596211 
L 104.950701 186.755944 
" style="fill:none;stroke:#c7c7c7;stroke-width:1.5;"/>
    <path clip-path="url(#p47ef667ca4)" d="M 106.665659 192.174738 
L 106.665659 189.347522 
" style="fill:none;stroke:#c7c7c7;stroke-width:1.5;"/>
    <path clip-path="url(#p47ef667ca4)" d="M 108.380616 192.286195 
L 108.380616 190.172363 
" style="fill:none;stroke:#c7c7c7;stroke-width:1.5;"/>
    <path clip-path="url(#p47ef667ca4)" d="M 110.095574 192.30797 
L 110.095574 189.472025 
" style="fill:none;stroke:#c7c7c7;stroke-width:1.5;"/>
    <path clip-path="url(#p47ef667ca4)" d="M 111.810532 194.190419 
L 111.810532 191.435227 
" style="fill:none;stroke:#c7c7c7;stroke-width:1.5;"/>
    <path clip-path="url(#p47ef667ca4)" d="M 113.52549 193.912857 
L 113.52549 190.773557 
" style="fill:none;stroke:#c7c7c7;stroke-width:1.5;"/>
    <path clip-path="url(#p47ef667ca4)" d="M 115.240448 195.751579 
L 115.240448 193.26105 
" style="fill:none;stroke:#c7c7c7;stroke-width:1.5;"/>
    <path clip-path="url(#p47ef667ca4)" d="M 116.955405 196.010991 
L 116.955405 193.909908 
" style="fill:none;stroke:#c7c7c7;stroke-width:1.5;"/>
    <path clip-path="url(#p47ef667ca4)" d="M 118.670363 196.379155 
L 118.670363 194.355793 
" style="fill:none;stroke:#c7c7c7;stroke-width:1.5;"/>
    <path clip-path="url(#p47ef667ca4)" d="M 120.385321 197.819009 
L 120.385321 194.869513 
" style="fill:none;stroke:#c7c7c7;stroke-width:1.5;"/>
    <path clip-path="url(#p47ef667ca4)" d="M 122.100279 199.737932 
L 122.100279 197.420303 
" style="fill:none;stroke:#c7c7c7;stroke-width:1.5;"/>
    <path clip-path="url(#p47ef667ca4)" d="M 123.815237 198.827633 
L 123.815237 196.730362 
" style="fill:none;stroke:#c7c7c7;stroke-width:1.5;"/>
    <path clip-path="url(#p47ef667ca4)" d="M 125.530195 199.442744 
L 125.530195 196.504063 
" style="fill:none;stroke:#c7c7c7;stroke-width:1.5;"/>
    <path clip-path="url(#p47ef667ca4)" d="M 127.245152 199.365004 
L 127.245152 196.98597 
" style="fill:none;stroke:#c7c7c7;stroke-width:1.5;"/>
    <path clip-path="url(#p47ef667ca4)" d="M 128.96011 200.25724 
L 128.96011 197.387818 
" style="fill:none;stroke:#c7c7c7;stroke-width:1.5;"/>
    <path clip-path="url(#p47ef667ca4)" d="M 130.675068 200.902332 
L 130.675068 198.255226 
" style="fill:none;stroke:#c7c7c7;stroke-width:1.5;"/>
    <path clip-path="url(#p47ef667ca4)" d="M 132.390026 202.197984 
L 132.390026 199.811279 
" style="fill:none;stroke:#c7c7c7;stroke-width:1.5;"/>
    <path clip-path="url(#p47ef667ca4)" d="M 134.104984 202.239598 
L 134.104984 199.643349 
" style="fill:none;stroke:#c7c7c7;stroke-width:1.5;"/>
    <path clip-path="url(#p47ef667ca4)" d="M 135.819941 202.385013 
L 135.819941 200.742628 
" style="fill:none;stroke:#c7c7c7;stroke-width:1.5;"/>
    <path clip-path="url(#p47ef667ca4)" d="M 137.534899 202.841317 
L 137.534899 200.661167 
" style="fill:none;stroke:#c7c7c7;stroke-width:1.5;"/>
    <path clip-path="url(#p47ef667ca4)" d="M 139.249857 203.085359 
L 139.249857 201.118638 
" style="fill:none;stroke:#c7c7c7;stroke-width:1.5;"/>
    <path clip-path="url(#p47ef667ca4)" d="M 140.964815 203.059168 
L 140.964815 200.146463 
" style="fill:none;stroke:#c7c7c7;stroke-width:1.5;"/>
    <path clip-path="url(#p47ef667ca4)" d="M 142.679773 204.563804 
L 142.679773 202.430402 
" style="fill:none;stroke:#c7c7c7;stroke-width:1.5;"/>
    <path clip-path="url(#p47ef667ca4)" d="M 144.394731 204.566112 
L 144.394731 202.609028 
" style="fill:none;stroke:#c7c7c7;stroke-width:1.5;"/>
    <path clip-path="url(#p47ef667ca4)" d="M 146.109688 205.620742 
L 146.109688 203.967968 
" style="fill:none;stroke:#c7c7c7;stroke-width:1.5;"/>
    <path clip-path="url(#p47ef667ca4)" d="M 147.824646 205.076793 
L 147.824646 203.148347 
" style="fill:none;stroke:#c7c7c7;stroke-width:1.5;"/>
    <path clip-path="url(#p47ef667ca4)" d="M 149.539604 205.945425 
L 149.539604 204.272987 
" style="fill:none;stroke:#c7c7c7;stroke-width:1.5;"/>
    <path clip-path="url(#p47ef667ca4)" d="M 151.254562 206.328257 
L 151.254562 204.852651 
" style="fill:none;stroke:#c7c7c7;stroke-width:1.5;"/>
    <path clip-path="url(#p47ef667ca4)" d="M 152.96952 206.30541 
L 152.96952 204.754491 
" style="fill:none;stroke:#c7c7c7;stroke-width:1.5;"/>
    <path clip-path="url(#p47ef667ca4)" d="M 154.684477 207.095409 
L 154.684477 205.725237 
" style="fill:none;stroke:#c7c7c7;stroke-width:1.5;"/>
    <path clip-path="url(#p47ef667ca4)" d="M 156.399435 206.291907 
L 156.399435 204.675492 
" style="fill:none;stroke:#c7c7c7;stroke-width:1.5;"/>
    <path clip-path="url(#p47ef667ca4)" d="M 158.114393 206.820832 
L 158.114393 204.809413 
" style="fill:none;stroke:#c7c7c7;stroke-width:1.5;"/>
    <path clip-path="url(#p47ef667ca4)" d="M 159.829351 207.65028 
L 159.829351 205.930083 
" style="fill:none;stroke:#c7c7c7;stroke-width:1.5;"/>
    <path clip-path="url(#p47ef667ca4)" d="M 161.544309 207.815354 
L 161.544309 206.353809 
" style="fill:none;stroke:#c7c7c7;stroke-width:1.5;"/>
    <path clip-path="url(#p47ef667ca4)" d="M 163.259267 207.771244 
L 163.259267 205.786744 
" style="fill:none;stroke:#c7c7c7;stroke-width:1.5;"/>
    <path clip-path="url(#p47ef667ca4)" d="M 164.974224 207.834555 
L 164.974224 205.603533 
" style="fill:none;stroke:#c7c7c7;stroke-width:1.5;"/>
    <path clip-path="url(#p47ef667ca4)" d="M 166.689182 207.674927 
L 166.689182 206.226899 
" style="fill:none;stroke:#c7c7c7;stroke-width:1.5;"/>
    <path clip-path="url(#p47ef667ca4)" d="M 168.40414 207.788987 
L 168.40414 205.485179 
" style="fill:none;stroke:#c7c7c7;stroke-width:1.5;"/>
    <path clip-path="url(#p47ef667ca4)" d="M 170.119098 207.811388 
L 170.119098 206.140225 
" style="fill:none;stroke:#c7c7c7;stroke-width:1.5;"/>
    <path clip-path="url(#p47ef667ca4)" d="M 171.834056 208.460592 
L 171.834056 207.10198 
" style="fill:none;stroke:#c7c7c7;stroke-width:1.5;"/>
    <path clip-path="url(#p47ef667ca4)" d="M 173.549013 208.175123 
L 173.549013 206.613945 
" style="fill:none;stroke:#c7c7c7;stroke-width:1.5;"/>
    <path clip-path="url(#p47ef667ca4)" d="M 175.263971 209.837572 
L 175.263971 208.431111 
" style="fill:none;stroke:#c7c7c7;stroke-width:1.5;"/>
    <path clip-path="url(#p47ef667ca4)" d="M 176.978929 208.818467 
L 176.978929 206.923637 
" style="fill:none;stroke:#c7c7c7;stroke-width:1.5;"/>
    <path clip-path="url(#p47ef667ca4)" d="M 178.693887 210.123984 
L 178.693887 208.889697 
" style="fill:none;stroke:#c7c7c7;stroke-width:1.5;"/>
    <path clip-path="url(#p47ef667ca4)" d="M 180.408845 209.43222 
L 180.408845 207.656064 
" style="fill:none;stroke:#c7c7c7;stroke-width:1.5;"/>
    <path clip-path="url(#p47ef667ca4)" d="M 182.123803 211.262975 
L 182.123803 209.821648 
" style="fill:none;stroke:#c7c7c7;stroke-width:1.5;"/>
    <path clip-path="url(#p47ef667ca4)" d="M 183.83876 210.034783 
L 183.83876 208.442549 
" style="fill:none;stroke:#c7c7c7;stroke-width:1.5;"/>
    <path clip-path="url(#p47ef667ca4)" d="M 185.553718 210.359277 
L 185.553718 208.737393 
" style="fill:none;stroke:#c7c7c7;stroke-width:1.5;"/>
    <path clip-path="url(#p47ef667ca4)" d="M 187.268676 211.655428 
L 187.268676 210.174512 
" style="fill:none;stroke:#c7c7c7;stroke-width:1.5;"/>
    <path clip-path="url(#p47ef667ca4)" d="M 188.983634 211.070053 
L 188.983634 209.25755 
" style="fill:none;stroke:#c7c7c7;stroke-width:1.5;"/>
    <path clip-path="url(#p47ef667ca4)" d="M 190.698592 211.770827 
L 190.698592 210.177618 
" style="fill:none;stroke:#c7c7c7;stroke-width:1.5;"/>
    <path clip-path="url(#p47ef667ca4)" d="M 192.413549 211.359003 
L 192.413549 209.602135 
" style="fill:none;stroke:#c7c7c7;stroke-width:1.5;"/>
    <path clip-path="url(#p47ef667ca4)" d="M 194.128507 212.150965 
L 194.128507 210.307718 
" style="fill:none;stroke:#c7c7c7;stroke-width:1.5;"/>
   </g>
   <g id="LineCollection_2">
    <path clip-path="url(#p47ef667ca4)" d="M 60.361798 140.053943 
L 60.361798 135.140777 
" style="fill:none;stroke:#98df8a;stroke-width:1.5;"/>
    <path clip-path="url(#p47ef667ca4)" d="M 62.076755 176.137531 
L 62.076755 167.943168 
" style="fill:none;stroke:#98df8a;stroke-width:1.5;"/>
    <path clip-path="url(#p47ef667ca4)" d="M 63.791713 187.018764 
L 63.791713 184.084031 
" style="fill:none;stroke:#98df8a;stroke-width:1.5;"/>
    <path clip-path="url(#p47ef667ca4)" d="M 65.506671 196.518651 
L 65.506671 194.309778 
" style="fill:none;stroke:#98df8a;stroke-width:1.5;"/>
    <path clip-path="url(#p47ef667ca4)" d="M 67.221629 202.661656 
L 67.221629 200.803946 
" style="fill:none;stroke:#98df8a;stroke-width:1.5;"/>
    <path clip-path="url(#p47ef667ca4)" d="M 68.936587 207.579788 
L 68.936587 205.28427 
" style="fill:none;stroke:#98df8a;stroke-width:1.5;"/>
    <path clip-path="url(#p47ef667ca4)" d="M 70.651544 207.610091 
L 70.651544 205.656476 
" style="fill:none;stroke:#98df8a;stroke-width:1.5;"/>
    <path clip-path="url(#p47ef667ca4)" d="M 72.366502 212.85302 
L 72.366502 211.268398 
" style="fill:none;stroke:#98df8a;stroke-width:1.5;"/>
    <path clip-path="url(#p47ef667ca4)" d="M 74.08146 214.506698 
L 74.08146 213.432082 
" style="fill:none;stroke:#98df8a;stroke-width:1.5;"/>
    <path clip-path="url(#p47ef667ca4)" d="M 75.796418 216.210646 
L 75.796418 215.529481 
" style="fill:none;stroke:#98df8a;stroke-width:1.5;"/>
    <path clip-path="url(#p47ef667ca4)" d="M 77.511376 218.164517 
L 77.511376 216.907725 
" style="fill:none;stroke:#98df8a;stroke-width:1.5;"/>
    <path clip-path="url(#p47ef667ca4)" d="M 79.226334 218.178192 
L 79.226334 216.48233 
" style="fill:none;stroke:#98df8a;stroke-width:1.5;"/>
    <path clip-path="url(#p47ef667ca4)" d="M 80.941291 220.257065 
L 80.941291 219.272556 
" style="fill:none;stroke:#98df8a;stroke-width:1.5;"/>
    <path clip-path="url(#p47ef667ca4)" d="M 82.656249 220.111855 
L 82.656249 218.409474 
" style="fill:none;stroke:#98df8a;stroke-width:1.5;"/>
    <path clip-path="url(#p47ef667ca4)" d="M 84.371207 222.040039 
L 84.371207 220.299296 
" style="fill:none;stroke:#98df8a;stroke-width:1.5;"/>
    <path clip-path="url(#p47ef667ca4)" d="M 86.086165 219.884767 
L 86.086165 217.181908 
" style="fill:none;stroke:#98df8a;stroke-width:1.5;"/>
    <path clip-path="url(#p47ef667ca4)" d="M 87.801123 223.029913 
L 87.801123 222.199075 
" style="fill:none;stroke:#98df8a;stroke-width:1.5;"/>
    <path clip-path="url(#p47ef667ca4)" d="M 89.51608 222.618834 
L 89.51608 221.591721 
" style="fill:none;stroke:#98df8a;stroke-width:1.5;"/>
    <path clip-path="url(#p47ef667ca4)" d="M 91.231038 224.391347 
L 91.231038 223.392494 
" style="fill:none;stroke:#98df8a;stroke-width:1.5;"/>
    <path clip-path="url(#p47ef667ca4)" d="M 92.945996 225.186811 
L 92.945996 224.640027 
" style="fill:none;stroke:#98df8a;stroke-width:1.5;"/>
    <path clip-path="url(#p47ef667ca4)" d="M 94.660954 224.068334 
L 94.660954 223.269306 
" style="fill:none;stroke:#98df8a;stroke-width:1.5;"/>
    <path clip-path="url(#p47ef667ca4)" d="M 96.375912 226.369108 
L 96.375912 225.935773 
" style="fill:none;stroke:#98df8a;stroke-width:1.5;"/>
    <path clip-path="url(#p47ef667ca4)" d="M 98.090869 225.356955 
L 98.090869 223.49388 
" style="fill:none;stroke:#98df8a;stroke-width:1.5;"/>
    <path clip-path="url(#p47ef667ca4)" d="M 99.805827 225.363332 
L 99.805827 224.029858 
" style="fill:none;stroke:#98df8a;stroke-width:1.5;"/>
    <path clip-path="url(#p47ef667ca4)" d="M 101.520785 227.339421 
L 101.520785 226.717844 
" style="fill:none;stroke:#98df8a;stroke-width:1.5;"/>
    <path clip-path="url(#p47ef667ca4)" d="M 103.235743 224.363882 
L 103.235743 221.533876 
" style="fill:none;stroke:#98df8a;stroke-width:1.5;"/>
    <path clip-path="url(#p47ef667ca4)" d="M 104.950701 226.278496 
L 104.950701 223.791354 
" style="fill:none;stroke:#98df8a;stroke-width:1.5;"/>
    <path clip-path="url(#p47ef667ca4)" d="M 106.665659 227.925194 
L 106.665659 227.363521 
" style="fill:none;stroke:#98df8a;stroke-width:1.5;"/>
    <path clip-path="url(#p47ef667ca4)" d="M 108.380616 227.421826 
L 108.380616 226.711627 
" style="fill:none;stroke:#98df8a;stroke-width:1.5;"/>
    <path clip-path="url(#p47ef667ca4)" d="M 110.095574 228.5624 
L 110.095574 227.992652 
" style="fill:none;stroke:#98df8a;stroke-width:1.5;"/>
    <path clip-path="url(#p47ef667ca4)" d="M 111.810532 227.81817 
L 111.810532 227.058526 
" style="fill:none;stroke:#98df8a;stroke-width:1.5;"/>
    <path clip-path="url(#p47ef667ca4)" d="M 113.52549 227.720827 
L 113.52549 226.715153 
" style="fill:none;stroke:#98df8a;stroke-width:1.5;"/>
    <path clip-path="url(#p47ef667ca4)" d="M 115.240448 227.731497 
L 115.240448 227.044061 
" style="fill:none;stroke:#98df8a;stroke-width:1.5;"/>
    <path clip-path="url(#p47ef667ca4)" d="M 116.955405 228.633132 
L 116.955405 227.666764 
" style="fill:none;stroke:#98df8a;stroke-width:1.5;"/>
    <path clip-path="url(#p47ef667ca4)" d="M 118.670363 227.864993 
L 118.670363 226.748222 
" style="fill:none;stroke:#98df8a;stroke-width:1.5;"/>
    <path clip-path="url(#p47ef667ca4)" d="M 120.385321 228.827875 
L 120.385321 228.082343 
" style="fill:none;stroke:#98df8a;stroke-width:1.5;"/>
    <path clip-path="url(#p47ef667ca4)" d="M 122.100279 229.934618 
L 122.100279 229.226147 
" style="fill:none;stroke:#98df8a;stroke-width:1.5;"/>
    <path clip-path="url(#p47ef667ca4)" d="M 123.815237 228.788011 
L 123.815237 228.115386 
" style="fill:none;stroke:#98df8a;stroke-width:1.5;"/>
    <path clip-path="url(#p47ef667ca4)" d="M 125.530195 228.728043 
L 125.530195 226.866295 
" style="fill:none;stroke:#98df8a;stroke-width:1.5;"/>
    <path clip-path="url(#p47ef667ca4)" d="M 127.245152 229.400377 
L 127.245152 228.341334 
" style="fill:none;stroke:#98df8a;stroke-width:1.5;"/>
    <path clip-path="url(#p47ef667ca4)" d="M 128.96011 229.392432 
L 128.96011 228.171406 
" style="fill:none;stroke:#98df8a;stroke-width:1.5;"/>
    <path clip-path="url(#p47ef667ca4)" d="M 130.675068 229.794286 
L 130.675068 228.610739 
" style="fill:none;stroke:#98df8a;stroke-width:1.5;"/>
    <path clip-path="url(#p47ef667ca4)" d="M 132.390026 230.131521 
L 132.390026 229.674536 
" style="fill:none;stroke:#98df8a;stroke-width:1.5;"/>
    <path clip-path="url(#p47ef667ca4)" d="M 134.104984 230.121224 
L 134.104984 229.237423 
" style="fill:none;stroke:#98df8a;stroke-width:1.5;"/>
    <path clip-path="url(#p47ef667ca4)" d="M 135.819941 230.2015 
L 135.819941 229.47006 
" style="fill:none;stroke:#98df8a;stroke-width:1.5;"/>
    <path clip-path="url(#p47ef667ca4)" d="M 137.534899 230.749017 
L 137.534899 230.055111 
" style="fill:none;stroke:#98df8a;stroke-width:1.5;"/>
    <path clip-path="url(#p47ef667ca4)" d="M 139.249857 230.788906 
L 139.249857 228.650494 
" style="fill:none;stroke:#98df8a;stroke-width:1.5;"/>
    <path clip-path="url(#p47ef667ca4)" d="M 140.964815 229.761907 
L 140.964815 228.139985 
" style="fill:none;stroke:#98df8a;stroke-width:1.5;"/>
    <path clip-path="url(#p47ef667ca4)" d="M 142.679773 231.657999 
L 142.679773 231.021715 
" style="fill:none;stroke:#98df8a;stroke-width:1.5;"/>
    <path clip-path="url(#p47ef667ca4)" d="M 144.394731 230.476039 
L 144.394731 229.901844 
" style="fill:none;stroke:#98df8a;stroke-width:1.5;"/>
    <path clip-path="url(#p47ef667ca4)" d="M 146.109688 230.950054 
L 146.109688 229.947481 
" style="fill:none;stroke:#98df8a;stroke-width:1.5;"/>
    <path clip-path="url(#p47ef667ca4)" d="M 147.824646 229.742076 
L 147.824646 228.603998 
" style="fill:none;stroke:#98df8a;stroke-width:1.5;"/>
    <path clip-path="url(#p47ef667ca4)" d="M 149.539604 230.733424 
L 149.539604 229.994417 
" style="fill:none;stroke:#98df8a;stroke-width:1.5;"/>
    <path clip-path="url(#p47ef667ca4)" d="M 151.254562 230.849897 
L 151.254562 229.719698 
" style="fill:none;stroke:#98df8a;stroke-width:1.5;"/>
    <path clip-path="url(#p47ef667ca4)" d="M 152.96952 230.799044 
L 152.96952 229.858844 
" style="fill:none;stroke:#98df8a;stroke-width:1.5;"/>
    <path clip-path="url(#p47ef667ca4)" d="M 154.684477 230.501732 
L 154.684477 229.633192 
" style="fill:none;stroke:#98df8a;stroke-width:1.5;"/>
    <path clip-path="url(#p47ef667ca4)" d="M 156.399435 230.950264 
L 156.399435 229.923892 
" style="fill:none;stroke:#98df8a;stroke-width:1.5;"/>
    <path clip-path="url(#p47ef667ca4)" d="M 158.114393 230.41205 
L 158.114393 229.672039 
" style="fill:none;stroke:#98df8a;stroke-width:1.5;"/>
    <path clip-path="url(#p47ef667ca4)" d="M 159.829351 230.888808 
L 159.829351 230.566176 
" style="fill:none;stroke:#98df8a;stroke-width:1.5;"/>
    <path clip-path="url(#p47ef667ca4)" d="M 161.544309 230.204054 
L 161.544309 229.097658 
" style="fill:none;stroke:#98df8a;stroke-width:1.5;"/>
    <path clip-path="url(#p47ef667ca4)" d="M 163.259267 230.17626 
L 163.259267 229.126069 
" style="fill:none;stroke:#98df8a;stroke-width:1.5;"/>
    <path clip-path="url(#p47ef667ca4)" d="M 164.974224 230.420825 
L 164.974224 230.03264 
" style="fill:none;stroke:#98df8a;stroke-width:1.5;"/>
    <path clip-path="url(#p47ef667ca4)" d="M 166.689182 231.007708 
L 166.689182 230.439596 
" style="fill:none;stroke:#98df8a;stroke-width:1.5;"/>
    <path clip-path="url(#p47ef667ca4)" d="M 168.40414 229.92182 
L 168.40414 228.875313 
" style="fill:none;stroke:#98df8a;stroke-width:1.5;"/>
    <path clip-path="url(#p47ef667ca4)" d="M 170.119098 230.302968 
L 170.119098 229.86207 
" style="fill:none;stroke:#98df8a;stroke-width:1.5;"/>
    <path clip-path="url(#p47ef667ca4)" d="M 171.834056 231.118194 
L 171.834056 230.482505 
" style="fill:none;stroke:#98df8a;stroke-width:1.5;"/>
    <path clip-path="url(#p47ef667ca4)" d="M 173.549013 230.639091 
L 173.549013 229.70945 
" style="fill:none;stroke:#98df8a;stroke-width:1.5;"/>
    <path clip-path="url(#p47ef667ca4)" d="M 175.263971 231.002528 
L 175.263971 230.277574 
" style="fill:none;stroke:#98df8a;stroke-width:1.5;"/>
    <path clip-path="url(#p47ef667ca4)" d="M 176.978929 229.610068 
L 176.978929 228.433503 
" style="fill:none;stroke:#98df8a;stroke-width:1.5;"/>
    <path clip-path="url(#p47ef667ca4)" d="M 178.693887 230.953228 
L 178.693887 230.179104 
" style="fill:none;stroke:#98df8a;stroke-width:1.5;"/>
    <path clip-path="url(#p47ef667ca4)" d="M 180.408845 230.333449 
L 180.408845 229.486102 
" style="fill:none;stroke:#98df8a;stroke-width:1.5;"/>
    <path clip-path="url(#p47ef667ca4)" d="M 182.123803 229.811159 
L 182.123803 228.821137 
" style="fill:none;stroke:#98df8a;stroke-width:1.5;"/>
    <path clip-path="url(#p47ef667ca4)" d="M 183.83876 230.137347 
L 183.83876 228.352981 
" style="fill:none;stroke:#98df8a;stroke-width:1.5;"/>
    <path clip-path="url(#p47ef667ca4)" d="M 185.553718 230.614225 
L 185.553718 229.582339 
" style="fill:none;stroke:#98df8a;stroke-width:1.5;"/>
    <path clip-path="url(#p47ef667ca4)" d="M 187.268676 230.552503 
L 187.268676 229.140188 
" style="fill:none;stroke:#98df8a;stroke-width:1.5;"/>
    <path clip-path="url(#p47ef667ca4)" d="M 188.983634 230.574136 
L 188.983634 229.835156 
" style="fill:none;stroke:#98df8a;stroke-width:1.5;"/>
    <path clip-path="url(#p47ef667ca4)" d="M 190.698592 230.884158 
L 190.698592 230.320145 
" style="fill:none;stroke:#98df8a;stroke-width:1.5;"/>
    <path clip-path="url(#p47ef667ca4)" d="M 192.413549 230.196028 
L 192.413549 228.734648 
" style="fill:none;stroke:#98df8a;stroke-width:1.5;"/>
    <path clip-path="url(#p47ef667ca4)" d="M 194.128507 230.13885 
L 194.128507 229.575803 
" style="fill:none;stroke:#98df8a;stroke-width:1.5;"/>
    <path clip-path="url(#p47ef667ca4)" d="M 195.843465 230.501959 
L 195.843465 229.43782 
" style="fill:none;stroke:#98df8a;stroke-width:1.5;"/>
    <path clip-path="url(#p47ef667ca4)" d="M 197.558423 230.250763 
L 197.558423 228.995263 
" style="fill:none;stroke:#98df8a;stroke-width:1.5;"/>
    <path clip-path="url(#p47ef667ca4)" d="M 199.273381 229.320458 
L 199.273381 227.964251 
" style="fill:none;stroke:#98df8a;stroke-width:1.5;"/>
    <path clip-path="url(#p47ef667ca4)" d="M 200.988338 229.95197 
L 200.988338 228.348532 
" style="fill:none;stroke:#98df8a;stroke-width:1.5;"/>
   </g>
   <g id="LineCollection_3">
    <path clip-path="url(#p47ef667ca4)" d="M 60.361798 134.825453 
L 60.361798 130.47406 
" style="fill:none;stroke:#ff9896;stroke-width:1.5;"/>
    <path clip-path="url(#p47ef667ca4)" d="M 62.076755 180.148607 
L 62.076755 175.80391 
" style="fill:none;stroke:#ff9896;stroke-width:1.5;"/>
    <path clip-path="url(#p47ef667ca4)" d="M 63.791713 188.057416 
L 63.791713 184.401502 
" style="fill:none;stroke:#ff9896;stroke-width:1.5;"/>
    <path clip-path="url(#p47ef667ca4)" d="M 65.506671 196.571239 
L 65.506671 195.167394 
" style="fill:none;stroke:#ff9896;stroke-width:1.5;"/>
    <path clip-path="url(#p47ef667ca4)" d="M 67.221629 201.145228 
L 67.221629 198.175126 
" style="fill:none;stroke:#ff9896;stroke-width:1.5;"/>
    <path clip-path="url(#p47ef667ca4)" d="M 68.936587 205.079493 
L 68.936587 203.503675 
" style="fill:none;stroke:#ff9896;stroke-width:1.5;"/>
    <path clip-path="url(#p47ef667ca4)" d="M 70.651544 210.022526 
L 70.651544 208.674426 
" style="fill:none;stroke:#ff9896;stroke-width:1.5;"/>
    <path clip-path="url(#p47ef667ca4)" d="M 72.366502 212.211477 
L 72.366502 210.177935 
" style="fill:none;stroke:#ff9896;stroke-width:1.5;"/>
    <path clip-path="url(#p47ef667ca4)" d="M 74.08146 214.806897 
L 74.08146 213.862308 
" style="fill:none;stroke:#ff9896;stroke-width:1.5;"/>
    <path clip-path="url(#p47ef667ca4)" d="M 75.796418 216.852431 
L 75.796418 215.946566 
" style="fill:none;stroke:#ff9896;stroke-width:1.5;"/>
    <path clip-path="url(#p47ef667ca4)" d="M 77.511376 217.781499 
L 77.511376 217.020543 
" style="fill:none;stroke:#ff9896;stroke-width:1.5;"/>
    <path clip-path="url(#p47ef667ca4)" d="M 79.226334 218.339904 
L 79.226334 217.372997 
" style="fill:none;stroke:#ff9896;stroke-width:1.5;"/>
    <path clip-path="url(#p47ef667ca4)" d="M 80.941291 220.669864 
L 80.941291 219.958054 
" style="fill:none;stroke:#ff9896;stroke-width:1.5;"/>
    <path clip-path="url(#p47ef667ca4)" d="M 82.656249 221.407757 
L 82.656249 219.602587 
" style="fill:none;stroke:#ff9896;stroke-width:1.5;"/>
    <path clip-path="url(#p47ef667ca4)" d="M 84.371207 222.280777 
L 84.371207 221.413718 
" style="fill:none;stroke:#ff9896;stroke-width:1.5;"/>
    <path clip-path="url(#p47ef667ca4)" d="M 86.086165 221.923671 
L 86.086165 220.947849 
" style="fill:none;stroke:#ff9896;stroke-width:1.5;"/>
    <path clip-path="url(#p47ef667ca4)" d="M 87.801123 223.146753 
L 87.801123 222.462864 
" style="fill:none;stroke:#ff9896;stroke-width:1.5;"/>
    <path clip-path="url(#p47ef667ca4)" d="M 89.51608 223.057921 
L 89.51608 222.400442 
" style="fill:none;stroke:#ff9896;stroke-width:1.5;"/>
    <path clip-path="url(#p47ef667ca4)" d="M 91.231038 224.215245 
L 91.231038 223.404023 
" style="fill:none;stroke:#ff9896;stroke-width:1.5;"/>
    <path clip-path="url(#p47ef667ca4)" d="M 92.945996 224.043992 
L 92.945996 223.338871 
" style="fill:none;stroke:#ff9896;stroke-width:1.5;"/>
    <path clip-path="url(#p47ef667ca4)" d="M 94.660954 225.050707 
L 94.660954 224.393111 
" style="fill:none;stroke:#ff9896;stroke-width:1.5;"/>
    <path clip-path="url(#p47ef667ca4)" d="M 96.375912 225.872038 
L 96.375912 225.099747 
" style="fill:none;stroke:#ff9896;stroke-width:1.5;"/>
    <path clip-path="url(#p47ef667ca4)" d="M 98.090869 226.453684 
L 98.090869 225.877048 
" style="fill:none;stroke:#ff9896;stroke-width:1.5;"/>
    <path clip-path="url(#p47ef667ca4)" d="M 99.805827 226.364261 
L 99.805827 225.598905 
" style="fill:none;stroke:#ff9896;stroke-width:1.5;"/>
    <path clip-path="url(#p47ef667ca4)" d="M 101.520785 227.473314 
L 101.520785 226.811948 
" style="fill:none;stroke:#ff9896;stroke-width:1.5;"/>
    <path clip-path="url(#p47ef667ca4)" d="M 103.235743 225.327801 
L 103.235743 223.958331 
" style="fill:none;stroke:#ff9896;stroke-width:1.5;"/>
    <path clip-path="url(#p47ef667ca4)" d="M 104.950701 228.160657 
L 104.950701 227.655111 
" style="fill:none;stroke:#ff9896;stroke-width:1.5;"/>
    <path clip-path="url(#p47ef667ca4)" d="M 106.665659 227.852715 
L 106.665659 226.886747 
" style="fill:none;stroke:#ff9896;stroke-width:1.5;"/>
    <path clip-path="url(#p47ef667ca4)" d="M 108.380616 228.495169 
L 108.380616 227.80252 
" style="fill:none;stroke:#ff9896;stroke-width:1.5;"/>
    <path clip-path="url(#p47ef667ca4)" d="M 110.095574 227.387202 
L 110.095574 226.359397 
" style="fill:none;stroke:#ff9896;stroke-width:1.5;"/>
    <path clip-path="url(#p47ef667ca4)" d="M 111.810532 228.126635 
L 111.810532 227.29246 
" style="fill:none;stroke:#ff9896;stroke-width:1.5;"/>
    <path clip-path="url(#p47ef667ca4)" d="M 113.52549 227.720359 
L 113.52549 226.838721 
" style="fill:none;stroke:#ff9896;stroke-width:1.5;"/>
    <path clip-path="url(#p47ef667ca4)" d="M 115.240448 228.967994 
L 115.240448 228.497277 
" style="fill:none;stroke:#ff9896;stroke-width:1.5;"/>
    <path clip-path="url(#p47ef667ca4)" d="M 116.955405 228.317035 
L 116.955405 226.899633 
" style="fill:none;stroke:#ff9896;stroke-width:1.5;"/>
    <path clip-path="url(#p47ef667ca4)" d="M 118.670363 228.808576 
L 118.670363 227.69128 
" style="fill:none;stroke:#ff9896;stroke-width:1.5;"/>
    <path clip-path="url(#p47ef667ca4)" d="M 120.385321 229.464105 
L 120.385321 228.801807 
" style="fill:none;stroke:#ff9896;stroke-width:1.5;"/>
    <path clip-path="url(#p47ef667ca4)" d="M 122.100279 228.855422 
L 122.100279 227.906886 
" style="fill:none;stroke:#ff9896;stroke-width:1.5;"/>
    <path clip-path="url(#p47ef667ca4)" d="M 123.815237 228.58776 
L 123.815237 227.67405 
" style="fill:none;stroke:#ff9896;stroke-width:1.5;"/>
    <path clip-path="url(#p47ef667ca4)" d="M 125.530195 230.021181 
L 125.530195 229.46382 
" style="fill:none;stroke:#ff9896;stroke-width:1.5;"/>
    <path clip-path="url(#p47ef667ca4)" d="M 127.245152 230.035938 
L 127.245152 229.045173 
" style="fill:none;stroke:#ff9896;stroke-width:1.5;"/>
    <path clip-path="url(#p47ef667ca4)" d="M 128.96011 230.571693 
L 128.96011 229.764222 
" style="fill:none;stroke:#ff9896;stroke-width:1.5;"/>
    <path clip-path="url(#p47ef667ca4)" d="M 130.675068 230.220761 
L 130.675068 229.452935 
" style="fill:none;stroke:#ff9896;stroke-width:1.5;"/>
    <path clip-path="url(#p47ef667ca4)" d="M 132.390026 230.888154 
L 132.390026 229.914837 
" style="fill:none;stroke:#ff9896;stroke-width:1.5;"/>
    <path clip-path="url(#p47ef667ca4)" d="M 134.104984 230.314256 
L 134.104984 229.727187 
" style="fill:none;stroke:#ff9896;stroke-width:1.5;"/>
    <path clip-path="url(#p47ef667ca4)" d="M 135.819941 230.702804 
L 135.819941 230.079069 
" style="fill:none;stroke:#ff9896;stroke-width:1.5;"/>
    <path clip-path="url(#p47ef667ca4)" d="M 137.534899 229.996097 
L 137.534899 228.856613 
" style="fill:none;stroke:#ff9896;stroke-width:1.5;"/>
    <path clip-path="url(#p47ef667ca4)" d="M 139.249857 230.990242 
L 139.249857 230.149625 
" style="fill:none;stroke:#ff9896;stroke-width:1.5;"/>
    <path clip-path="url(#p47ef667ca4)" d="M 140.964815 229.892796 
L 140.964815 228.804597 
" style="fill:none;stroke:#ff9896;stroke-width:1.5;"/>
    <path clip-path="url(#p47ef667ca4)" d="M 142.679773 228.552022 
L 142.679773 227.193227 
" style="fill:none;stroke:#ff9896;stroke-width:1.5;"/>
    <path clip-path="url(#p47ef667ca4)" d="M 144.394731 230.831011 
L 144.394731 230.07344 
" style="fill:none;stroke:#ff9896;stroke-width:1.5;"/>
    <path clip-path="url(#p47ef667ca4)" d="M 146.109688 230.780765 
L 146.109688 229.873545 
" style="fill:none;stroke:#ff9896;stroke-width:1.5;"/>
    <path clip-path="url(#p47ef667ca4)" d="M 147.824646 231.254495 
L 147.824646 230.872261 
" style="fill:none;stroke:#ff9896;stroke-width:1.5;"/>
    <path clip-path="url(#p47ef667ca4)" d="M 149.539604 230.591594 
L 149.539604 229.543881 
" style="fill:none;stroke:#ff9896;stroke-width:1.5;"/>
    <path clip-path="url(#p47ef667ca4)" d="M 151.254562 231.161968 
L 151.254562 230.859031 
" style="fill:none;stroke:#ff9896;stroke-width:1.5;"/>
    <path clip-path="url(#p47ef667ca4)" d="M 152.96952 230.990566 
L 152.96952 230.348424 
" style="fill:none;stroke:#ff9896;stroke-width:1.5;"/>
    <path clip-path="url(#p47ef667ca4)" d="M 154.684477 231.276296 
L 154.684477 230.583314 
" style="fill:none;stroke:#ff9896;stroke-width:1.5;"/>
    <path clip-path="url(#p47ef667ca4)" d="M 156.399435 230.785274 
L 156.399435 230.220903 
" style="fill:none;stroke:#ff9896;stroke-width:1.5;"/>
    <path clip-path="url(#p47ef667ca4)" d="M 158.114393 230.962424 
L 158.114393 230.164599 
" style="fill:none;stroke:#ff9896;stroke-width:1.5;"/>
    <path clip-path="url(#p47ef667ca4)" d="M 159.829351 231.150392 
L 159.829351 230.085347 
" style="fill:none;stroke:#ff9896;stroke-width:1.5;"/>
    <path clip-path="url(#p47ef667ca4)" d="M 161.544309 230.719499 
L 161.544309 230.180311 
" style="fill:none;stroke:#ff9896;stroke-width:1.5;"/>
    <path clip-path="url(#p47ef667ca4)" d="M 163.259267 231.116854 
L 163.259267 230.269804 
" style="fill:none;stroke:#ff9896;stroke-width:1.5;"/>
    <path clip-path="url(#p47ef667ca4)" d="M 164.974224 229.965984 
L 164.974224 229.122904 
" style="fill:none;stroke:#ff9896;stroke-width:1.5;"/>
    <path clip-path="url(#p47ef667ca4)" d="M 166.689182 231.514149 
L 166.689182 230.883364 
" style="fill:none;stroke:#ff9896;stroke-width:1.5;"/>
    <path clip-path="url(#p47ef667ca4)" d="M 168.40414 231.149382 
L 168.40414 230.180992 
" style="fill:none;stroke:#ff9896;stroke-width:1.5;"/>
    <path clip-path="url(#p47ef667ca4)" d="M 170.119098 231.651688 
L 170.119098 230.799763 
" style="fill:none;stroke:#ff9896;stroke-width:1.5;"/>
    <path clip-path="url(#p47ef667ca4)" d="M 171.834056 231.286044 
L 171.834056 230.363154 
" style="fill:none;stroke:#ff9896;stroke-width:1.5;"/>
    <path clip-path="url(#p47ef667ca4)" d="M 173.549013 231.493972 
L 173.549013 230.729884 
" style="fill:none;stroke:#ff9896;stroke-width:1.5;"/>
    <path clip-path="url(#p47ef667ca4)" d="M 175.263971 230.802593 
L 175.263971 230.153526 
" style="fill:none;stroke:#ff9896;stroke-width:1.5;"/>
    <path clip-path="url(#p47ef667ca4)" d="M 176.978929 231.047915 
L 176.978929 230.15415 
" style="fill:none;stroke:#ff9896;stroke-width:1.5;"/>
    <path clip-path="url(#p47ef667ca4)" d="M 178.693887 230.827968 
L 178.693887 230.049062 
" style="fill:none;stroke:#ff9896;stroke-width:1.5;"/>
    <path clip-path="url(#p47ef667ca4)" d="M 180.408845 230.013486 
L 180.408845 228.838522 
" style="fill:none;stroke:#ff9896;stroke-width:1.5;"/>
    <path clip-path="url(#p47ef667ca4)" d="M 182.123803 230.357579 
L 182.123803 229.196356 
" style="fill:none;stroke:#ff9896;stroke-width:1.5;"/>
    <path clip-path="url(#p47ef667ca4)" d="M 183.83876 230.987995 
L 183.83876 230.272072 
" style="fill:none;stroke:#ff9896;stroke-width:1.5;"/>
    <path clip-path="url(#p47ef667ca4)" d="M 185.553718 230.869304 
L 185.553718 230.255529 
" style="fill:none;stroke:#ff9896;stroke-width:1.5;"/>
    <path clip-path="url(#p47ef667ca4)" d="M 187.268676 230.395892 
L 187.268676 228.042856 
" style="fill:none;stroke:#ff9896;stroke-width:1.5;"/>
    <path clip-path="url(#p47ef667ca4)" d="M 188.983634 231.264596 
L 188.983634 230.440595 
" style="fill:none;stroke:#ff9896;stroke-width:1.5;"/>
    <path clip-path="url(#p47ef667ca4)" d="M 190.698592 230.440779 
L 190.698592 229.633912 
" style="fill:none;stroke:#ff9896;stroke-width:1.5;"/>
    <path clip-path="url(#p47ef667ca4)" d="M 192.413549 229.862209 
L 192.413549 229.074068 
" style="fill:none;stroke:#ff9896;stroke-width:1.5;"/>
    <path clip-path="url(#p47ef667ca4)" d="M 194.128507 230.619011 
L 194.128507 229.83337 
" style="fill:none;stroke:#ff9896;stroke-width:1.5;"/>
    <path clip-path="url(#p47ef667ca4)" d="M 195.843465 231.118422 
L 195.843465 229.387203 
" style="fill:none;stroke:#ff9896;stroke-width:1.5;"/>
    <path clip-path="url(#p47ef667ca4)" d="M 197.558423 230.393224 
L 197.558423 229.574813 
" style="fill:none;stroke:#ff9896;stroke-width:1.5;"/>
    <path clip-path="url(#p47ef667ca4)" d="M 199.273381 230.560885 
L 199.273381 229.405397 
" style="fill:none;stroke:#ff9896;stroke-width:1.5;"/>
    <path clip-path="url(#p47ef667ca4)" d="M 200.988338 230.979429 
L 200.988338 230.268136 
" style="fill:none;stroke:#ff9896;stroke-width:1.5;"/>
    <path clip-path="url(#p47ef667ca4)" d="M 202.703296 230.875247 
L 202.703296 230.294505 
" style="fill:none;stroke:#ff9896;stroke-width:1.5;"/>
    <path clip-path="url(#p47ef667ca4)" d="M 204.418254 230.011888 
L 204.418254 228.935599 
" style="fill:none;stroke:#ff9896;stroke-width:1.5;"/>
    <path clip-path="url(#p47ef667ca4)" d="M 206.133212 230.561187 
L 206.133212 229.417702 
" style="fill:none;stroke:#ff9896;stroke-width:1.5;"/>
    <path clip-path="url(#p47ef667ca4)" d="M 207.84817 230.238574 
L 207.84817 229.21483 
" style="fill:none;stroke:#ff9896;stroke-width:1.5;"/>
    <path clip-path="url(#p47ef667ca4)" d="M 209.563128 230.907174 
L 209.563128 229.862134 
" style="fill:none;stroke:#ff9896;stroke-width:1.5;"/>
    <path clip-path="url(#p47ef667ca4)" d="M 211.278085 230.406064 
L 211.278085 229.469797 
" style="fill:none;stroke:#ff9896;stroke-width:1.5;"/>
    <path clip-path="url(#p47ef667ca4)" d="M 212.993043 229.883115 
L 212.993043 229.245771 
" style="fill:none;stroke:#ff9896;stroke-width:1.5;"/>
    <path clip-path="url(#p47ef667ca4)" d="M 214.708001 230.119796 
L 214.708001 229.105368 
" style="fill:none;stroke:#ff9896;stroke-width:1.5;"/>
    <path clip-path="url(#p47ef667ca4)" d="M 216.422959 230.269518 
L 216.422959 229.185939 
" style="fill:none;stroke:#ff9896;stroke-width:1.5;"/>
    <path clip-path="url(#p47ef667ca4)" d="M 218.137917 229.850994 
L 218.137917 229.037243 
" style="fill:none;stroke:#ff9896;stroke-width:1.5;"/>
    <path clip-path="url(#p47ef667ca4)" d="M 219.852874 229.713966 
L 219.852874 229.00626 
" style="fill:none;stroke:#ff9896;stroke-width:1.5;"/>
    <path clip-path="url(#p47ef667ca4)" d="M 221.567832 229.683798 
L 221.567832 228.476505 
" style="fill:none;stroke:#ff9896;stroke-width:1.5;"/>
    <path clip-path="url(#p47ef667ca4)" d="M 223.28279 230.060233 
L 223.28279 228.812181 
" style="fill:none;stroke:#ff9896;stroke-width:1.5;"/>
    <path clip-path="url(#p47ef667ca4)" d="M 224.997748 230.21943 
L 224.997748 229.34644 
" style="fill:none;stroke:#ff9896;stroke-width:1.5;"/>
   </g>
   <g id="LineCollection_4">
    <path clip-path="url(#p47ef667ca4)" d="M 60.361798 175.214324 
L 60.361798 175.214324 
" style="fill:none;stroke:#aec7e8;stroke-width:1.5;"/>
    <path clip-path="url(#p47ef667ca4)" d="M 62.076755 204.714567 
L 62.076755 204.714567 
" style="fill:none;stroke:#aec7e8;stroke-width:1.5;"/>
    <path clip-path="url(#p47ef667ca4)" d="M 63.791713 213.095702 
L 63.791713 213.095702 
" style="fill:none;stroke:#aec7e8;stroke-width:1.5;"/>
    <path clip-path="url(#p47ef667ca4)" d="M 65.506671 218.098885 
L 65.506671 218.098885 
" style="fill:none;stroke:#aec7e8;stroke-width:1.5;"/>
    <path clip-path="url(#p47ef667ca4)" d="M 67.221629 220.52485 
L 67.221629 220.52485 
" style="fill:none;stroke:#aec7e8;stroke-width:1.5;"/>
    <path clip-path="url(#p47ef667ca4)" d="M 68.936587 221.777717 
L 68.936587 221.777717 
" style="fill:none;stroke:#aec7e8;stroke-width:1.5;"/>
    <path clip-path="url(#p47ef667ca4)" d="M 70.651544 222.875982 
L 70.651544 222.875982 
" style="fill:none;stroke:#aec7e8;stroke-width:1.5;"/>
    <path clip-path="url(#p47ef667ca4)" d="M 72.366502 225.590581 
L 72.366502 225.590581 
" style="fill:none;stroke:#aec7e8;stroke-width:1.5;"/>
    <path clip-path="url(#p47ef667ca4)" d="M 74.08146 227.825592 
L 74.08146 227.825592 
" style="fill:none;stroke:#aec7e8;stroke-width:1.5;"/>
    <path clip-path="url(#p47ef667ca4)" d="M 75.796418 227.878075 
L 75.796418 227.878075 
" style="fill:none;stroke:#aec7e8;stroke-width:1.5;"/>
    <path clip-path="url(#p47ef667ca4)" d="M 77.511376 228.287491 
L 77.511376 228.287491 
" style="fill:none;stroke:#aec7e8;stroke-width:1.5;"/>
    <path clip-path="url(#p47ef667ca4)" d="M 79.226334 228.944713 
L 79.226334 228.944713 
" style="fill:none;stroke:#aec7e8;stroke-width:1.5;"/>
    <path clip-path="url(#p47ef667ca4)" d="M 80.941291 229.383455 
L 80.941291 229.383455 
" style="fill:none;stroke:#aec7e8;stroke-width:1.5;"/>
    <path clip-path="url(#p47ef667ca4)" d="M 82.656249 229.538653 
L 82.656249 229.538653 
" style="fill:none;stroke:#aec7e8;stroke-width:1.5;"/>
    <path clip-path="url(#p47ef667ca4)" d="M 84.371207 230.508485 
L 84.371207 230.508485 
" style="fill:none;stroke:#aec7e8;stroke-width:1.5;"/>
    <path clip-path="url(#p47ef667ca4)" d="M 86.086165 230.046719 
L 86.086165 230.046719 
" style="fill:none;stroke:#aec7e8;stroke-width:1.5;"/>
    <path clip-path="url(#p47ef667ca4)" d="M 87.801123 231.183964 
L 87.801123 231.183964 
" style="fill:none;stroke:#aec7e8;stroke-width:1.5;"/>
    <path clip-path="url(#p47ef667ca4)" d="M 89.51608 231.340443 
L 89.51608 231.340443 
" style="fill:none;stroke:#aec7e8;stroke-width:1.5;"/>
    <path clip-path="url(#p47ef667ca4)" d="M 91.231038 230.905344 
L 91.231038 230.905344 
" style="fill:none;stroke:#aec7e8;stroke-width:1.5;"/>
    <path clip-path="url(#p47ef667ca4)" d="M 92.945996 230.731324 
L 92.945996 230.731324 
" style="fill:none;stroke:#aec7e8;stroke-width:1.5;"/>
    <path clip-path="url(#p47ef667ca4)" d="M 94.660954 231.23794 
L 94.660954 231.23794 
" style="fill:none;stroke:#aec7e8;stroke-width:1.5;"/>
    <path clip-path="url(#p47ef667ca4)" d="M 96.375912 231.121671 
L 96.375912 231.121671 
" style="fill:none;stroke:#aec7e8;stroke-width:1.5;"/>
    <path clip-path="url(#p47ef667ca4)" d="M 98.090869 231.597391 
L 98.090869 231.597391 
" style="fill:none;stroke:#aec7e8;stroke-width:1.5;"/>
    <path clip-path="url(#p47ef667ca4)" d="M 99.805827 231.415229 
L 99.805827 231.415229 
" style="fill:none;stroke:#aec7e8;stroke-width:1.5;"/>
    <path clip-path="url(#p47ef667ca4)" d="M 101.520785 231.922179 
L 101.520785 231.922179 
" style="fill:none;stroke:#aec7e8;stroke-width:1.5;"/>
    <path clip-path="url(#p47ef667ca4)" d="M 103.235743 231.630165 
L 103.235743 231.630165 
" style="fill:none;stroke:#aec7e8;stroke-width:1.5;"/>
    <path clip-path="url(#p47ef667ca4)" d="M 104.950701 231.954545 
L 104.950701 231.954545 
" style="fill:none;stroke:#aec7e8;stroke-width:1.5;"/>
    <path clip-path="url(#p47ef667ca4)" d="M 106.665659 231.941765 
L 106.665659 231.941765 
" style="fill:none;stroke:#aec7e8;stroke-width:1.5;"/>
    <path clip-path="url(#p47ef667ca4)" d="M 108.380616 231.129382 
L 108.380616 231.129382 
" style="fill:none;stroke:#aec7e8;stroke-width:1.5;"/>
    <path clip-path="url(#p47ef667ca4)" d="M 110.095574 231.672356 
L 110.095574 231.672356 
" style="fill:none;stroke:#aec7e8;stroke-width:1.5;"/>
    <path clip-path="url(#p47ef667ca4)" d="M 111.810532 230.831004 
L 111.810532 230.831004 
" style="fill:none;stroke:#aec7e8;stroke-width:1.5;"/>
    <path clip-path="url(#p47ef667ca4)" d="M 113.52549 231.730837 
L 113.52549 231.730837 
" style="fill:none;stroke:#aec7e8;stroke-width:1.5;"/>
    <path clip-path="url(#p47ef667ca4)" d="M 115.240448 230.368353 
L 115.240448 230.368353 
" style="fill:none;stroke:#aec7e8;stroke-width:1.5;"/>
    <path clip-path="url(#p47ef667ca4)" d="M 116.955405 231.024161 
L 116.955405 231.024161 
" style="fill:none;stroke:#aec7e8;stroke-width:1.5;"/>
    <path clip-path="url(#p47ef667ca4)" d="M 118.670363 231.823152 
L 118.670363 231.823152 
" style="fill:none;stroke:#aec7e8;stroke-width:1.5;"/>
    <path clip-path="url(#p47ef667ca4)" d="M 120.385321 229.925472 
L 120.385321 229.925472 
" style="fill:none;stroke:#aec7e8;stroke-width:1.5;"/>
    <path clip-path="url(#p47ef667ca4)" d="M 122.100279 230.602882 
L 122.100279 230.602882 
" style="fill:none;stroke:#aec7e8;stroke-width:1.5;"/>
    <path clip-path="url(#p47ef667ca4)" d="M 123.815237 229.3346 
L 123.815237 229.3346 
" style="fill:none;stroke:#aec7e8;stroke-width:1.5;"/>
    <path clip-path="url(#p47ef667ca4)" d="M 125.530195 230.658296 
L 125.530195 230.658296 
" style="fill:none;stroke:#aec7e8;stroke-width:1.5;"/>
    <path clip-path="url(#p47ef667ca4)" d="M 127.245152 230.009857 
L 127.245152 230.009857 
" style="fill:none;stroke:#aec7e8;stroke-width:1.5;"/>
    <path clip-path="url(#p47ef667ca4)" d="M 128.96011 229.774416 
L 128.96011 229.774416 
" style="fill:none;stroke:#aec7e8;stroke-width:1.5;"/>
    <path clip-path="url(#p47ef667ca4)" d="M 130.675068 229.636133 
L 130.675068 229.636133 
" style="fill:none;stroke:#aec7e8;stroke-width:1.5;"/>
    <path clip-path="url(#p47ef667ca4)" d="M 132.390026 229.58717 
L 132.390026 229.58717 
" style="fill:none;stroke:#aec7e8;stroke-width:1.5;"/>
    <path clip-path="url(#p47ef667ca4)" d="M 134.104984 229.106675 
L 134.104984 229.106675 
" style="fill:none;stroke:#aec7e8;stroke-width:1.5;"/>
    <path clip-path="url(#p47ef667ca4)" d="M 135.819941 228.453514 
L 135.819941 228.453514 
" style="fill:none;stroke:#aec7e8;stroke-width:1.5;"/>
    <path clip-path="url(#p47ef667ca4)" d="M 137.534899 228.350019 
L 137.534899 228.350019 
" style="fill:none;stroke:#aec7e8;stroke-width:1.5;"/>
    <path clip-path="url(#p47ef667ca4)" d="M 139.249857 228.218021 
L 139.249857 228.218021 
" style="fill:none;stroke:#aec7e8;stroke-width:1.5;"/>
    <path clip-path="url(#p47ef667ca4)" d="M 140.964815 228.221906 
L 140.964815 228.221906 
" style="fill:none;stroke:#aec7e8;stroke-width:1.5;"/>
    <path clip-path="url(#p47ef667ca4)" d="M 142.679773 226.807184 
L 142.679773 226.807184 
" style="fill:none;stroke:#aec7e8;stroke-width:1.5;"/>
    <path clip-path="url(#p47ef667ca4)" d="M 144.394731 228.691243 
L 144.394731 228.691243 
" style="fill:none;stroke:#aec7e8;stroke-width:1.5;"/>
    <path clip-path="url(#p47ef667ca4)" d="M 146.109688 227.509174 
L 146.109688 227.509174 
" style="fill:none;stroke:#aec7e8;stroke-width:1.5;"/>
    <path clip-path="url(#p47ef667ca4)" d="M 147.824646 227.746309 
L 147.824646 227.746309 
" style="fill:none;stroke:#aec7e8;stroke-width:1.5;"/>
    <path clip-path="url(#p47ef667ca4)" d="M 149.539604 226.266617 
L 149.539604 226.266617 
" style="fill:none;stroke:#aec7e8;stroke-width:1.5;"/>
    <path clip-path="url(#p47ef667ca4)" d="M 151.254562 226.278331 
L 151.254562 226.278331 
" style="fill:none;stroke:#aec7e8;stroke-width:1.5;"/>
    <path clip-path="url(#p47ef667ca4)" d="M 152.96952 226.710352 
L 152.96952 226.710352 
" style="fill:none;stroke:#aec7e8;stroke-width:1.5;"/>
   </g>
   <g id="line2d_20">
    <path clip-path="url(#p47ef667ca4)" d="M 60.361798 43.278844 
L 62.076755 94.207921 
L 63.791713 121.57669 
L 65.506671 130.337957 
L 67.221629 137.910414 
L 68.936587 142.561869 
L 70.651544 152.064856 
L 72.366502 155.393495 
L 74.08146 160.850124 
L 75.796418 162.832456 
L 77.511376 166.652698 
L 79.226334 169.131614 
L 80.941291 172.113174 
L 82.656249 173.635745 
L 84.371207 175.967575 
L 86.086165 175.761929 
L 87.801123 177.918129 
L 89.51608 181.244282 
L 91.231038 179.990509 
L 92.945996 180.981345 
L 94.660954 183.264687 
L 96.375912 183.889683 
L 98.090869 185.769367 
L 99.805827 184.493799 
L 101.520785 186.178782 
L 103.235743 186.366977 
L 104.950701 188.676078 
L 106.665659 190.76113 
L 108.380616 191.229279 
L 110.095574 190.889998 
L 111.810532 192.812823 
L 113.52549 192.343207 
L 115.240448 194.506315 
L 116.955405 194.960449 
L 118.670363 195.367474 
L 120.385321 196.344261 
L 122.100279 198.579118 
L 123.815237 197.778998 
L 125.530195 197.973403 
L 127.245152 198.175487 
L 128.96011 198.822529 
L 130.675068 199.578779 
L 132.390026 201.004631 
L 134.104984 200.941474 
L 135.819941 201.56382 
L 137.534899 201.751242 
L 139.249857 202.101999 
L 140.964815 201.602816 
L 142.679773 203.497103 
L 144.394731 203.58757 
L 146.109688 204.794355 
L 147.824646 204.11257 
L 149.539604 205.109206 
L 151.254562 205.590454 
L 152.96952 205.52995 
L 154.684477 206.410323 
L 156.399435 205.4837 
L 158.114393 205.815123 
L 159.829351 206.790182 
L 161.544309 207.084581 
L 163.259267 206.778994 
L 164.974224 206.719044 
L 166.689182 206.950913 
L 168.40414 206.637083 
L 170.119098 206.975807 
L 171.834056 207.781286 
L 173.549013 207.394534 
L 175.263971 209.134342 
L 176.978929 207.871052 
L 178.693887 209.50684 
L 180.408845 208.544142 
L 182.123803 210.542311 
L 183.83876 209.238666 
L 185.553718 209.548335 
L 187.268676 210.91497 
L 188.983634 210.163801 
L 190.698592 210.974222 
L 192.413549 210.480569 
L 194.128507 211.229341 
" style="fill:none;stroke:#7f7f7f;stroke-linecap:square;stroke-width:1.5;"/>
   </g>
   <g id="line2d_21">
    <path clip-path="url(#p47ef667ca4)" d="M 60.361798 137.59736 
L 62.076755 172.040349 
L 63.791713 185.551397 
L 65.506671 195.414215 
L 67.221629 201.732801 
L 68.936587 206.432029 
L 70.651544 206.633284 
L 72.366502 212.060709 
L 74.08146 213.96939 
L 75.796418 215.870064 
L 77.511376 217.536121 
L 79.226334 217.330261 
L 80.941291 219.764811 
L 82.656249 219.260665 
L 84.371207 221.169667 
L 86.086165 218.533337 
L 87.801123 222.614494 
L 89.51608 222.105278 
L 91.231038 223.89192 
L 92.945996 224.913419 
L 94.660954 223.66882 
L 96.375912 226.15244 
L 98.090869 224.425417 
L 99.805827 224.696595 
L 101.520785 227.028633 
L 103.235743 222.948879 
L 104.950701 225.034925 
L 106.665659 227.644358 
L 108.380616 227.066727 
L 110.095574 228.277526 
L 111.810532 227.438348 
L 113.52549 227.21799 
L 115.240448 227.387779 
L 116.955405 228.149948 
L 118.670363 227.306607 
L 120.385321 228.455109 
L 122.100279 229.580382 
L 123.815237 228.451698 
L 125.530195 227.797169 
L 127.245152 228.870855 
L 128.96011 228.781919 
L 130.675068 229.202512 
L 132.390026 229.903028 
L 134.104984 229.679324 
L 135.819941 229.83578 
L 137.534899 230.402064 
L 139.249857 229.7197 
L 140.964815 228.950946 
L 142.679773 231.339857 
L 144.394731 230.188941 
L 146.109688 230.448768 
L 147.824646 229.173037 
L 149.539604 230.363921 
L 151.254562 230.284797 
L 152.96952 230.328944 
L 154.684477 230.067462 
L 156.399435 230.437078 
L 158.114393 230.042044 
L 159.829351 230.727492 
L 161.544309 229.650856 
L 163.259267 229.651165 
L 164.974224 230.226732 
L 166.689182 230.723652 
L 168.40414 229.398567 
L 170.119098 230.082519 
L 171.834056 230.80035 
L 173.549013 230.174271 
L 175.263971 230.640051 
L 176.978929 229.021786 
L 178.693887 230.566166 
L 180.408845 229.909776 
L 182.123803 229.316148 
L 183.83876 229.245164 
L 185.553718 230.098282 
L 187.268676 229.846346 
L 188.983634 230.204646 
L 190.698592 230.602151 
L 192.413549 229.465338 
L 194.128507 229.857326 
L 195.843465 229.969889 
L 197.558423 229.623013 
L 199.273381 228.642354 
L 200.988338 229.150251 
" style="fill:none;stroke:#2ca02c;stroke-linecap:square;stroke-width:1.5;"/>
   </g>
   <g id="line2d_22">
    <path clip-path="url(#p47ef667ca4)" d="M 60.361798 132.649756 
L 62.076755 177.976259 
L 63.791713 186.229459 
L 65.506671 195.869316 
L 67.221629 199.660177 
L 68.936587 204.291584 
L 70.651544 209.348476 
L 72.366502 211.194706 
L 74.08146 214.334602 
L 75.796418 216.399499 
L 77.511376 217.401021 
L 79.226334 217.856451 
L 80.941291 220.313959 
L 82.656249 220.505172 
L 84.371207 221.847247 
L 86.086165 221.43576 
L 87.801123 222.804809 
L 89.51608 222.729182 
L 91.231038 223.809634 
L 92.945996 223.691431 
L 94.660954 224.721909 
L 96.375912 225.485893 
L 98.090869 226.165366 
L 99.805827 225.981583 
L 101.520785 227.142631 
L 103.235743 224.643066 
L 104.950701 227.907884 
L 106.665659 227.369731 
L 108.380616 228.148844 
L 110.095574 226.8733 
L 111.810532 227.709547 
L 113.52549 227.27954 
L 115.240448 228.732635 
L 116.955405 227.608334 
L 118.670363 228.249928 
L 120.385321 229.132956 
L 122.100279 228.381154 
L 123.815237 228.130905 
L 125.530195 229.742501 
L 127.245152 229.540556 
L 128.96011 230.167957 
L 130.675068 229.836848 
L 132.390026 230.401496 
L 134.104984 230.020721 
L 135.819941 230.390937 
L 137.534899 229.426355 
L 139.249857 230.569933 
L 140.964815 229.348696 
L 142.679773 227.872625 
L 144.394731 230.452225 
L 146.109688 230.327155 
L 147.824646 231.063378 
L 149.539604 230.067737 
L 151.254562 231.010499 
L 152.96952 230.669495 
L 154.684477 230.929805 
L 156.399435 230.503089 
L 158.114393 230.563511 
L 159.829351 230.61787 
L 161.544309 230.449905 
L 163.259267 230.693329 
L 164.974224 229.544444 
L 166.689182 231.198757 
L 168.40414 230.665187 
L 170.119098 231.225725 
L 171.834056 230.824599 
L 173.549013 231.111928 
L 175.263971 230.47806 
L 176.978929 230.601032 
L 178.693887 230.438515 
L 180.408845 229.426004 
L 182.123803 229.776967 
L 183.83876 230.630034 
L 185.553718 230.562417 
L 187.268676 229.219374 
L 188.983634 230.852596 
L 190.698592 230.037345 
L 192.413549 229.468138 
L 194.128507 230.22619 
L 195.843465 230.252813 
L 197.558423 229.984019 
L 199.273381 229.983141 
L 200.988338 230.623782 
L 202.703296 230.584876 
L 204.418254 229.473743 
L 206.133212 229.989444 
L 207.84817 229.726702 
L 209.563128 230.384654 
L 211.278085 229.937931 
L 212.993043 229.564443 
L 214.708001 229.612582 
L 216.422959 229.727729 
L 218.137917 229.444119 
L 219.852874 229.360113 
L 221.567832 229.080151 
L 223.28279 229.436207 
L 224.997748 229.782935 
" style="fill:none;stroke:#d62728;stroke-linecap:square;stroke-width:1.5;"/>
   </g>
   <g id="line2d_23">
    <path clip-path="url(#p47ef667ca4)" d="M 60.361798 175.214324 
L 62.076755 204.714567 
L 63.791713 213.095702 
L 65.506671 218.098885 
L 67.221629 220.52485 
L 68.936587 221.777717 
L 70.651544 222.875982 
L 72.366502 225.590581 
L 74.08146 227.825592 
L 75.796418 227.878075 
L 77.511376 228.287491 
L 79.226334 228.944713 
L 80.941291 229.383455 
L 82.656249 229.538653 
L 84.371207 230.508485 
L 86.086165 230.046719 
L 87.801123 231.183964 
L 89.51608 231.340443 
L 91.231038 230.905344 
L 92.945996 230.731324 
L 94.660954 231.23794 
L 96.375912 231.121671 
L 98.090869 231.597391 
L 99.805827 231.415229 
L 101.520785 231.922179 
L 103.235743 231.630165 
L 104.950701 231.954545 
L 106.665659 231.941765 
L 108.380616 231.129382 
L 110.095574 231.672356 
L 111.810532 230.831004 
L 113.52549 231.730837 
L 115.240448 230.368353 
L 116.955405 231.024161 
L 118.670363 231.823152 
L 120.385321 229.925472 
L 122.100279 230.602882 
L 123.815237 229.3346 
L 125.530195 230.658296 
L 127.245152 230.009857 
L 128.96011 229.774416 
L 130.675068 229.636133 
L 132.390026 229.58717 
L 134.104984 229.106675 
L 135.819941 228.453514 
L 137.534899 228.350019 
L 139.249857 228.218021 
L 140.964815 228.221906 
L 142.679773 226.807184 
L 144.394731 228.691243 
L 146.109688 227.509174 
L 147.824646 227.746309 
L 149.539604 226.266617 
L 151.254562 226.278331 
L 152.96952 226.710352 
" style="fill:none;stroke:#1f77b4;stroke-linecap:square;stroke-width:1.5;"/>
   </g>
   <g id="patch_3">
    <path d="M 52.13 241.72 
L 52.13 26.88 
" style="fill:none;stroke:#000000;stroke-linecap:square;stroke-linejoin:miter;stroke-width:0.8;"/>
   </g>
   <g id="patch_4">
    <path d="M 233.229545 241.72 
L 233.229545 26.88 
" style="fill:none;stroke:#000000;stroke-linecap:square;stroke-linejoin:miter;stroke-width:0.8;"/>
   </g>
   <g id="patch_5">
    <path d="M 52.13 241.72 
L 233.229545 241.72 
" style="fill:none;stroke:#000000;stroke-linecap:square;stroke-linejoin:miter;stroke-width:0.8;"/>
   </g>
   <g id="patch_6">
    <path d="M 52.13 26.88 
L 233.229545 26.88 
" style="fill:none;stroke:#000000;stroke-linecap:square;stroke-linejoin:miter;stroke-width:0.8;"/>
   </g>
   <g id="text_15">
    <!-- resnet32 fashion -->
    <g transform="translate(92.28446 20.88)scale(0.12 -0.12)">
     <defs>
      <path d="M 40.578125 39.3125 
Q 47.65625 37.796875 51.625 33 
Q 55.609375 28.21875 55.609375 21.1875 
Q 55.609375 10.40625 48.1875 4.484375 
Q 40.765625 -1.421875 27.09375 -1.421875 
Q 22.515625 -1.421875 17.65625 -0.515625 
Q 12.796875 0.390625 7.625 2.203125 
L 7.625 11.71875 
Q 11.71875 9.328125 16.59375 8.109375 
Q 21.484375 6.890625 26.8125 6.890625 
Q 36.078125 6.890625 40.9375 10.546875 
Q 45.796875 14.203125 45.796875 21.1875 
Q 45.796875 27.640625 41.28125 31.265625 
Q 36.765625 34.90625 28.71875 34.90625 
L 20.21875 34.90625 
L 20.21875 43.015625 
L 29.109375 43.015625 
Q 36.375 43.015625 40.234375 45.921875 
Q 44.09375 48.828125 44.09375 54.296875 
Q 44.09375 59.90625 40.109375 62.90625 
Q 36.140625 65.921875 28.71875 65.921875 
Q 24.65625 65.921875 20.015625 65.03125 
Q 15.375 64.15625 9.8125 62.3125 
L 9.8125 71.09375 
Q 15.4375 72.65625 20.34375 73.4375 
Q 25.25 74.21875 29.59375 74.21875 
Q 40.828125 74.21875 47.359375 69.109375 
Q 53.90625 64.015625 53.90625 55.328125 
Q 53.90625 49.265625 50.4375 45.09375 
Q 46.96875 40.921875 40.578125 39.3125 
z
" id="DejaVuSans-51"/>
      <path d="M 37.109375 75.984375 
L 37.109375 68.5 
L 28.515625 68.5 
Q 23.6875 68.5 21.796875 66.546875 
Q 19.921875 64.59375 19.921875 59.515625 
L 19.921875 54.6875 
L 34.71875 54.6875 
L 34.71875 47.703125 
L 19.921875 47.703125 
L 19.921875 0 
L 10.890625 0 
L 10.890625 47.703125 
L 2.296875 47.703125 
L 2.296875 54.6875 
L 10.890625 54.6875 
L 10.890625 58.5 
Q 10.890625 67.625 15.140625 71.796875 
Q 19.390625 75.984375 28.609375 75.984375 
z
" id="DejaVuSans-102"/>
      <path d="M 34.28125 27.484375 
Q 23.390625 27.484375 19.1875 25 
Q 14.984375 22.515625 14.984375 16.5 
Q 14.984375 11.71875 18.140625 8.90625 
Q 21.296875 6.109375 26.703125 6.109375 
Q 34.1875 6.109375 38.703125 11.40625 
Q 43.21875 16.703125 43.21875 25.484375 
L 43.21875 27.484375 
z
M 52.203125 31.203125 
L 52.203125 0 
L 43.21875 0 
L 43.21875 8.296875 
Q 40.140625 3.328125 35.546875 0.953125 
Q 30.953125 -1.421875 24.3125 -1.421875 
Q 15.921875 -1.421875 10.953125 3.296875 
Q 6 8.015625 6 15.921875 
Q 6 25.140625 12.171875 29.828125 
Q 18.359375 34.515625 30.609375 34.515625 
L 43.21875 34.515625 
L 43.21875 35.40625 
Q 43.21875 41.609375 39.140625 45 
Q 35.0625 48.390625 27.6875 48.390625 
Q 23 48.390625 18.546875 47.265625 
Q 14.109375 46.140625 10.015625 43.890625 
L 10.015625 52.203125 
Q 14.9375 54.109375 19.578125 55.046875 
Q 24.21875 56 28.609375 56 
Q 40.484375 56 46.34375 49.84375 
Q 52.203125 43.703125 52.203125 31.203125 
z
" id="DejaVuSans-97"/>
      <path d="M 54.890625 33.015625 
L 54.890625 0 
L 45.90625 0 
L 45.90625 32.71875 
Q 45.90625 40.484375 42.875 44.328125 
Q 39.84375 48.1875 33.796875 48.1875 
Q 26.515625 48.1875 22.3125 43.546875 
Q 18.109375 38.921875 18.109375 30.90625 
L 18.109375 0 
L 9.078125 0 
L 9.078125 75.984375 
L 18.109375 75.984375 
L 18.109375 46.1875 
Q 21.34375 51.125 25.703125 53.5625 
Q 30.078125 56 35.796875 56 
Q 45.21875 56 50.046875 50.171875 
Q 54.890625 44.34375 54.890625 33.015625 
z
" id="DejaVuSans-104"/>
     </defs>
     <use xlink:href="#DejaVuSans-114"/>
     <use x="38.863281" xlink:href="#DejaVuSans-101"/>
     <use x="100.386719" xlink:href="#DejaVuSans-115"/>
     <use x="152.486328" xlink:href="#DejaVuSans-110"/>
     <use x="215.865234" xlink:href="#DejaVuSans-101"/>
     <use x="277.388672" xlink:href="#DejaVuSans-116"/>
     <use x="316.597656" xlink:href="#DejaVuSans-51"/>
     <use x="380.220703" xlink:href="#DejaVuSans-50"/>
     <use x="443.84375" xlink:href="#DejaVuSans-32"/>
     <use x="475.630859" xlink:href="#DejaVuSans-102"/>
     <use x="510.835938" xlink:href="#DejaVuSans-97"/>
     <use x="572.115234" xlink:href="#DejaVuSans-115"/>
     <use x="624.214844" xlink:href="#DejaVuSans-104"/>
     <use x="687.59375" xlink:href="#DejaVuSans-105"/>
     <use x="715.376953" xlink:href="#DejaVuSans-111"/>
     <use x="776.558594" xlink:href="#DejaVuSans-110"/>
    </g>
   </g>
   <g id="legend_1">
    <g id="patch_7">
     <path d="M 79.362358 93.5925 
L 226.229545 93.5925 
Q 228.229545 93.5925 228.229545 91.5925 
L 228.229545 33.88 
Q 228.229545 31.88 226.229545 31.88 
L 79.362358 31.88 
Q 77.362358 31.88 77.362358 33.88 
L 77.362358 91.5925 
Q 77.362358 93.5925 79.362358 93.5925 
z
" style="fill:#ffffff;opacity:0.8;stroke:#cccccc;stroke-linejoin:miter;"/>
    </g>
    <g id="LineCollection_5">
     <path d="M 91.362358 44.978437 
L 91.362358 34.978437 
" style="fill:none;stroke:#c7c7c7;stroke-width:1.5;"/>
    </g>
    <g id="line2d_24">
     <path d="M 81.362358 39.978437 
L 101.362358 39.978437 
" style="fill:none;stroke:#7f7f7f;stroke-linecap:square;stroke-width:1.5;"/>
    </g>
    <g id="line2d_25"/>
    <g id="text_16">
     <!-- DSGD -->
     <g transform="translate(109.362358 43.478437)scale(0.1 -0.1)">
      <defs>
       <path d="M 19.671875 64.796875 
L 19.671875 8.109375 
L 31.59375 8.109375 
Q 46.6875 8.109375 53.6875 14.9375 
Q 60.6875 21.78125 60.6875 36.53125 
Q 60.6875 51.171875 53.6875 57.984375 
Q 46.6875 64.796875 31.59375 64.796875 
z
M 9.8125 72.90625 
L 30.078125 72.90625 
Q 51.265625 72.90625 61.171875 64.09375 
Q 71.09375 55.28125 71.09375 36.53125 
Q 71.09375 17.671875 61.125 8.828125 
Q 51.171875 0 30.078125 0 
L 9.8125 0 
z
" id="DejaVuSans-68"/>
       <path d="M 53.515625 70.515625 
L 53.515625 60.890625 
Q 47.90625 63.578125 42.921875 64.890625 
Q 37.9375 66.21875 33.296875 66.21875 
Q 25.25 66.21875 20.875 63.09375 
Q 16.5 59.96875 16.5 54.203125 
Q 16.5 49.359375 19.40625 46.890625 
Q 22.3125 44.4375 30.421875 42.921875 
L 36.375 41.703125 
Q 47.40625 39.59375 52.65625 34.296875 
Q 57.90625 29 57.90625 20.125 
Q 57.90625 9.515625 50.796875 4.046875 
Q 43.703125 -1.421875 29.984375 -1.421875 
Q 24.8125 -1.421875 18.96875 -0.25 
Q 13.140625 0.921875 6.890625 3.21875 
L 6.890625 13.375 
Q 12.890625 10.015625 18.65625 8.296875 
Q 24.421875 6.59375 29.984375 6.59375 
Q 38.421875 6.59375 43.015625 9.90625 
Q 47.609375 13.234375 47.609375 19.390625 
Q 47.609375 24.75 44.3125 27.78125 
Q 41.015625 30.8125 33.5 32.328125 
L 27.484375 33.5 
Q 16.453125 35.6875 11.515625 40.375 
Q 6.59375 45.0625 6.59375 53.421875 
Q 6.59375 63.09375 13.40625 68.65625 
Q 20.21875 74.21875 32.171875 74.21875 
Q 37.3125 74.21875 42.625 73.28125 
Q 47.953125 72.359375 53.515625 70.515625 
z
" id="DejaVuSans-83"/>
       <path d="M 59.515625 10.40625 
L 59.515625 29.984375 
L 43.40625 29.984375 
L 43.40625 38.09375 
L 69.28125 38.09375 
L 69.28125 6.78125 
Q 63.578125 2.734375 56.6875 0.65625 
Q 49.8125 -1.421875 42 -1.421875 
Q 24.90625 -1.421875 15.25 8.5625 
Q 5.609375 18.5625 5.609375 36.375 
Q 5.609375 54.25 15.25 64.234375 
Q 24.90625 74.21875 42 74.21875 
Q 49.125 74.21875 55.546875 72.453125 
Q 61.96875 70.703125 67.390625 67.28125 
L 67.390625 56.78125 
Q 61.921875 61.421875 55.765625 63.765625 
Q 49.609375 66.109375 42.828125 66.109375 
Q 29.4375 66.109375 22.71875 58.640625 
Q 16.015625 51.171875 16.015625 36.375 
Q 16.015625 21.625 22.71875 14.15625 
Q 29.4375 6.6875 42.828125 6.6875 
Q 48.046875 6.6875 52.140625 7.59375 
Q 56.25 8.5 59.515625 10.40625 
z
" id="DejaVuSans-71"/>
      </defs>
      <use xlink:href="#DejaVuSans-68"/>
      <use x="77.001953" xlink:href="#DejaVuSans-83"/>
      <use x="140.478516" xlink:href="#DejaVuSans-71"/>
      <use x="217.96875" xlink:href="#DejaVuSans-68"/>
     </g>
    </g>
    <g id="LineCollection_6">
     <path d="M 91.362358 59.656562 
L 91.362358 49.656562 
" style="fill:none;stroke:#98df8a;stroke-width:1.5;"/>
    </g>
    <g id="line2d_26">
     <path d="M 81.362358 54.656562 
L 101.362358 54.656562 
" style="fill:none;stroke:#2ca02c;stroke-linecap:square;stroke-width:1.5;"/>
    </g>
    <g id="line2d_27"/>
    <g id="text_17">
     <!-- ECL-ISVR (ADMM-ISVR) -->
     <g transform="translate(109.362358 58.156562)scale(0.1 -0.1)">
      <defs>
       <path d="M 9.8125 72.90625 
L 55.90625 72.90625 
L 55.90625 64.59375 
L 19.671875 64.59375 
L 19.671875 43.015625 
L 54.390625 43.015625 
L 54.390625 34.71875 
L 19.671875 34.71875 
L 19.671875 8.296875 
L 56.78125 8.296875 
L 56.78125 0 
L 9.8125 0 
z
" id="DejaVuSans-69"/>
       <path d="M 9.8125 72.90625 
L 19.671875 72.90625 
L 19.671875 8.296875 
L 55.171875 8.296875 
L 55.171875 0 
L 9.8125 0 
z
" id="DejaVuSans-76"/>
       <path d="M 9.8125 72.90625 
L 19.671875 72.90625 
L 19.671875 0 
L 9.8125 0 
z
" id="DejaVuSans-73"/>
       <path d="M 28.609375 0 
L 0.78125 72.90625 
L 11.078125 72.90625 
L 34.1875 11.53125 
L 57.328125 72.90625 
L 67.578125 72.90625 
L 39.796875 0 
z
" id="DejaVuSans-86"/>
       <path d="M 44.390625 34.1875 
Q 47.5625 33.109375 50.5625 29.59375 
Q 53.5625 26.078125 56.59375 19.921875 
L 66.609375 0 
L 56 0 
L 46.6875 18.703125 
Q 43.0625 26.03125 39.671875 28.421875 
Q 36.28125 30.8125 30.421875 30.8125 
L 19.671875 30.8125 
L 19.671875 0 
L 9.8125 0 
L 9.8125 72.90625 
L 32.078125 72.90625 
Q 44.578125 72.90625 50.734375 67.671875 
Q 56.890625 62.453125 56.890625 51.90625 
Q 56.890625 45.015625 53.6875 40.46875 
Q 50.484375 35.9375 44.390625 34.1875 
z
M 19.671875 64.796875 
L 19.671875 38.921875 
L 32.078125 38.921875 
Q 39.203125 38.921875 42.84375 42.21875 
Q 46.484375 45.515625 46.484375 51.90625 
Q 46.484375 58.296875 42.84375 61.546875 
Q 39.203125 64.796875 32.078125 64.796875 
z
" id="DejaVuSans-82"/>
       <path d="M 31 75.875 
Q 24.46875 64.65625 21.28125 53.65625 
Q 18.109375 42.671875 18.109375 31.390625 
Q 18.109375 20.125 21.3125 9.0625 
Q 24.515625 -2 31 -13.1875 
L 23.1875 -13.1875 
Q 15.875 -1.703125 12.234375 9.375 
Q 8.59375 20.453125 8.59375 31.390625 
Q 8.59375 42.28125 12.203125 53.3125 
Q 15.828125 64.359375 23.1875 75.875 
z
" id="DejaVuSans-40"/>
       <path d="M 34.1875 63.1875 
L 20.796875 26.90625 
L 47.609375 26.90625 
z
M 28.609375 72.90625 
L 39.796875 72.90625 
L 67.578125 0 
L 57.328125 0 
L 50.6875 18.703125 
L 17.828125 18.703125 
L 11.1875 0 
L 0.78125 0 
z
" id="DejaVuSans-65"/>
       <path d="M 9.8125 72.90625 
L 24.515625 72.90625 
L 43.109375 23.296875 
L 61.8125 72.90625 
L 76.515625 72.90625 
L 76.515625 0 
L 66.890625 0 
L 66.890625 64.015625 
L 48.09375 14.015625 
L 38.1875 14.015625 
L 19.390625 64.015625 
L 19.390625 0 
L 9.8125 0 
z
" id="DejaVuSans-77"/>
       <path d="M 8.015625 75.875 
L 15.828125 75.875 
Q 23.140625 64.359375 26.78125 53.3125 
Q 30.421875 42.28125 30.421875 31.390625 
Q 30.421875 20.453125 26.78125 9.375 
Q 23.140625 -1.703125 15.828125 -13.1875 
L 8.015625 -13.1875 
Q 14.5 -2 17.703125 9.0625 
Q 20.90625 20.125 20.90625 31.390625 
Q 20.90625 42.671875 17.703125 53.65625 
Q 14.5 64.65625 8.015625 75.875 
z
" id="DejaVuSans-41"/>
      </defs>
      <use xlink:href="#DejaVuSans-69"/>
      <use x="63.183594" xlink:href="#DejaVuSans-67"/>
      <use x="133.007812" xlink:href="#DejaVuSans-76"/>
      <use x="186.970703" xlink:href="#DejaVuSans-45"/>
      <use x="223.054688" xlink:href="#DejaVuSans-73"/>
      <use x="252.546875" xlink:href="#DejaVuSans-83"/>
      <use x="316.023438" xlink:href="#DejaVuSans-86"/>
      <use x="384.431641" xlink:href="#DejaVuSans-82"/>
      <use x="453.914062" xlink:href="#DejaVuSans-32"/>
      <use x="485.701172" xlink:href="#DejaVuSans-40"/>
      <use x="524.714844" xlink:href="#DejaVuSans-65"/>
      <use x="593.123047" xlink:href="#DejaVuSans-68"/>
      <use x="670.125" xlink:href="#DejaVuSans-77"/>
      <use x="756.404297" xlink:href="#DejaVuSans-77"/>
      <use x="842.683594" xlink:href="#DejaVuSans-45"/>
      <use x="878.767578" xlink:href="#DejaVuSans-73"/>
      <use x="908.259766" xlink:href="#DejaVuSans-83"/>
      <use x="971.736328" xlink:href="#DejaVuSans-86"/>
      <use x="1040.144531" xlink:href="#DejaVuSans-82"/>
      <use x="1109.626953" xlink:href="#DejaVuSans-41"/>
     </g>
    </g>
    <g id="LineCollection_7">
     <path d="M 91.362358 74.334687 
L 91.362358 64.334687 
" style="fill:none;stroke:#ff9896;stroke-width:1.5;"/>
    </g>
    <g id="line2d_28">
     <path d="M 81.362358 69.334687 
L 101.362358 69.334687 
" style="fill:none;stroke:#d62728;stroke-linecap:square;stroke-width:1.5;"/>
    </g>
    <g id="line2d_29"/>
    <g id="text_18">
     <!-- ECL-ISVR (PDMM-ISVR) -->
     <g transform="translate(109.362358 72.834687)scale(0.1 -0.1)">
      <use xlink:href="#DejaVuSans-69"/>
      <use x="63.183594" xlink:href="#DejaVuSans-67"/>
      <use x="133.007812" xlink:href="#DejaVuSans-76"/>
      <use x="186.970703" xlink:href="#DejaVuSans-45"/>
      <use x="223.054688" xlink:href="#DejaVuSans-73"/>
      <use x="252.546875" xlink:href="#DejaVuSans-83"/>
      <use x="316.023438" xlink:href="#DejaVuSans-86"/>
      <use x="384.431641" xlink:href="#DejaVuSans-82"/>
      <use x="453.914062" xlink:href="#DejaVuSans-32"/>
      <use x="485.701172" xlink:href="#DejaVuSans-40"/>
      <use x="524.714844" xlink:href="#DejaVuSans-80"/>
      <use x="585.017578" xlink:href="#DejaVuSans-68"/>
      <use x="662.019531" xlink:href="#DejaVuSans-77"/>
      <use x="748.298828" xlink:href="#DejaVuSans-77"/>
      <use x="834.578125" xlink:href="#DejaVuSans-45"/>
      <use x="870.662109" xlink:href="#DejaVuSans-73"/>
      <use x="900.154297" xlink:href="#DejaVuSans-83"/>
      <use x="963.630859" xlink:href="#DejaVuSans-86"/>
      <use x="1032.039062" xlink:href="#DejaVuSans-82"/>
      <use x="1101.521484" xlink:href="#DejaVuSans-41"/>
     </g>
    </g>
    <g id="LineCollection_8">
     <path d="M 91.362358 89.012812 
L 91.362358 79.012812 
" style="fill:none;stroke:#aec7e8;stroke-width:1.5;"/>
    </g>
    <g id="line2d_30">
     <path d="M 81.362358 84.012812 
L 101.362358 84.012812 
" style="fill:none;stroke:#1f77b4;stroke-linecap:square;stroke-width:1.5;"/>
    </g>
    <g id="line2d_31"/>
    <g id="text_19">
     <!-- Reference(1 node) -->
     <g transform="translate(109.362358 87.512812)scale(0.1 -0.1)">
      <defs>
       <path d="M 45.40625 46.390625 
L 45.40625 75.984375 
L 54.390625 75.984375 
L 54.390625 0 
L 45.40625 0 
L 45.40625 8.203125 
Q 42.578125 3.328125 38.25 0.953125 
Q 33.9375 -1.421875 27.875 -1.421875 
Q 17.96875 -1.421875 11.734375 6.484375 
Q 5.515625 14.40625 5.515625 27.296875 
Q 5.515625 40.1875 11.734375 48.09375 
Q 17.96875 56 27.875 56 
Q 33.9375 56 38.25 53.625 
Q 42.578125 51.265625 45.40625 46.390625 
z
M 14.796875 27.296875 
Q 14.796875 17.390625 18.875 11.75 
Q 22.953125 6.109375 30.078125 6.109375 
Q 37.203125 6.109375 41.296875 11.75 
Q 45.40625 17.390625 45.40625 27.296875 
Q 45.40625 37.203125 41.296875 42.84375 
Q 37.203125 48.484375 30.078125 48.484375 
Q 22.953125 48.484375 18.875 42.84375 
Q 14.796875 37.203125 14.796875 27.296875 
z
" id="DejaVuSans-100"/>
      </defs>
      <use xlink:href="#DejaVuSans-82"/>
      <use x="64.982422" xlink:href="#DejaVuSans-101"/>
      <use x="126.505859" xlink:href="#DejaVuSans-102"/>
      <use x="161.710938" xlink:href="#DejaVuSans-101"/>
      <use x="223.234375" xlink:href="#DejaVuSans-114"/>
      <use x="262.097656" xlink:href="#DejaVuSans-101"/>
      <use x="323.621094" xlink:href="#DejaVuSans-110"/>
      <use x="387" xlink:href="#DejaVuSans-99"/>
      <use x="441.980469" xlink:href="#DejaVuSans-101"/>
      <use x="503.503906" xlink:href="#DejaVuSans-40"/>
      <use x="542.517578" xlink:href="#DejaVuSans-49"/>
      <use x="606.140625" xlink:href="#DejaVuSans-32"/>
      <use x="637.927734" xlink:href="#DejaVuSans-110"/>
      <use x="701.306641" xlink:href="#DejaVuSans-111"/>
      <use x="762.488281" xlink:href="#DejaVuSans-100"/>
      <use x="825.964844" xlink:href="#DejaVuSans-101"/>
      <use x="887.488281" xlink:href="#DejaVuSans-41"/>
     </g>
    </g>
   </g>
  </g>
 </g>
 <defs>
  <clipPath id="p47ef667ca4">
   <rect height="214.84" width="181.099545" x="52.13" y="26.88"/>
  </clipPath>
 </defs>
</svg>
