<?xml version="1.0" encoding="utf-8" standalone="no"?>
<!DOCTYPE svg PUBLIC "-//W3C//DTD SVG 1.1//EN"
  "http://www.w3.org/Graphics/SVG/1.1/DTD/svg11.dtd">
<!-- Created with matplotlib (https://matplotlib.org/) -->
<svg height="288pt" version="1.1" viewBox="0 0 252 288" width="252pt" xmlns="http://www.w3.org/2000/svg" xmlns:xlink="http://www.w3.org/1999/xlink">
 <metadata>
  <rdf:RDF xmlns:cc="http://creativecommons.org/ns#" xmlns:dc="http://purl.org/dc/elements/1.1/" xmlns:rdf="http://www.w3.org/1999/02/22-rdf-syntax-ns#">
   <cc:Work>
    <dc:type rdf:resource="http://purl.org/dc/dcmitype/StillImage"/>
    <dc:date>2021-06-28T09:50:10.290797</dc:date>
    <dc:format>image/svg+xml</dc:format>
    <dc:creator>
     <cc:Agent>
      <dc:title>Matplotlib v3.3.2, https://matplotlib.org/</dc:title>
     </cc:Agent>
    </dc:creator>
   </cc:Work>
  </rdf:RDF>
 </metadata>
 <defs>
  <style type="text/css">*{stroke-linecap:butt;stroke-linejoin:round;}</style>
 </defs>
 <g id="figure_1">
  <g id="patch_1">
   <path d="M 0 288 
L 252 288 
L 252 0 
L 0 0 
z
" style="fill:#ffffff;"/>
  </g>
  <g id="axes_1">
   <g id="patch_2">
    <path d="M 52.13 241.72 
L 241.2 241.72 
L 241.2 26.88 
L 52.13 26.88 
z
" style="fill:#ffffff;"/>
   </g>
   <g id="matplotlib.axis_1">
    <g id="xtick_1">
     <g id="line2d_1">
      <defs>
       <path d="M 0 0 
L 0 3.5 
" id="m1fd9ca42ac" style="stroke:#000000;stroke-width:0.8;"/>
      </defs>
      <g>
       <use style="stroke:#000000;stroke-width:0.8;" x="60.724091" xlink:href="#m1fd9ca42ac" y="241.72"/>
      </g>
     </g>
     <g id="text_1">
      <!-- 0 -->
      <g transform="translate(57.542841 256.318438)scale(0.1 -0.1)">
       <defs>
        <path d="M 31.78125 66.40625 
Q 24.171875 66.40625 20.328125 58.90625 
Q 16.5 51.421875 16.5 36.375 
Q 16.5 21.390625 20.328125 13.890625 
Q 24.171875 6.390625 31.78125 6.390625 
Q 39.453125 6.390625 43.28125 13.890625 
Q 47.125 21.390625 47.125 36.375 
Q 47.125 51.421875 43.28125 58.90625 
Q 39.453125 66.40625 31.78125 66.40625 
z
M 31.78125 74.21875 
Q 44.046875 74.21875 50.515625 64.515625 
Q 56.984375 54.828125 56.984375 36.375 
Q 56.984375 17.96875 50.515625 8.265625 
Q 44.046875 -1.421875 31.78125 -1.421875 
Q 19.53125 -1.421875 13.0625 8.265625 
Q 6.59375 17.96875 6.59375 36.375 
Q 6.59375 54.828125 13.0625 64.515625 
Q 19.53125 74.21875 31.78125 74.21875 
z
" id="DejaVuSans-48"/>
       </defs>
       <use xlink:href="#DejaVuSans-48"/>
      </g>
     </g>
    </g>
    <g id="xtick_2">
     <g id="line2d_2">
      <g>
       <use style="stroke:#000000;stroke-width:0.8;" x="112.495723" xlink:href="#m1fd9ca42ac" y="241.72"/>
      </g>
     </g>
     <g id="text_2">
      <!-- 50 -->
      <g transform="translate(106.133223 256.318438)scale(0.1 -0.1)">
       <defs>
        <path d="M 10.796875 72.90625 
L 49.515625 72.90625 
L 49.515625 64.59375 
L 19.828125 64.59375 
L 19.828125 46.734375 
Q 21.96875 47.46875 24.109375 47.828125 
Q 26.265625 48.1875 28.421875 48.1875 
Q 40.625 48.1875 47.75 41.5 
Q 54.890625 34.8125 54.890625 23.390625 
Q 54.890625 11.625 47.5625 5.09375 
Q 40.234375 -1.421875 26.90625 -1.421875 
Q 22.3125 -1.421875 17.546875 -0.640625 
Q 12.796875 0.140625 7.71875 1.703125 
L 7.71875 11.625 
Q 12.109375 9.234375 16.796875 8.0625 
Q 21.484375 6.890625 26.703125 6.890625 
Q 35.15625 6.890625 40.078125 11.328125 
Q 45.015625 15.765625 45.015625 23.390625 
Q 45.015625 31 40.078125 35.4375 
Q 35.15625 39.890625 26.703125 39.890625 
Q 22.75 39.890625 18.8125 39.015625 
Q 14.890625 38.140625 10.796875 36.28125 
z
" id="DejaVuSans-53"/>
       </defs>
       <use xlink:href="#DejaVuSans-53"/>
       <use x="63.623047" xlink:href="#DejaVuSans-48"/>
      </g>
     </g>
    </g>
    <g id="xtick_3">
     <g id="line2d_3">
      <g>
       <use style="stroke:#000000;stroke-width:0.8;" x="164.267355" xlink:href="#m1fd9ca42ac" y="241.72"/>
      </g>
     </g>
     <g id="text_3">
      <!-- 100 -->
      <g transform="translate(154.723605 256.318438)scale(0.1 -0.1)">
       <defs>
        <path d="M 12.40625 8.296875 
L 28.515625 8.296875 
L 28.515625 63.921875 
L 10.984375 60.40625 
L 10.984375 69.390625 
L 28.421875 72.90625 
L 38.28125 72.90625 
L 38.28125 8.296875 
L 54.390625 8.296875 
L 54.390625 0 
L 12.40625 0 
z
" id="DejaVuSans-49"/>
       </defs>
       <use xlink:href="#DejaVuSans-49"/>
       <use x="63.623047" xlink:href="#DejaVuSans-48"/>
       <use x="127.246094" xlink:href="#DejaVuSans-48"/>
      </g>
     </g>
    </g>
    <g id="xtick_4">
     <g id="line2d_4">
      <g>
       <use style="stroke:#000000;stroke-width:0.8;" x="216.038987" xlink:href="#m1fd9ca42ac" y="241.72"/>
      </g>
     </g>
     <g id="text_4">
      <!-- 150 -->
      <g transform="translate(206.495237 256.318438)scale(0.1 -0.1)">
       <use xlink:href="#DejaVuSans-49"/>
       <use x="63.623047" xlink:href="#DejaVuSans-53"/>
       <use x="127.246094" xlink:href="#DejaVuSans-48"/>
      </g>
     </g>
    </g>
    <g id="text_5">
     <!-- Processing time [min] -->
     <g transform="translate(59.46375 274.555625)scale(0.16 -0.16)">
      <defs>
       <path d="M 19.671875 64.796875 
L 19.671875 37.40625 
L 32.078125 37.40625 
Q 38.96875 37.40625 42.71875 40.96875 
Q 46.484375 44.53125 46.484375 51.125 
Q 46.484375 57.671875 42.71875 61.234375 
Q 38.96875 64.796875 32.078125 64.796875 
z
M 9.8125 72.90625 
L 32.078125 72.90625 
Q 44.34375 72.90625 50.609375 67.359375 
Q 56.890625 61.8125 56.890625 51.125 
Q 56.890625 40.328125 50.609375 34.8125 
Q 44.34375 29.296875 32.078125 29.296875 
L 19.671875 29.296875 
L 19.671875 0 
L 9.8125 0 
z
" id="DejaVuSans-80"/>
       <path d="M 41.109375 46.296875 
Q 39.59375 47.171875 37.8125 47.578125 
Q 36.03125 48 33.890625 48 
Q 26.265625 48 22.1875 43.046875 
Q 18.109375 38.09375 18.109375 28.8125 
L 18.109375 0 
L 9.078125 0 
L 9.078125 54.6875 
L 18.109375 54.6875 
L 18.109375 46.1875 
Q 20.953125 51.171875 25.484375 53.578125 
Q 30.03125 56 36.53125 56 
Q 37.453125 56 38.578125 55.875 
Q 39.703125 55.765625 41.0625 55.515625 
z
" id="DejaVuSans-114"/>
       <path d="M 30.609375 48.390625 
Q 23.390625 48.390625 19.1875 42.75 
Q 14.984375 37.109375 14.984375 27.296875 
Q 14.984375 17.484375 19.15625 11.84375 
Q 23.34375 6.203125 30.609375 6.203125 
Q 37.796875 6.203125 41.984375 11.859375 
Q 46.1875 17.53125 46.1875 27.296875 
Q 46.1875 37.015625 41.984375 42.703125 
Q 37.796875 48.390625 30.609375 48.390625 
z
M 30.609375 56 
Q 42.328125 56 49.015625 48.375 
Q 55.71875 40.765625 55.71875 27.296875 
Q 55.71875 13.875 49.015625 6.21875 
Q 42.328125 -1.421875 30.609375 -1.421875 
Q 18.84375 -1.421875 12.171875 6.21875 
Q 5.515625 13.875 5.515625 27.296875 
Q 5.515625 40.765625 12.171875 48.375 
Q 18.84375 56 30.609375 56 
z
" id="DejaVuSans-111"/>
       <path d="M 48.78125 52.59375 
L 48.78125 44.1875 
Q 44.96875 46.296875 41.140625 47.34375 
Q 37.3125 48.390625 33.40625 48.390625 
Q 24.65625 48.390625 19.8125 42.84375 
Q 14.984375 37.3125 14.984375 27.296875 
Q 14.984375 17.28125 19.8125 11.734375 
Q 24.65625 6.203125 33.40625 6.203125 
Q 37.3125 6.203125 41.140625 7.25 
Q 44.96875 8.296875 48.78125 10.40625 
L 48.78125 2.09375 
Q 45.015625 0.34375 40.984375 -0.53125 
Q 36.96875 -1.421875 32.421875 -1.421875 
Q 20.0625 -1.421875 12.78125 6.34375 
Q 5.515625 14.109375 5.515625 27.296875 
Q 5.515625 40.671875 12.859375 48.328125 
Q 20.21875 56 33.015625 56 
Q 37.15625 56 41.109375 55.140625 
Q 45.0625 54.296875 48.78125 52.59375 
z
" id="DejaVuSans-99"/>
       <path d="M 56.203125 29.59375 
L 56.203125 25.203125 
L 14.890625 25.203125 
Q 15.484375 15.921875 20.484375 11.0625 
Q 25.484375 6.203125 34.421875 6.203125 
Q 39.59375 6.203125 44.453125 7.46875 
Q 49.3125 8.734375 54.109375 11.28125 
L 54.109375 2.78125 
Q 49.265625 0.734375 44.1875 -0.34375 
Q 39.109375 -1.421875 33.890625 -1.421875 
Q 20.796875 -1.421875 13.15625 6.1875 
Q 5.515625 13.8125 5.515625 26.8125 
Q 5.515625 40.234375 12.765625 48.109375 
Q 20.015625 56 32.328125 56 
Q 43.359375 56 49.78125 48.890625 
Q 56.203125 41.796875 56.203125 29.59375 
z
M 47.21875 32.234375 
Q 47.125 39.59375 43.09375 43.984375 
Q 39.0625 48.390625 32.421875 48.390625 
Q 24.90625 48.390625 20.390625 44.140625 
Q 15.875 39.890625 15.1875 32.171875 
z
" id="DejaVuSans-101"/>
       <path d="M 44.28125 53.078125 
L 44.28125 44.578125 
Q 40.484375 46.53125 36.375 47.5 
Q 32.28125 48.484375 27.875 48.484375 
Q 21.1875 48.484375 17.84375 46.4375 
Q 14.5 44.390625 14.5 40.28125 
Q 14.5 37.15625 16.890625 35.375 
Q 19.28125 33.59375 26.515625 31.984375 
L 29.59375 31.296875 
Q 39.15625 29.25 43.1875 25.515625 
Q 47.21875 21.78125 47.21875 15.09375 
Q 47.21875 7.46875 41.1875 3.015625 
Q 35.15625 -1.421875 24.609375 -1.421875 
Q 20.21875 -1.421875 15.453125 -0.5625 
Q 10.6875 0.296875 5.421875 2 
L 5.421875 11.28125 
Q 10.40625 8.6875 15.234375 7.390625 
Q 20.0625 6.109375 24.8125 6.109375 
Q 31.15625 6.109375 34.5625 8.28125 
Q 37.984375 10.453125 37.984375 14.40625 
Q 37.984375 18.0625 35.515625 20.015625 
Q 33.0625 21.96875 24.703125 23.78125 
L 21.578125 24.515625 
Q 13.234375 26.265625 9.515625 29.90625 
Q 5.8125 33.546875 5.8125 39.890625 
Q 5.8125 47.609375 11.28125 51.796875 
Q 16.75 56 26.8125 56 
Q 31.78125 56 36.171875 55.265625 
Q 40.578125 54.546875 44.28125 53.078125 
z
" id="DejaVuSans-115"/>
       <path d="M 9.421875 54.6875 
L 18.40625 54.6875 
L 18.40625 0 
L 9.421875 0 
z
M 9.421875 75.984375 
L 18.40625 75.984375 
L 18.40625 64.59375 
L 9.421875 64.59375 
z
" id="DejaVuSans-105"/>
       <path d="M 54.890625 33.015625 
L 54.890625 0 
L 45.90625 0 
L 45.90625 32.71875 
Q 45.90625 40.484375 42.875 44.328125 
Q 39.84375 48.1875 33.796875 48.1875 
Q 26.515625 48.1875 22.3125 43.546875 
Q 18.109375 38.921875 18.109375 30.90625 
L 18.109375 0 
L 9.078125 0 
L 9.078125 54.6875 
L 18.109375 54.6875 
L 18.109375 46.1875 
Q 21.34375 51.125 25.703125 53.5625 
Q 30.078125 56 35.796875 56 
Q 45.21875 56 50.046875 50.171875 
Q 54.890625 44.34375 54.890625 33.015625 
z
" id="DejaVuSans-110"/>
       <path d="M 45.40625 27.984375 
Q 45.40625 37.75 41.375 43.109375 
Q 37.359375 48.484375 30.078125 48.484375 
Q 22.859375 48.484375 18.828125 43.109375 
Q 14.796875 37.75 14.796875 27.984375 
Q 14.796875 18.265625 18.828125 12.890625 
Q 22.859375 7.515625 30.078125 7.515625 
Q 37.359375 7.515625 41.375 12.890625 
Q 45.40625 18.265625 45.40625 27.984375 
z
M 54.390625 6.78125 
Q 54.390625 -7.171875 48.1875 -13.984375 
Q 42 -20.796875 29.203125 -20.796875 
Q 24.46875 -20.796875 20.265625 -20.09375 
Q 16.0625 -19.390625 12.109375 -17.921875 
L 12.109375 -9.1875 
Q 16.0625 -11.328125 19.921875 -12.34375 
Q 23.78125 -13.375 27.78125 -13.375 
Q 36.625 -13.375 41.015625 -8.765625 
Q 45.40625 -4.15625 45.40625 5.171875 
L 45.40625 9.625 
Q 42.625 4.78125 38.28125 2.390625 
Q 33.9375 0 27.875 0 
Q 17.828125 0 11.671875 7.65625 
Q 5.515625 15.328125 5.515625 27.984375 
Q 5.515625 40.671875 11.671875 48.328125 
Q 17.828125 56 27.875 56 
Q 33.9375 56 38.28125 53.609375 
Q 42.625 51.21875 45.40625 46.390625 
L 45.40625 54.6875 
L 54.390625 54.6875 
z
" id="DejaVuSans-103"/>
       <path id="DejaVuSans-32"/>
       <path d="M 18.3125 70.21875 
L 18.3125 54.6875 
L 36.8125 54.6875 
L 36.8125 47.703125 
L 18.3125 47.703125 
L 18.3125 18.015625 
Q 18.3125 11.328125 20.140625 9.421875 
Q 21.96875 7.515625 27.59375 7.515625 
L 36.8125 7.515625 
L 36.8125 0 
L 27.59375 0 
Q 17.1875 0 13.234375 3.875 
Q 9.28125 7.765625 9.28125 18.015625 
L 9.28125 47.703125 
L 2.6875 47.703125 
L 2.6875 54.6875 
L 9.28125 54.6875 
L 9.28125 70.21875 
z
" id="DejaVuSans-116"/>
       <path d="M 52 44.1875 
Q 55.375 50.25 60.0625 53.125 
Q 64.75 56 71.09375 56 
Q 79.640625 56 84.28125 50.015625 
Q 88.921875 44.046875 88.921875 33.015625 
L 88.921875 0 
L 79.890625 0 
L 79.890625 32.71875 
Q 79.890625 40.578125 77.09375 44.375 
Q 74.3125 48.1875 68.609375 48.1875 
Q 61.625 48.1875 57.5625 43.546875 
Q 53.515625 38.921875 53.515625 30.90625 
L 53.515625 0 
L 44.484375 0 
L 44.484375 32.71875 
Q 44.484375 40.625 41.703125 44.40625 
Q 38.921875 48.1875 33.109375 48.1875 
Q 26.21875 48.1875 22.15625 43.53125 
Q 18.109375 38.875 18.109375 30.90625 
L 18.109375 0 
L 9.078125 0 
L 9.078125 54.6875 
L 18.109375 54.6875 
L 18.109375 46.1875 
Q 21.1875 51.21875 25.484375 53.609375 
Q 29.78125 56 35.6875 56 
Q 41.65625 56 45.828125 52.96875 
Q 50 49.953125 52 44.1875 
z
" id="DejaVuSans-109"/>
       <path d="M 8.59375 75.984375 
L 29.296875 75.984375 
L 29.296875 69 
L 17.578125 69 
L 17.578125 -6.203125 
L 29.296875 -6.203125 
L 29.296875 -13.1875 
L 8.59375 -13.1875 
z
" id="DejaVuSans-91"/>
       <path d="M 30.421875 75.984375 
L 30.421875 -13.1875 
L 9.71875 -13.1875 
L 9.71875 -6.203125 
L 21.390625 -6.203125 
L 21.390625 69 
L 9.71875 69 
L 9.71875 75.984375 
z
" id="DejaVuSans-93"/>
      </defs>
      <use xlink:href="#DejaVuSans-80"/>
      <use x="58.552734" xlink:href="#DejaVuSans-114"/>
      <use x="97.416016" xlink:href="#DejaVuSans-111"/>
      <use x="158.597656" xlink:href="#DejaVuSans-99"/>
      <use x="213.578125" xlink:href="#DejaVuSans-101"/>
      <use x="275.101562" xlink:href="#DejaVuSans-115"/>
      <use x="327.201172" xlink:href="#DejaVuSans-115"/>
      <use x="379.300781" xlink:href="#DejaVuSans-105"/>
      <use x="407.083984" xlink:href="#DejaVuSans-110"/>
      <use x="470.462891" xlink:href="#DejaVuSans-103"/>
      <use x="533.939453" xlink:href="#DejaVuSans-32"/>
      <use x="565.726562" xlink:href="#DejaVuSans-116"/>
      <use x="604.935547" xlink:href="#DejaVuSans-105"/>
      <use x="632.71875" xlink:href="#DejaVuSans-109"/>
      <use x="730.130859" xlink:href="#DejaVuSans-101"/>
      <use x="791.654297" xlink:href="#DejaVuSans-32"/>
      <use x="823.441406" xlink:href="#DejaVuSans-91"/>
      <use x="862.455078" xlink:href="#DejaVuSans-109"/>
      <use x="959.867188" xlink:href="#DejaVuSans-105"/>
      <use x="987.650391" xlink:href="#DejaVuSans-110"/>
      <use x="1051.029297" xlink:href="#DejaVuSans-93"/>
     </g>
    </g>
   </g>
   <g id="matplotlib.axis_2">
    <g id="ytick_1">
     <g id="line2d_5">
      <path clip-path="url(#pd5d9c09845)" d="M 52.13 217.626934 
L 241.2 217.626934 
" style="fill:none;stroke:#000000;stroke-dasharray:0.37,0.16;stroke-dashoffset:0;stroke-opacity:0.5;stroke-width:0.1;"/>
     </g>
     <g id="line2d_6">
      <defs>
       <path d="M 0 0 
L -3.5 0 
" id="m047505537a" style="stroke:#000000;stroke-width:0.8;"/>
      </defs>
      <g>
       <use style="stroke:#000000;stroke-width:0.8;" x="52.13" xlink:href="#m047505537a" y="217.626934"/>
      </g>
     </g>
     <g id="text_6">
      <!-- 1.0 -->
      <g transform="translate(29.226875 221.426152)scale(0.1 -0.1)">
       <defs>
        <path d="M 10.6875 12.40625 
L 21 12.40625 
L 21 0 
L 10.6875 0 
z
" id="DejaVuSans-46"/>
       </defs>
       <use xlink:href="#DejaVuSans-49"/>
       <use x="63.623047" xlink:href="#DejaVuSans-46"/>
       <use x="95.410156" xlink:href="#DejaVuSans-48"/>
      </g>
     </g>
    </g>
    <g id="ytick_2">
     <g id="line2d_7">
      <path clip-path="url(#pd5d9c09845)" d="M 52.13 190.857286 
L 241.2 190.857286 
" style="fill:none;stroke:#000000;stroke-dasharray:0.37,0.16;stroke-dashoffset:0;stroke-opacity:0.5;stroke-width:0.1;"/>
     </g>
     <g id="line2d_8">
      <g>
       <use style="stroke:#000000;stroke-width:0.8;" x="52.13" xlink:href="#m047505537a" y="190.857286"/>
      </g>
     </g>
     <g id="text_7">
      <!-- 1.2 -->
      <g transform="translate(29.226875 194.656505)scale(0.1 -0.1)">
       <defs>
        <path d="M 19.1875 8.296875 
L 53.609375 8.296875 
L 53.609375 0 
L 7.328125 0 
L 7.328125 8.296875 
Q 12.9375 14.109375 22.625 23.890625 
Q 32.328125 33.6875 34.8125 36.53125 
Q 39.546875 41.84375 41.421875 45.53125 
Q 43.3125 49.21875 43.3125 52.78125 
Q 43.3125 58.59375 39.234375 62.25 
Q 35.15625 65.921875 28.609375 65.921875 
Q 23.96875 65.921875 18.8125 64.3125 
Q 13.671875 62.703125 7.8125 59.421875 
L 7.8125 69.390625 
Q 13.765625 71.78125 18.9375 73 
Q 24.125 74.21875 28.421875 74.21875 
Q 39.75 74.21875 46.484375 68.546875 
Q 53.21875 62.890625 53.21875 53.421875 
Q 53.21875 48.921875 51.53125 44.890625 
Q 49.859375 40.875 45.40625 35.40625 
Q 44.1875 33.984375 37.640625 27.21875 
Q 31.109375 20.453125 19.1875 8.296875 
z
" id="DejaVuSans-50"/>
       </defs>
       <use xlink:href="#DejaVuSans-49"/>
       <use x="63.623047" xlink:href="#DejaVuSans-46"/>
       <use x="95.410156" xlink:href="#DejaVuSans-50"/>
      </g>
     </g>
    </g>
    <g id="ytick_3">
     <g id="line2d_9">
      <path clip-path="url(#pd5d9c09845)" d="M 52.13 164.087639 
L 241.2 164.087639 
" style="fill:none;stroke:#000000;stroke-dasharray:0.37,0.16;stroke-dashoffset:0;stroke-opacity:0.5;stroke-width:0.1;"/>
     </g>
     <g id="line2d_10">
      <g>
       <use style="stroke:#000000;stroke-width:0.8;" x="52.13" xlink:href="#m047505537a" y="164.087639"/>
      </g>
     </g>
     <g id="text_8">
      <!-- 1.4 -->
      <g transform="translate(29.226875 167.886857)scale(0.1 -0.1)">
       <defs>
        <path d="M 37.796875 64.3125 
L 12.890625 25.390625 
L 37.796875 25.390625 
z
M 35.203125 72.90625 
L 47.609375 72.90625 
L 47.609375 25.390625 
L 58.015625 25.390625 
L 58.015625 17.1875 
L 47.609375 17.1875 
L 47.609375 0 
L 37.796875 0 
L 37.796875 17.1875 
L 4.890625 17.1875 
L 4.890625 26.703125 
z
" id="DejaVuSans-52"/>
       </defs>
       <use xlink:href="#DejaVuSans-49"/>
       <use x="63.623047" xlink:href="#DejaVuSans-46"/>
       <use x="95.410156" xlink:href="#DejaVuSans-52"/>
      </g>
     </g>
    </g>
    <g id="ytick_4">
     <g id="line2d_11">
      <path clip-path="url(#pd5d9c09845)" d="M 52.13 137.317991 
L 241.2 137.317991 
" style="fill:none;stroke:#000000;stroke-dasharray:0.37,0.16;stroke-dashoffset:0;stroke-opacity:0.5;stroke-width:0.1;"/>
     </g>
     <g id="line2d_12">
      <g>
       <use style="stroke:#000000;stroke-width:0.8;" x="52.13" xlink:href="#m047505537a" y="137.317991"/>
      </g>
     </g>
     <g id="text_9">
      <!-- 1.6 -->
      <g transform="translate(29.226875 141.11721)scale(0.1 -0.1)">
       <defs>
        <path d="M 33.015625 40.375 
Q 26.375 40.375 22.484375 35.828125 
Q 18.609375 31.296875 18.609375 23.390625 
Q 18.609375 15.53125 22.484375 10.953125 
Q 26.375 6.390625 33.015625 6.390625 
Q 39.65625 6.390625 43.53125 10.953125 
Q 47.40625 15.53125 47.40625 23.390625 
Q 47.40625 31.296875 43.53125 35.828125 
Q 39.65625 40.375 33.015625 40.375 
z
M 52.59375 71.296875 
L 52.59375 62.3125 
Q 48.875 64.0625 45.09375 64.984375 
Q 41.3125 65.921875 37.59375 65.921875 
Q 27.828125 65.921875 22.671875 59.328125 
Q 17.53125 52.734375 16.796875 39.40625 
Q 19.671875 43.65625 24.015625 45.921875 
Q 28.375 48.1875 33.59375 48.1875 
Q 44.578125 48.1875 50.953125 41.515625 
Q 57.328125 34.859375 57.328125 23.390625 
Q 57.328125 12.15625 50.6875 5.359375 
Q 44.046875 -1.421875 33.015625 -1.421875 
Q 20.359375 -1.421875 13.671875 8.265625 
Q 6.984375 17.96875 6.984375 36.375 
Q 6.984375 53.65625 15.1875 63.9375 
Q 23.390625 74.21875 37.203125 74.21875 
Q 40.921875 74.21875 44.703125 73.484375 
Q 48.484375 72.75 52.59375 71.296875 
z
" id="DejaVuSans-54"/>
       </defs>
       <use xlink:href="#DejaVuSans-49"/>
       <use x="63.623047" xlink:href="#DejaVuSans-46"/>
       <use x="95.410156" xlink:href="#DejaVuSans-54"/>
      </g>
     </g>
    </g>
    <g id="ytick_5">
     <g id="line2d_13">
      <path clip-path="url(#pd5d9c09845)" d="M 52.13 110.548343 
L 241.2 110.548343 
" style="fill:none;stroke:#000000;stroke-dasharray:0.37,0.16;stroke-dashoffset:0;stroke-opacity:0.5;stroke-width:0.1;"/>
     </g>
     <g id="line2d_14">
      <g>
       <use style="stroke:#000000;stroke-width:0.8;" x="52.13" xlink:href="#m047505537a" y="110.548343"/>
      </g>
     </g>
     <g id="text_10">
      <!-- 1.8 -->
      <g transform="translate(29.226875 114.347562)scale(0.1 -0.1)">
       <defs>
        <path d="M 31.78125 34.625 
Q 24.75 34.625 20.71875 30.859375 
Q 16.703125 27.09375 16.703125 20.515625 
Q 16.703125 13.921875 20.71875 10.15625 
Q 24.75 6.390625 31.78125 6.390625 
Q 38.8125 6.390625 42.859375 10.171875 
Q 46.921875 13.96875 46.921875 20.515625 
Q 46.921875 27.09375 42.890625 30.859375 
Q 38.875 34.625 31.78125 34.625 
z
M 21.921875 38.8125 
Q 15.578125 40.375 12.03125 44.71875 
Q 8.5 49.078125 8.5 55.328125 
Q 8.5 64.0625 14.71875 69.140625 
Q 20.953125 74.21875 31.78125 74.21875 
Q 42.671875 74.21875 48.875 69.140625 
Q 55.078125 64.0625 55.078125 55.328125 
Q 55.078125 49.078125 51.53125 44.71875 
Q 48 40.375 41.703125 38.8125 
Q 48.828125 37.15625 52.796875 32.3125 
Q 56.78125 27.484375 56.78125 20.515625 
Q 56.78125 9.90625 50.3125 4.234375 
Q 43.84375 -1.421875 31.78125 -1.421875 
Q 19.734375 -1.421875 13.25 4.234375 
Q 6.78125 9.90625 6.78125 20.515625 
Q 6.78125 27.484375 10.78125 32.3125 
Q 14.796875 37.15625 21.921875 38.8125 
z
M 18.3125 54.390625 
Q 18.3125 48.734375 21.84375 45.5625 
Q 25.390625 42.390625 31.78125 42.390625 
Q 38.140625 42.390625 41.71875 45.5625 
Q 45.3125 48.734375 45.3125 54.390625 
Q 45.3125 60.0625 41.71875 63.234375 
Q 38.140625 66.40625 31.78125 66.40625 
Q 25.390625 66.40625 21.84375 63.234375 
Q 18.3125 60.0625 18.3125 54.390625 
z
" id="DejaVuSans-56"/>
       </defs>
       <use xlink:href="#DejaVuSans-49"/>
       <use x="63.623047" xlink:href="#DejaVuSans-46"/>
       <use x="95.410156" xlink:href="#DejaVuSans-56"/>
      </g>
     </g>
    </g>
    <g id="ytick_6">
     <g id="line2d_15">
      <path clip-path="url(#pd5d9c09845)" d="M 52.13 83.778696 
L 241.2 83.778696 
" style="fill:none;stroke:#000000;stroke-dasharray:0.37,0.16;stroke-dashoffset:0;stroke-opacity:0.5;stroke-width:0.1;"/>
     </g>
     <g id="line2d_16">
      <g>
       <use style="stroke:#000000;stroke-width:0.8;" x="52.13" xlink:href="#m047505537a" y="83.778696"/>
      </g>
     </g>
     <g id="text_11">
      <!-- 2.0 -->
      <g transform="translate(29.226875 87.577915)scale(0.1 -0.1)">
       <use xlink:href="#DejaVuSans-50"/>
       <use x="63.623047" xlink:href="#DejaVuSans-46"/>
       <use x="95.410156" xlink:href="#DejaVuSans-48"/>
      </g>
     </g>
    </g>
    <g id="ytick_7">
     <g id="line2d_17">
      <path clip-path="url(#pd5d9c09845)" d="M 52.13 57.009048 
L 241.2 57.009048 
" style="fill:none;stroke:#000000;stroke-dasharray:0.37,0.16;stroke-dashoffset:0;stroke-opacity:0.5;stroke-width:0.1;"/>
     </g>
     <g id="line2d_18">
      <g>
       <use style="stroke:#000000;stroke-width:0.8;" x="52.13" xlink:href="#m047505537a" y="57.009048"/>
      </g>
     </g>
     <g id="text_12">
      <!-- 2.2 -->
      <g transform="translate(29.226875 60.808267)scale(0.1 -0.1)">
       <use xlink:href="#DejaVuSans-50"/>
       <use x="63.623047" xlink:href="#DejaVuSans-46"/>
       <use x="95.410156" xlink:href="#DejaVuSans-50"/>
      </g>
     </g>
    </g>
    <g id="ytick_8">
     <g id="line2d_19">
      <path clip-path="url(#pd5d9c09845)" d="M 52.13 30.239401 
L 241.2 30.239401 
" style="fill:none;stroke:#000000;stroke-dasharray:0.37,0.16;stroke-dashoffset:0;stroke-opacity:0.5;stroke-width:0.1;"/>
     </g>
     <g id="line2d_20">
      <g>
       <use style="stroke:#000000;stroke-width:0.8;" x="52.13" xlink:href="#m047505537a" y="30.239401"/>
      </g>
     </g>
     <g id="text_13">
      <!-- 2.4 -->
      <g transform="translate(29.226875 34.03862)scale(0.1 -0.1)">
       <use xlink:href="#DejaVuSans-50"/>
       <use x="63.623047" xlink:href="#DejaVuSans-46"/>
       <use x="95.410156" xlink:href="#DejaVuSans-52"/>
      </g>
     </g>
    </g>
    <g id="text_14">
     <!-- Cross-entropy -->
     <g transform="translate(21.899375 190.0575)rotate(-90)scale(0.16 -0.16)">
      <defs>
       <path d="M 64.40625 67.28125 
L 64.40625 56.890625 
Q 59.421875 61.53125 53.78125 63.8125 
Q 48.140625 66.109375 41.796875 66.109375 
Q 29.296875 66.109375 22.65625 58.46875 
Q 16.015625 50.828125 16.015625 36.375 
Q 16.015625 21.96875 22.65625 14.328125 
Q 29.296875 6.6875 41.796875 6.6875 
Q 48.140625 6.6875 53.78125 8.984375 
Q 59.421875 11.28125 64.40625 15.921875 
L 64.40625 5.609375 
Q 59.234375 2.09375 53.4375 0.328125 
Q 47.65625 -1.421875 41.21875 -1.421875 
Q 24.65625 -1.421875 15.125 8.703125 
Q 5.609375 18.84375 5.609375 36.375 
Q 5.609375 53.953125 15.125 64.078125 
Q 24.65625 74.21875 41.21875 74.21875 
Q 47.75 74.21875 53.53125 72.484375 
Q 59.328125 70.75 64.40625 67.28125 
z
" id="DejaVuSans-67"/>
       <path d="M 4.890625 31.390625 
L 31.203125 31.390625 
L 31.203125 23.390625 
L 4.890625 23.390625 
z
" id="DejaVuSans-45"/>
       <path d="M 18.109375 8.203125 
L 18.109375 -20.796875 
L 9.078125 -20.796875 
L 9.078125 54.6875 
L 18.109375 54.6875 
L 18.109375 46.390625 
Q 20.953125 51.265625 25.265625 53.625 
Q 29.59375 56 35.59375 56 
Q 45.5625 56 51.78125 48.09375 
Q 58.015625 40.1875 58.015625 27.296875 
Q 58.015625 14.40625 51.78125 6.484375 
Q 45.5625 -1.421875 35.59375 -1.421875 
Q 29.59375 -1.421875 25.265625 0.953125 
Q 20.953125 3.328125 18.109375 8.203125 
z
M 48.6875 27.296875 
Q 48.6875 37.203125 44.609375 42.84375 
Q 40.53125 48.484375 33.40625 48.484375 
Q 26.265625 48.484375 22.1875 42.84375 
Q 18.109375 37.203125 18.109375 27.296875 
Q 18.109375 17.390625 22.1875 11.75 
Q 26.265625 6.109375 33.40625 6.109375 
Q 40.53125 6.109375 44.609375 11.75 
Q 48.6875 17.390625 48.6875 27.296875 
z
" id="DejaVuSans-112"/>
       <path d="M 32.171875 -5.078125 
Q 28.375 -14.84375 24.75 -17.8125 
Q 21.140625 -20.796875 15.09375 -20.796875 
L 7.90625 -20.796875 
L 7.90625 -13.28125 
L 13.1875 -13.28125 
Q 16.890625 -13.28125 18.9375 -11.515625 
Q 21 -9.765625 23.484375 -3.21875 
L 25.09375 0.875 
L 2.984375 54.6875 
L 12.5 54.6875 
L 29.59375 11.921875 
L 46.6875 54.6875 
L 56.203125 54.6875 
z
" id="DejaVuSans-121"/>
      </defs>
      <use xlink:href="#DejaVuSans-67"/>
      <use x="69.824219" xlink:href="#DejaVuSans-114"/>
      <use x="108.6875" xlink:href="#DejaVuSans-111"/>
      <use x="169.869141" xlink:href="#DejaVuSans-115"/>
      <use x="221.96875" xlink:href="#DejaVuSans-115"/>
      <use x="274.068359" xlink:href="#DejaVuSans-45"/>
      <use x="310.152344" xlink:href="#DejaVuSans-101"/>
      <use x="371.675781" xlink:href="#DejaVuSans-110"/>
      <use x="435.054688" xlink:href="#DejaVuSans-116"/>
      <use x="474.263672" xlink:href="#DejaVuSans-114"/>
      <use x="513.126953" xlink:href="#DejaVuSans-111"/>
      <use x="574.308594" xlink:href="#DejaVuSans-112"/>
      <use x="637.785156" xlink:href="#DejaVuSans-121"/>
     </g>
    </g>
   </g>
   <g id="LineCollection_1">
    <path clip-path="url(#pd5d9c09845)" d="M 60.724091 40.725612 
L 60.724091 36.645455 
" style="fill:none;stroke:#c7c7c7;stroke-width:1.5;"/>
    <path clip-path="url(#pd5d9c09845)" d="M 62.794956 53.095816 
L 62.794956 47.96566 
" style="fill:none;stroke:#c7c7c7;stroke-width:1.5;"/>
    <path clip-path="url(#pd5d9c09845)" d="M 64.865821 60.941709 
L 64.865821 57.213742 
" style="fill:none;stroke:#c7c7c7;stroke-width:1.5;"/>
    <path clip-path="url(#pd5d9c09845)" d="M 66.936687 64.561929 
L 66.936687 59.892311 
" style="fill:none;stroke:#c7c7c7;stroke-width:1.5;"/>
    <path clip-path="url(#pd5d9c09845)" d="M 69.007552 72.629054 
L 69.007552 68.188223 
" style="fill:none;stroke:#c7c7c7;stroke-width:1.5;"/>
    <path clip-path="url(#pd5d9c09845)" d="M 71.078417 74.408258 
L 71.078417 67.888668 
" style="fill:none;stroke:#c7c7c7;stroke-width:1.5;"/>
    <path clip-path="url(#pd5d9c09845)" d="M 73.149283 78.576899 
L 73.149283 73.828487 
" style="fill:none;stroke:#c7c7c7;stroke-width:1.5;"/>
    <path clip-path="url(#pd5d9c09845)" d="M 75.220148 84.763993 
L 75.220148 80.746026 
" style="fill:none;stroke:#c7c7c7;stroke-width:1.5;"/>
    <path clip-path="url(#pd5d9c09845)" d="M 77.291013 86.66801 
L 77.291013 80.885118 
" style="fill:none;stroke:#c7c7c7;stroke-width:1.5;"/>
    <path clip-path="url(#pd5d9c09845)" d="M 79.361878 88.707016 
L 79.361878 83.82793 
" style="fill:none;stroke:#c7c7c7;stroke-width:1.5;"/>
    <path clip-path="url(#pd5d9c09845)" d="M 81.432744 91.79808 
L 81.432744 86.500242 
" style="fill:none;stroke:#c7c7c7;stroke-width:1.5;"/>
    <path clip-path="url(#pd5d9c09845)" d="M 83.503609 95.20046 
L 83.503609 90.791883 
" style="fill:none;stroke:#c7c7c7;stroke-width:1.5;"/>
    <path clip-path="url(#pd5d9c09845)" d="M 85.574474 96.111935 
L 85.574474 90.268303 
" style="fill:none;stroke:#c7c7c7;stroke-width:1.5;"/>
    <path clip-path="url(#pd5d9c09845)" d="M 87.64534 100.474779 
L 87.64534 95.704372 
" style="fill:none;stroke:#c7c7c7;stroke-width:1.5;"/>
    <path clip-path="url(#pd5d9c09845)" d="M 89.716205 101.709215 
L 89.716205 97.556854 
" style="fill:none;stroke:#c7c7c7;stroke-width:1.5;"/>
    <path clip-path="url(#pd5d9c09845)" d="M 91.78707 102.190487 
L 91.78707 96.493285 
" style="fill:none;stroke:#c7c7c7;stroke-width:1.5;"/>
    <path clip-path="url(#pd5d9c09845)" d="M 93.857935 104.551605 
L 93.857935 99.048617 
" style="fill:none;stroke:#c7c7c7;stroke-width:1.5;"/>
    <path clip-path="url(#pd5d9c09845)" d="M 95.928801 107.155706 
L 95.928801 103.282086 
" style="fill:none;stroke:#c7c7c7;stroke-width:1.5;"/>
    <path clip-path="url(#pd5d9c09845)" d="M 97.999666 107.948453 
L 97.999666 104.436751 
" style="fill:none;stroke:#c7c7c7;stroke-width:1.5;"/>
    <path clip-path="url(#pd5d9c09845)" d="M 100.070531 112.32782 
L 100.070531 107.725469 
" style="fill:none;stroke:#c7c7c7;stroke-width:1.5;"/>
    <path clip-path="url(#pd5d9c09845)" d="M 102.141396 114.486728 
L 102.141396 110.368611 
" style="fill:none;stroke:#c7c7c7;stroke-width:1.5;"/>
    <path clip-path="url(#pd5d9c09845)" d="M 104.212262 115.258373 
L 104.212262 111.7233 
" style="fill:none;stroke:#c7c7c7;stroke-width:1.5;"/>
    <path clip-path="url(#pd5d9c09845)" d="M 106.283127 117.125804 
L 106.283127 110.312776 
" style="fill:none;stroke:#c7c7c7;stroke-width:1.5;"/>
    <path clip-path="url(#pd5d9c09845)" d="M 108.353992 116.069174 
L 108.353992 112.650512 
" style="fill:none;stroke:#c7c7c7;stroke-width:1.5;"/>
    <path clip-path="url(#pd5d9c09845)" d="M 110.424858 118.401826 
L 110.424858 110.606881 
" style="fill:none;stroke:#c7c7c7;stroke-width:1.5;"/>
    <path clip-path="url(#pd5d9c09845)" d="M 112.495723 117.959167 
L 112.495723 113.577185 
" style="fill:none;stroke:#c7c7c7;stroke-width:1.5;"/>
    <path clip-path="url(#pd5d9c09845)" d="M 114.566588 118.663265 
L 114.566588 114.005482 
" style="fill:none;stroke:#c7c7c7;stroke-width:1.5;"/>
    <path clip-path="url(#pd5d9c09845)" d="M 116.637453 121.173061 
L 116.637453 117.015842 
" style="fill:none;stroke:#c7c7c7;stroke-width:1.5;"/>
    <path clip-path="url(#pd5d9c09845)" d="M 118.708319 122.975548 
L 118.708319 118.796274 
" style="fill:none;stroke:#c7c7c7;stroke-width:1.5;"/>
    <path clip-path="url(#pd5d9c09845)" d="M 120.779184 123.778358 
L 120.779184 116.943319 
" style="fill:none;stroke:#c7c7c7;stroke-width:1.5;"/>
    <path clip-path="url(#pd5d9c09845)" d="M 122.850049 123.740422 
L 122.850049 119.728184 
" style="fill:none;stroke:#c7c7c7;stroke-width:1.5;"/>
    <path clip-path="url(#pd5d9c09845)" d="M 124.920915 120.772099 
L 124.920915 114.459786 
" style="fill:none;stroke:#c7c7c7;stroke-width:1.5;"/>
    <path clip-path="url(#pd5d9c09845)" d="M 126.99178 125.963492 
L 126.99178 121.451653 
" style="fill:none;stroke:#c7c7c7;stroke-width:1.5;"/>
    <path clip-path="url(#pd5d9c09845)" d="M 129.062645 127.283015 
L 129.062645 123.930876 
" style="fill:none;stroke:#c7c7c7;stroke-width:1.5;"/>
    <path clip-path="url(#pd5d9c09845)" d="M 131.13351 126.525622 
L 131.13351 122.571973 
" style="fill:none;stroke:#c7c7c7;stroke-width:1.5;"/>
    <path clip-path="url(#pd5d9c09845)" d="M 133.204376 129.240334 
L 133.204376 125.231106 
" style="fill:none;stroke:#c7c7c7;stroke-width:1.5;"/>
    <path clip-path="url(#pd5d9c09845)" d="M 135.275241 131.254896 
L 135.275241 125.872879 
" style="fill:none;stroke:#c7c7c7;stroke-width:1.5;"/>
    <path clip-path="url(#pd5d9c09845)" d="M 137.346106 131.297217 
L 137.346106 127.542328 
" style="fill:none;stroke:#c7c7c7;stroke-width:1.5;"/>
    <path clip-path="url(#pd5d9c09845)" d="M 139.416972 131.481184 
L 139.416972 127.446918 
" style="fill:none;stroke:#c7c7c7;stroke-width:1.5;"/>
    <path clip-path="url(#pd5d9c09845)" d="M 141.487837 132.546632 
L 141.487837 128.690734 
" style="fill:none;stroke:#c7c7c7;stroke-width:1.5;"/>
    <path clip-path="url(#pd5d9c09845)" d="M 143.558702 132.606846 
L 143.558702 127.430704 
" style="fill:none;stroke:#c7c7c7;stroke-width:1.5;"/>
    <path clip-path="url(#pd5d9c09845)" d="M 145.629567 132.893102 
L 145.629567 128.378279 
" style="fill:none;stroke:#c7c7c7;stroke-width:1.5;"/>
    <path clip-path="url(#pd5d9c09845)" d="M 147.700433 133.651424 
L 147.700433 129.435438 
" style="fill:none;stroke:#c7c7c7;stroke-width:1.5;"/>
    <path clip-path="url(#pd5d9c09845)" d="M 149.771298 136.963883 
L 149.771298 134.547232 
" style="fill:none;stroke:#c7c7c7;stroke-width:1.5;"/>
    <path clip-path="url(#pd5d9c09845)" d="M 151.842163 136.101427 
L 151.842163 132.368655 
" style="fill:none;stroke:#c7c7c7;stroke-width:1.5;"/>
    <path clip-path="url(#pd5d9c09845)" d="M 153.913028 137.449611 
L 153.913028 133.968507 
" style="fill:none;stroke:#c7c7c7;stroke-width:1.5;"/>
    <path clip-path="url(#pd5d9c09845)" d="M 155.983894 136.989768 
L 155.983894 129.265388 
" style="fill:none;stroke:#c7c7c7;stroke-width:1.5;"/>
    <path clip-path="url(#pd5d9c09845)" d="M 158.054759 140.630697 
L 158.054759 135.660715 
" style="fill:none;stroke:#c7c7c7;stroke-width:1.5;"/>
    <path clip-path="url(#pd5d9c09845)" d="M 160.125624 142.084967 
L 160.125624 138.466679 
" style="fill:none;stroke:#c7c7c7;stroke-width:1.5;"/>
    <path clip-path="url(#pd5d9c09845)" d="M 162.19649 142.733098 
L 162.19649 139.921289 
" style="fill:none;stroke:#c7c7c7;stroke-width:1.5;"/>
    <path clip-path="url(#pd5d9c09845)" d="M 164.267355 139.338872 
L 164.267355 136.324517 
" style="fill:none;stroke:#c7c7c7;stroke-width:1.5;"/>
    <path clip-path="url(#pd5d9c09845)" d="M 166.33822 142.886395 
L 166.33822 139.221746 
" style="fill:none;stroke:#c7c7c7;stroke-width:1.5;"/>
    <path clip-path="url(#pd5d9c09845)" d="M 168.409085 142.590747 
L 168.409085 138.341843 
" style="fill:none;stroke:#c7c7c7;stroke-width:1.5;"/>
    <path clip-path="url(#pd5d9c09845)" d="M 170.479951 144.81045 
L 170.479951 141.067619 
" style="fill:none;stroke:#c7c7c7;stroke-width:1.5;"/>
    <path clip-path="url(#pd5d9c09845)" d="M 172.550816 145.767484 
L 172.550816 142.543968 
" style="fill:none;stroke:#c7c7c7;stroke-width:1.5;"/>
    <path clip-path="url(#pd5d9c09845)" d="M 174.621681 141.579981 
L 174.621681 133.399902 
" style="fill:none;stroke:#c7c7c7;stroke-width:1.5;"/>
    <path clip-path="url(#pd5d9c09845)" d="M 176.692547 145.641217 
L 176.692547 141.962346 
" style="fill:none;stroke:#c7c7c7;stroke-width:1.5;"/>
    <path clip-path="url(#pd5d9c09845)" d="M 178.763412 144.62743 
L 178.763412 140.995472 
" style="fill:none;stroke:#c7c7c7;stroke-width:1.5;"/>
    <path clip-path="url(#pd5d9c09845)" d="M 180.834277 147.884747 
L 180.834277 143.292321 
" style="fill:none;stroke:#c7c7c7;stroke-width:1.5;"/>
    <path clip-path="url(#pd5d9c09845)" d="M 182.905142 147.668595 
L 182.905142 144.531105 
" style="fill:none;stroke:#c7c7c7;stroke-width:1.5;"/>
    <path clip-path="url(#pd5d9c09845)" d="M 184.976008 146.313585 
L 184.976008 141.813237 
" style="fill:none;stroke:#c7c7c7;stroke-width:1.5;"/>
    <path clip-path="url(#pd5d9c09845)" d="M 187.046873 146.187895 
L 187.046873 142.342127 
" style="fill:none;stroke:#c7c7c7;stroke-width:1.5;"/>
    <path clip-path="url(#pd5d9c09845)" d="M 189.117738 147.693594 
L 189.117738 144.15181 
" style="fill:none;stroke:#c7c7c7;stroke-width:1.5;"/>
    <path clip-path="url(#pd5d9c09845)" d="M 191.188604 148.059618 
L 191.188604 145.502931 
" style="fill:none;stroke:#c7c7c7;stroke-width:1.5;"/>
    <path clip-path="url(#pd5d9c09845)" d="M 193.259469 149.528484 
L 193.259469 145.106599 
" style="fill:none;stroke:#c7c7c7;stroke-width:1.5;"/>
    <path clip-path="url(#pd5d9c09845)" d="M 195.330334 151.124748 
L 195.330334 147.350239 
" style="fill:none;stroke:#c7c7c7;stroke-width:1.5;"/>
    <path clip-path="url(#pd5d9c09845)" d="M 197.401199 149.456089 
L 197.401199 145.832987 
" style="fill:none;stroke:#c7c7c7;stroke-width:1.5;"/>
    <path clip-path="url(#pd5d9c09845)" d="M 199.472065 152.784263 
L 199.472065 148.872256 
" style="fill:none;stroke:#c7c7c7;stroke-width:1.5;"/>
    <path clip-path="url(#pd5d9c09845)" d="M 201.54293 153.43051 
L 201.54293 149.311602 
" style="fill:none;stroke:#c7c7c7;stroke-width:1.5;"/>
    <path clip-path="url(#pd5d9c09845)" d="M 203.613795 154.000975 
L 203.613795 150.531258 
" style="fill:none;stroke:#c7c7c7;stroke-width:1.5;"/>
    <path clip-path="url(#pd5d9c09845)" d="M 205.68466 152.513395 
L 205.68466 148.073908 
" style="fill:none;stroke:#c7c7c7;stroke-width:1.5;"/>
    <path clip-path="url(#pd5d9c09845)" d="M 207.755526 152.674364 
L 207.755526 147.900462 
" style="fill:none;stroke:#c7c7c7;stroke-width:1.5;"/>
    <path clip-path="url(#pd5d9c09845)" d="M 209.826391 155.20114 
L 209.826391 151.733337 
" style="fill:none;stroke:#c7c7c7;stroke-width:1.5;"/>
    <path clip-path="url(#pd5d9c09845)" d="M 211.897256 154.044558 
L 211.897256 150.496075 
" style="fill:none;stroke:#c7c7c7;stroke-width:1.5;"/>
    <path clip-path="url(#pd5d9c09845)" d="M 213.968122 153.390547 
L 213.968122 149.671524 
" style="fill:none;stroke:#c7c7c7;stroke-width:1.5;"/>
    <path clip-path="url(#pd5d9c09845)" d="M 216.038987 156.223206 
L 216.038987 152.139316 
" style="fill:none;stroke:#c7c7c7;stroke-width:1.5;"/>
    <path clip-path="url(#pd5d9c09845)" d="M 218.109852 153.42302 
L 218.109852 149.086398 
" style="fill:none;stroke:#c7c7c7;stroke-width:1.5;"/>
    <path clip-path="url(#pd5d9c09845)" d="M 220.180717 155.628784 
L 220.180717 151.637795 
" style="fill:none;stroke:#c7c7c7;stroke-width:1.5;"/>
    <path clip-path="url(#pd5d9c09845)" d="M 222.251583 157.374949 
L 222.251583 153.557164 
" style="fill:none;stroke:#c7c7c7;stroke-width:1.5;"/>
    <path clip-path="url(#pd5d9c09845)" d="M 224.322448 157.82463 
L 224.322448 152.992809 
" style="fill:none;stroke:#c7c7c7;stroke-width:1.5;"/>
    <path clip-path="url(#pd5d9c09845)" d="M 226.393313 157.289241 
L 226.393313 153.476664 
" style="fill:none;stroke:#c7c7c7;stroke-width:1.5;"/>
   </g>
   <g id="LineCollection_2">
    <path clip-path="url(#pd5d9c09845)" d="M 60.724091 65.791351 
L 60.724091 63.406903 
" style="fill:none;stroke:#98df8a;stroke-width:1.5;"/>
    <path clip-path="url(#pd5d9c09845)" d="M 62.794956 105.07137 
L 62.794956 102.613948 
" style="fill:none;stroke:#98df8a;stroke-width:1.5;"/>
    <path clip-path="url(#pd5d9c09845)" d="M 64.865821 122.368735 
L 64.865821 117.742065 
" style="fill:none;stroke:#98df8a;stroke-width:1.5;"/>
    <path clip-path="url(#pd5d9c09845)" d="M 66.936687 130.722413 
L 66.936687 128.937177 
" style="fill:none;stroke:#98df8a;stroke-width:1.5;"/>
    <path clip-path="url(#pd5d9c09845)" d="M 69.007552 144.211609 
L 69.007552 142.131213 
" style="fill:none;stroke:#98df8a;stroke-width:1.5;"/>
    <path clip-path="url(#pd5d9c09845)" d="M 71.078417 148.240099 
L 71.078417 144.820281 
" style="fill:none;stroke:#98df8a;stroke-width:1.5;"/>
    <path clip-path="url(#pd5d9c09845)" d="M 73.149283 160.176374 
L 73.149283 156.841022 
" style="fill:none;stroke:#98df8a;stroke-width:1.5;"/>
    <path clip-path="url(#pd5d9c09845)" d="M 75.220148 162.566986 
L 75.220148 159.304292 
" style="fill:none;stroke:#98df8a;stroke-width:1.5;"/>
    <path clip-path="url(#pd5d9c09845)" d="M 77.291013 169.43477 
L 77.291013 165.687564 
" style="fill:none;stroke:#98df8a;stroke-width:1.5;"/>
    <path clip-path="url(#pd5d9c09845)" d="M 79.361878 175.132626 
L 79.361878 173.886986 
" style="fill:none;stroke:#98df8a;stroke-width:1.5;"/>
    <path clip-path="url(#pd5d9c09845)" d="M 81.432744 168.916473 
L 81.432744 165.712689 
" style="fill:none;stroke:#98df8a;stroke-width:1.5;"/>
    <path clip-path="url(#pd5d9c09845)" d="M 83.503609 180.381958 
L 83.503609 177.822887 
" style="fill:none;stroke:#98df8a;stroke-width:1.5;"/>
    <path clip-path="url(#pd5d9c09845)" d="M 85.574474 186.54492 
L 85.574474 184.211874 
" style="fill:none;stroke:#98df8a;stroke-width:1.5;"/>
    <path clip-path="url(#pd5d9c09845)" d="M 87.64534 186.311354 
L 87.64534 183.866406 
" style="fill:none;stroke:#98df8a;stroke-width:1.5;"/>
    <path clip-path="url(#pd5d9c09845)" d="M 89.716205 191.838155 
L 89.716205 188.89513 
" style="fill:none;stroke:#98df8a;stroke-width:1.5;"/>
    <path clip-path="url(#pd5d9c09845)" d="M 91.78707 193.227767 
L 91.78707 190.5356 
" style="fill:none;stroke:#98df8a;stroke-width:1.5;"/>
    <path clip-path="url(#pd5d9c09845)" d="M 93.857935 195.690022 
L 93.857935 192.824715 
" style="fill:none;stroke:#98df8a;stroke-width:1.5;"/>
    <path clip-path="url(#pd5d9c09845)" d="M 95.928801 197.899714 
L 95.928801 196.041424 
" style="fill:none;stroke:#98df8a;stroke-width:1.5;"/>
    <path clip-path="url(#pd5d9c09845)" d="M 97.999666 200.578575 
L 97.999666 198.434217 
" style="fill:none;stroke:#98df8a;stroke-width:1.5;"/>
    <path clip-path="url(#pd5d9c09845)" d="M 100.070531 200.577079 
L 100.070531 198.043784 
" style="fill:none;stroke:#98df8a;stroke-width:1.5;"/>
    <path clip-path="url(#pd5d9c09845)" d="M 102.141396 204.89521 
L 102.141396 202.743829 
" style="fill:none;stroke:#98df8a;stroke-width:1.5;"/>
    <path clip-path="url(#pd5d9c09845)" d="M 104.212262 205.316206 
L 104.212262 202.876598 
" style="fill:none;stroke:#98df8a;stroke-width:1.5;"/>
    <path clip-path="url(#pd5d9c09845)" d="M 106.283127 206.527665 
L 106.283127 203.306647 
" style="fill:none;stroke:#98df8a;stroke-width:1.5;"/>
    <path clip-path="url(#pd5d9c09845)" d="M 108.353992 211.509318 
L 108.353992 209.484269 
" style="fill:none;stroke:#98df8a;stroke-width:1.5;"/>
    <path clip-path="url(#pd5d9c09845)" d="M 110.424858 212.309857 
L 110.424858 210.744539 
" style="fill:none;stroke:#98df8a;stroke-width:1.5;"/>
    <path clip-path="url(#pd5d9c09845)" d="M 112.495723 212.08341 
L 112.495723 210.165094 
" style="fill:none;stroke:#98df8a;stroke-width:1.5;"/>
    <path clip-path="url(#pd5d9c09845)" d="M 114.566588 215.984004 
L 114.566588 213.180805 
" style="fill:none;stroke:#98df8a;stroke-width:1.5;"/>
    <path clip-path="url(#pd5d9c09845)" d="M 116.637453 216.026324 
L 116.637453 214.351107 
" style="fill:none;stroke:#98df8a;stroke-width:1.5;"/>
    <path clip-path="url(#pd5d9c09845)" d="M 118.708319 218.001715 
L 118.708319 216.310025 
" style="fill:none;stroke:#98df8a;stroke-width:1.5;"/>
    <path clip-path="url(#pd5d9c09845)" d="M 120.779184 217.328506 
L 120.779184 214.914191 
" style="fill:none;stroke:#98df8a;stroke-width:1.5;"/>
    <path clip-path="url(#pd5d9c09845)" d="M 122.850049 219.416338 
L 122.850049 216.594133 
" style="fill:none;stroke:#98df8a;stroke-width:1.5;"/>
    <path clip-path="url(#pd5d9c09845)" d="M 124.920915 221.852934 
L 124.920915 219.981794 
" style="fill:none;stroke:#98df8a;stroke-width:1.5;"/>
    <path clip-path="url(#pd5d9c09845)" d="M 126.99178 223.30739 
L 126.99178 221.523788 
" style="fill:none;stroke:#98df8a;stroke-width:1.5;"/>
    <path clip-path="url(#pd5d9c09845)" d="M 129.062645 222.507738 
L 129.062645 220.261609 
" style="fill:none;stroke:#98df8a;stroke-width:1.5;"/>
    <path clip-path="url(#pd5d9c09845)" d="M 131.13351 222.185486 
L 131.13351 219.944025 
" style="fill:none;stroke:#98df8a;stroke-width:1.5;"/>
    <path clip-path="url(#pd5d9c09845)" d="M 133.204376 223.844265 
L 133.204376 221.599956 
" style="fill:none;stroke:#98df8a;stroke-width:1.5;"/>
    <path clip-path="url(#pd5d9c09845)" d="M 135.275241 222.24964 
L 135.275241 218.296102 
" style="fill:none;stroke:#98df8a;stroke-width:1.5;"/>
    <path clip-path="url(#pd5d9c09845)" d="M 137.346106 221.466198 
L 137.346106 220.300403 
" style="fill:none;stroke:#98df8a;stroke-width:1.5;"/>
    <path clip-path="url(#pd5d9c09845)" d="M 139.416972 224.942467 
L 139.416972 222.405773 
" style="fill:none;stroke:#98df8a;stroke-width:1.5;"/>
    <path clip-path="url(#pd5d9c09845)" d="M 141.487837 226.147123 
L 141.487837 223.326085 
" style="fill:none;stroke:#98df8a;stroke-width:1.5;"/>
    <path clip-path="url(#pd5d9c09845)" d="M 143.558702 226.752595 
L 143.558702 225.070386 
" style="fill:none;stroke:#98df8a;stroke-width:1.5;"/>
    <path clip-path="url(#pd5d9c09845)" d="M 145.629567 227.057096 
L 145.629567 224.591842 
" style="fill:none;stroke:#98df8a;stroke-width:1.5;"/>
    <path clip-path="url(#pd5d9c09845)" d="M 147.700433 226.515025 
L 147.700433 224.864836 
" style="fill:none;stroke:#98df8a;stroke-width:1.5;"/>
    <path clip-path="url(#pd5d9c09845)" d="M 149.771298 224.572584 
L 149.771298 220.786058 
" style="fill:none;stroke:#98df8a;stroke-width:1.5;"/>
    <path clip-path="url(#pd5d9c09845)" d="M 151.842163 226.919939 
L 151.842163 224.23961 
" style="fill:none;stroke:#98df8a;stroke-width:1.5;"/>
    <path clip-path="url(#pd5d9c09845)" d="M 153.913028 228.638542 
L 153.913028 227.018007 
" style="fill:none;stroke:#98df8a;stroke-width:1.5;"/>
    <path clip-path="url(#pd5d9c09845)" d="M 155.983894 226.393511 
L 155.983894 224.048984 
" style="fill:none;stroke:#98df8a;stroke-width:1.5;"/>
    <path clip-path="url(#pd5d9c09845)" d="M 158.054759 227.67892 
L 158.054759 224.562933 
" style="fill:none;stroke:#98df8a;stroke-width:1.5;"/>
    <path clip-path="url(#pd5d9c09845)" d="M 160.125624 227.773197 
L 160.125624 224.818579 
" style="fill:none;stroke:#98df8a;stroke-width:1.5;"/>
    <path clip-path="url(#pd5d9c09845)" d="M 162.19649 227.854848 
L 162.19649 225.038542 
" style="fill:none;stroke:#98df8a;stroke-width:1.5;"/>
    <path clip-path="url(#pd5d9c09845)" d="M 164.267355 228.915279 
L 164.267355 226.927679 
" style="fill:none;stroke:#98df8a;stroke-width:1.5;"/>
    <path clip-path="url(#pd5d9c09845)" d="M 166.33822 227.940438 
L 166.33822 224.805604 
" style="fill:none;stroke:#98df8a;stroke-width:1.5;"/>
    <path clip-path="url(#pd5d9c09845)" d="M 168.409085 226.362088 
L 168.409085 223.164121 
" style="fill:none;stroke:#98df8a;stroke-width:1.5;"/>
    <path clip-path="url(#pd5d9c09845)" d="M 170.479951 227.524457 
L 170.479951 223.586839 
" style="fill:none;stroke:#98df8a;stroke-width:1.5;"/>
    <path clip-path="url(#pd5d9c09845)" d="M 172.550816 226.980669 
L 172.550816 223.515558 
" style="fill:none;stroke:#98df8a;stroke-width:1.5;"/>
    <path clip-path="url(#pd5d9c09845)" d="M 174.621681 228.304912 
L 174.621681 225.910639 
" style="fill:none;stroke:#98df8a;stroke-width:1.5;"/>
    <path clip-path="url(#pd5d9c09845)" d="M 176.692547 226.896998 
L 176.692547 224.537955 
" style="fill:none;stroke:#98df8a;stroke-width:1.5;"/>
    <path clip-path="url(#pd5d9c09845)" d="M 178.763412 227.716407 
L 178.763412 224.144118 
" style="fill:none;stroke:#98df8a;stroke-width:1.5;"/>
    <path clip-path="url(#pd5d9c09845)" d="M 180.834277 226.581968 
L 180.834277 224.253008 
" style="fill:none;stroke:#98df8a;stroke-width:1.5;"/>
    <path clip-path="url(#pd5d9c09845)" d="M 182.905142 226.917836 
L 182.905142 224.126021 
" style="fill:none;stroke:#98df8a;stroke-width:1.5;"/>
    <path clip-path="url(#pd5d9c09845)" d="M 184.976008 227.551441 
L 184.976008 224.705432 
" style="fill:none;stroke:#98df8a;stroke-width:1.5;"/>
    <path clip-path="url(#pd5d9c09845)" d="M 187.046873 226.787066 
L 187.046873 222.954767 
" style="fill:none;stroke:#98df8a;stroke-width:1.5;"/>
    <path clip-path="url(#pd5d9c09845)" d="M 189.117738 224.509652 
L 189.117738 222.592382 
" style="fill:none;stroke:#98df8a;stroke-width:1.5;"/>
    <path clip-path="url(#pd5d9c09845)" d="M 191.188604 225.226114 
L 191.188604 223.488561 
" style="fill:none;stroke:#98df8a;stroke-width:1.5;"/>
    <path clip-path="url(#pd5d9c09845)" d="M 193.259469 225.056575 
L 193.259469 222.260708 
" style="fill:none;stroke:#98df8a;stroke-width:1.5;"/>
    <path clip-path="url(#pd5d9c09845)" d="M 195.330334 226.495575 
L 195.330334 223.819678 
" style="fill:none;stroke:#98df8a;stroke-width:1.5;"/>
    <path clip-path="url(#pd5d9c09845)" d="M 197.401199 224.596803 
L 197.401199 222.172975 
" style="fill:none;stroke:#98df8a;stroke-width:1.5;"/>
    <path clip-path="url(#pd5d9c09845)" d="M 199.472065 224.039454 
L 199.472065 222.059027 
" style="fill:none;stroke:#98df8a;stroke-width:1.5;"/>
    <path clip-path="url(#pd5d9c09845)" d="M 201.54293 224.000455 
L 201.54293 222.10797 
" style="fill:none;stroke:#98df8a;stroke-width:1.5;"/>
    <path clip-path="url(#pd5d9c09845)" d="M 203.613795 222.948551 
L 203.613795 219.52715 
" style="fill:none;stroke:#98df8a;stroke-width:1.5;"/>
    <path clip-path="url(#pd5d9c09845)" d="M 205.68466 223.516321 
L 205.68466 220.795233 
" style="fill:none;stroke:#98df8a;stroke-width:1.5;"/>
    <path clip-path="url(#pd5d9c09845)" d="M 207.755526 221.702538 
L 207.755526 218.746457 
" style="fill:none;stroke:#98df8a;stroke-width:1.5;"/>
    <path clip-path="url(#pd5d9c09845)" d="M 209.826391 218.971589 
L 209.826391 215.355796 
" style="fill:none;stroke:#98df8a;stroke-width:1.5;"/>
    <path clip-path="url(#pd5d9c09845)" d="M 211.897256 220.033916 
L 211.897256 216.734899 
" style="fill:none;stroke:#98df8a;stroke-width:1.5;"/>
    <path clip-path="url(#pd5d9c09845)" d="M 213.968122 220.349996 
L 213.968122 218.685012 
" style="fill:none;stroke:#98df8a;stroke-width:1.5;"/>
    <path clip-path="url(#pd5d9c09845)" d="M 216.038987 219.010536 
L 216.038987 216.448754 
" style="fill:none;stroke:#98df8a;stroke-width:1.5;"/>
    <path clip-path="url(#pd5d9c09845)" d="M 218.109852 217.939726 
L 218.109852 214.918738 
" style="fill:none;stroke:#98df8a;stroke-width:1.5;"/>
    <path clip-path="url(#pd5d9c09845)" d="M 220.180717 216.851646 
L 220.180717 214.391875 
" style="fill:none;stroke:#98df8a;stroke-width:1.5;"/>
    <path clip-path="url(#pd5d9c09845)" d="M 222.251583 215.46724 
L 222.251583 212.74256 
" style="fill:none;stroke:#98df8a;stroke-width:1.5;"/>
    <path clip-path="url(#pd5d9c09845)" d="M 224.322448 217.624614 
L 224.322448 213.960347 
" style="fill:none;stroke:#98df8a;stroke-width:1.5;"/>
    <path clip-path="url(#pd5d9c09845)" d="M 226.393313 218.632705 
L 226.393313 216.721035 
" style="fill:none;stroke:#98df8a;stroke-width:1.5;"/>
    <path clip-path="url(#pd5d9c09845)" d="M 228.464179 216.57231 
L 228.464179 213.548736 
" style="fill:none;stroke:#98df8a;stroke-width:1.5;"/>
    <path clip-path="url(#pd5d9c09845)" d="M 230.535044 215.064664 
L 230.535044 211.167502 
" style="fill:none;stroke:#98df8a;stroke-width:1.5;"/>
    <path clip-path="url(#pd5d9c09845)" d="M 232.605909 216.952822 
L 232.605909 214.015218 
" style="fill:none;stroke:#98df8a;stroke-width:1.5;"/>
   </g>
   <g id="LineCollection_3">
    <path clip-path="url(#pd5d9c09845)" d="M 60.724091 63.219653 
L 60.724091 62.291517 
" style="fill:none;stroke:#ff9896;stroke-width:1.5;"/>
    <path clip-path="url(#pd5d9c09845)" d="M 62.794956 94.533124 
L 62.794956 91.044397 
" style="fill:none;stroke:#ff9896;stroke-width:1.5;"/>
    <path clip-path="url(#pd5d9c09845)" d="M 64.865821 112.409416 
L 64.865821 107.422518 
" style="fill:none;stroke:#ff9896;stroke-width:1.5;"/>
    <path clip-path="url(#pd5d9c09845)" d="M 66.936687 131.811959 
L 66.936687 125.639331 
" style="fill:none;stroke:#ff9896;stroke-width:1.5;"/>
    <path clip-path="url(#pd5d9c09845)" d="M 69.007552 141.024808 
L 69.007552 137.864816 
" style="fill:none;stroke:#ff9896;stroke-width:1.5;"/>
    <path clip-path="url(#pd5d9c09845)" d="M 71.078417 148.615259 
L 71.078417 145.384142 
" style="fill:none;stroke:#ff9896;stroke-width:1.5;"/>
    <path clip-path="url(#pd5d9c09845)" d="M 73.149283 162.38232 
L 73.149283 160.232586 
" style="fill:none;stroke:#ff9896;stroke-width:1.5;"/>
    <path clip-path="url(#pd5d9c09845)" d="M 75.220148 164.764352 
L 75.220148 161.200724 
" style="fill:none;stroke:#ff9896;stroke-width:1.5;"/>
    <path clip-path="url(#pd5d9c09845)" d="M 77.291013 172.460045 
L 77.291013 169.214869 
" style="fill:none;stroke:#ff9896;stroke-width:1.5;"/>
    <path clip-path="url(#pd5d9c09845)" d="M 79.361878 176.677284 
L 79.361878 173.701512 
" style="fill:none;stroke:#ff9896;stroke-width:1.5;"/>
    <path clip-path="url(#pd5d9c09845)" d="M 81.432744 179.11469 
L 81.432744 176.093826 
" style="fill:none;stroke:#ff9896;stroke-width:1.5;"/>
    <path clip-path="url(#pd5d9c09845)" d="M 83.503609 184.039384 
L 83.503609 180.365519 
" style="fill:none;stroke:#ff9896;stroke-width:1.5;"/>
    <path clip-path="url(#pd5d9c09845)" d="M 85.574474 190.961992 
L 85.574474 188.646242 
" style="fill:none;stroke:#ff9896;stroke-width:1.5;"/>
    <path clip-path="url(#pd5d9c09845)" d="M 87.64534 192.982793 
L 87.64534 187.45412 
" style="fill:none;stroke:#ff9896;stroke-width:1.5;"/>
    <path clip-path="url(#pd5d9c09845)" d="M 89.716205 194.784085 
L 89.716205 190.62992 
" style="fill:none;stroke:#ff9896;stroke-width:1.5;"/>
    <path clip-path="url(#pd5d9c09845)" d="M 91.78707 199.404772 
L 91.78707 195.700424 
" style="fill:none;stroke:#ff9896;stroke-width:1.5;"/>
    <path clip-path="url(#pd5d9c09845)" d="M 93.857935 203.517252 
L 93.857935 200.67361 
" style="fill:none;stroke:#ff9896;stroke-width:1.5;"/>
    <path clip-path="url(#pd5d9c09845)" d="M 95.928801 201.98436 
L 95.928801 199.309695 
" style="fill:none;stroke:#ff9896;stroke-width:1.5;"/>
    <path clip-path="url(#pd5d9c09845)" d="M 97.999666 205.242474 
L 97.999666 202.040663 
" style="fill:none;stroke:#ff9896;stroke-width:1.5;"/>
    <path clip-path="url(#pd5d9c09845)" d="M 100.070531 208.921654 
L 100.070531 204.298813 
" style="fill:none;stroke:#ff9896;stroke-width:1.5;"/>
    <path clip-path="url(#pd5d9c09845)" d="M 102.141396 210.639693 
L 102.141396 207.77178 
" style="fill:none;stroke:#ff9896;stroke-width:1.5;"/>
    <path clip-path="url(#pd5d9c09845)" d="M 104.212262 212.521451 
L 104.212262 210.29953 
" style="fill:none;stroke:#ff9896;stroke-width:1.5;"/>
    <path clip-path="url(#pd5d9c09845)" d="M 106.283127 213.79624 
L 106.283127 211.767318 
" style="fill:none;stroke:#ff9896;stroke-width:1.5;"/>
    <path clip-path="url(#pd5d9c09845)" d="M 108.353992 214.664148 
L 108.353992 212.076839 
" style="fill:none;stroke:#ff9896;stroke-width:1.5;"/>
    <path clip-path="url(#pd5d9c09845)" d="M 110.424858 213.516611 
L 110.424858 209.731637 
" style="fill:none;stroke:#ff9896;stroke-width:1.5;"/>
    <path clip-path="url(#pd5d9c09845)" d="M 112.495723 218.248025 
L 112.495723 214.357434 
" style="fill:none;stroke:#ff9896;stroke-width:1.5;"/>
    <path clip-path="url(#pd5d9c09845)" d="M 114.566588 218.576642 
L 114.566588 216.683529 
" style="fill:none;stroke:#ff9896;stroke-width:1.5;"/>
    <path clip-path="url(#pd5d9c09845)" d="M 116.637453 217.768812 
L 116.637453 214.031242 
" style="fill:none;stroke:#ff9896;stroke-width:1.5;"/>
    <path clip-path="url(#pd5d9c09845)" d="M 118.708319 220.265827 
L 118.708319 217.041137 
" style="fill:none;stroke:#ff9896;stroke-width:1.5;"/>
    <path clip-path="url(#pd5d9c09845)" d="M 120.779184 222.955914 
L 120.779184 221.010706 
" style="fill:none;stroke:#ff9896;stroke-width:1.5;"/>
    <path clip-path="url(#pd5d9c09845)" d="M 122.850049 222.157145 
L 122.850049 220.046188 
" style="fill:none;stroke:#ff9896;stroke-width:1.5;"/>
    <path clip-path="url(#pd5d9c09845)" d="M 124.920915 222.855978 
L 124.920915 220.627035 
" style="fill:none;stroke:#ff9896;stroke-width:1.5;"/>
    <path clip-path="url(#pd5d9c09845)" d="M 126.99178 224.986507 
L 126.99178 222.400091 
" style="fill:none;stroke:#ff9896;stroke-width:1.5;"/>
    <path clip-path="url(#pd5d9c09845)" d="M 129.062645 223.499296 
L 129.062645 220.315838 
" style="fill:none;stroke:#ff9896;stroke-width:1.5;"/>
    <path clip-path="url(#pd5d9c09845)" d="M 131.13351 222.529417 
L 131.13351 217.896865 
" style="fill:none;stroke:#ff9896;stroke-width:1.5;"/>
    <path clip-path="url(#pd5d9c09845)" d="M 133.204376 226.263334 
L 133.204376 223.286589 
" style="fill:none;stroke:#ff9896;stroke-width:1.5;"/>
    <path clip-path="url(#pd5d9c09845)" d="M 135.275241 223.64056 
L 135.275241 220.565008 
" style="fill:none;stroke:#ff9896;stroke-width:1.5;"/>
    <path clip-path="url(#pd5d9c09845)" d="M 137.346106 225.594513 
L 137.346106 222.823026 
" style="fill:none;stroke:#ff9896;stroke-width:1.5;"/>
    <path clip-path="url(#pd5d9c09845)" d="M 139.416972 222.551279 
L 139.416972 219.38972 
" style="fill:none;stroke:#ff9896;stroke-width:1.5;"/>
    <path clip-path="url(#pd5d9c09845)" d="M 141.487837 224.77309 
L 141.487837 222.202881 
" style="fill:none;stroke:#ff9896;stroke-width:1.5;"/>
    <path clip-path="url(#pd5d9c09845)" d="M 143.558702 224.691026 
L 143.558702 222.68269 
" style="fill:none;stroke:#ff9896;stroke-width:1.5;"/>
    <path clip-path="url(#pd5d9c09845)" d="M 145.629567 227.22994 
L 145.629567 224.326796 
" style="fill:none;stroke:#ff9896;stroke-width:1.5;"/>
    <path clip-path="url(#pd5d9c09845)" d="M 147.700433 225.60113 
L 147.700433 219.900981 
" style="fill:none;stroke:#ff9896;stroke-width:1.5;"/>
    <path clip-path="url(#pd5d9c09845)" d="M 149.771298 226.845947 
L 149.771298 223.569403 
" style="fill:none;stroke:#ff9896;stroke-width:1.5;"/>
    <path clip-path="url(#pd5d9c09845)" d="M 151.842163 222.731203 
L 151.842163 218.532808 
" style="fill:none;stroke:#ff9896;stroke-width:1.5;"/>
    <path clip-path="url(#pd5d9c09845)" d="M 153.913028 226.828399 
L 153.913028 223.644303 
" style="fill:none;stroke:#ff9896;stroke-width:1.5;"/>
    <path clip-path="url(#pd5d9c09845)" d="M 155.983894 226.961752 
L 155.983894 224.397444 
" style="fill:none;stroke:#ff9896;stroke-width:1.5;"/>
    <path clip-path="url(#pd5d9c09845)" d="M 158.054759 223.856515 
L 158.054759 221.152377 
" style="fill:none;stroke:#ff9896;stroke-width:1.5;"/>
    <path clip-path="url(#pd5d9c09845)" d="M 160.125624 227.15802 
L 160.125624 224.776819 
" style="fill:none;stroke:#ff9896;stroke-width:1.5;"/>
    <path clip-path="url(#pd5d9c09845)" d="M 162.19649 226.146419 
L 162.19649 221.879852 
" style="fill:none;stroke:#ff9896;stroke-width:1.5;"/>
    <path clip-path="url(#pd5d9c09845)" d="M 164.267355 224.401498 
L 164.267355 220.886021 
" style="fill:none;stroke:#ff9896;stroke-width:1.5;"/>
    <path clip-path="url(#pd5d9c09845)" d="M 166.33822 225.214149 
L 166.33822 221.52205 
" style="fill:none;stroke:#ff9896;stroke-width:1.5;"/>
    <path clip-path="url(#pd5d9c09845)" d="M 168.409085 224.669278 
L 168.409085 221.396387 
" style="fill:none;stroke:#ff9896;stroke-width:1.5;"/>
    <path clip-path="url(#pd5d9c09845)" d="M 170.479951 223.203525 
L 170.479951 219.334095 
" style="fill:none;stroke:#ff9896;stroke-width:1.5;"/>
    <path clip-path="url(#pd5d9c09845)" d="M 172.550816 220.324264 
L 172.550816 214.722336 
" style="fill:none;stroke:#ff9896;stroke-width:1.5;"/>
    <path clip-path="url(#pd5d9c09845)" d="M 174.621681 226.240766 
L 174.621681 224.113801 
" style="fill:none;stroke:#ff9896;stroke-width:1.5;"/>
    <path clip-path="url(#pd5d9c09845)" d="M 176.692547 225.40244 
L 176.692547 220.931874 
" style="fill:none;stroke:#ff9896;stroke-width:1.5;"/>
    <path clip-path="url(#pd5d9c09845)" d="M 178.763412 225.454131 
L 178.763412 221.467716 
" style="fill:none;stroke:#ff9896;stroke-width:1.5;"/>
    <path clip-path="url(#pd5d9c09845)" d="M 180.834277 225.325851 
L 180.834277 221.548901 
" style="fill:none;stroke:#ff9896;stroke-width:1.5;"/>
    <path clip-path="url(#pd5d9c09845)" d="M 182.905142 223.336658 
L 182.905142 219.897209 
" style="fill:none;stroke:#ff9896;stroke-width:1.5;"/>
    <path clip-path="url(#pd5d9c09845)" d="M 184.976008 223.64782 
L 184.976008 220.427904 
" style="fill:none;stroke:#ff9896;stroke-width:1.5;"/>
    <path clip-path="url(#pd5d9c09845)" d="M 187.046873 223.662965 
L 187.046873 220.460068 
" style="fill:none;stroke:#ff9896;stroke-width:1.5;"/>
    <path clip-path="url(#pd5d9c09845)" d="M 189.117738 223.024541 
L 189.117738 220.486545 
" style="fill:none;stroke:#ff9896;stroke-width:1.5;"/>
    <path clip-path="url(#pd5d9c09845)" d="M 191.188604 222.990048 
L 191.188604 221.301294 
" style="fill:none;stroke:#ff9896;stroke-width:1.5;"/>
    <path clip-path="url(#pd5d9c09845)" d="M 193.259469 220.93144 
L 193.259469 217.983028 
" style="fill:none;stroke:#ff9896;stroke-width:1.5;"/>
    <path clip-path="url(#pd5d9c09845)" d="M 195.330334 218.162819 
L 195.330334 215.642587 
" style="fill:none;stroke:#ff9896;stroke-width:1.5;"/>
    <path clip-path="url(#pd5d9c09845)" d="M 197.401199 217.81456 
L 197.401199 214.140774 
" style="fill:none;stroke:#ff9896;stroke-width:1.5;"/>
    <path clip-path="url(#pd5d9c09845)" d="M 199.472065 217.924331 
L 199.472065 214.817108 
" style="fill:none;stroke:#ff9896;stroke-width:1.5;"/>
    <path clip-path="url(#pd5d9c09845)" d="M 201.54293 216.396127 
L 201.54293 212.042538 
" style="fill:none;stroke:#ff9896;stroke-width:1.5;"/>
    <path clip-path="url(#pd5d9c09845)" d="M 203.613795 217.678835 
L 203.613795 214.935729 
" style="fill:none;stroke:#ff9896;stroke-width:1.5;"/>
    <path clip-path="url(#pd5d9c09845)" d="M 205.68466 216.040309 
L 205.68466 212.940816 
" style="fill:none;stroke:#ff9896;stroke-width:1.5;"/>
    <path clip-path="url(#pd5d9c09845)" d="M 207.755526 213.053026 
L 207.755526 208.979568 
" style="fill:none;stroke:#ff9896;stroke-width:1.5;"/>
    <path clip-path="url(#pd5d9c09845)" d="M 209.826391 214.732835 
L 209.826391 211.805779 
" style="fill:none;stroke:#ff9896;stroke-width:1.5;"/>
    <path clip-path="url(#pd5d9c09845)" d="M 211.897256 213.377241 
L 211.897256 210.420106 
" style="fill:none;stroke:#ff9896;stroke-width:1.5;"/>
    <path clip-path="url(#pd5d9c09845)" d="M 213.968122 213.339319 
L 213.968122 210.443404 
" style="fill:none;stroke:#ff9896;stroke-width:1.5;"/>
    <path clip-path="url(#pd5d9c09845)" d="M 216.038987 212.330812 
L 216.038987 209.750423 
" style="fill:none;stroke:#ff9896;stroke-width:1.5;"/>
    <path clip-path="url(#pd5d9c09845)" d="M 218.109852 213.488347 
L 218.109852 209.44417 
" style="fill:none;stroke:#ff9896;stroke-width:1.5;"/>
    <path clip-path="url(#pd5d9c09845)" d="M 220.180717 215.199095 
L 220.180717 210.648874 
" style="fill:none;stroke:#ff9896;stroke-width:1.5;"/>
    <path clip-path="url(#pd5d9c09845)" d="M 222.251583 215.424533 
L 222.251583 212.519285 
" style="fill:none;stroke:#ff9896;stroke-width:1.5;"/>
    <path clip-path="url(#pd5d9c09845)" d="M 224.322448 213.739398 
L 224.322448 210.426855 
" style="fill:none;stroke:#ff9896;stroke-width:1.5;"/>
   </g>
   <g id="LineCollection_4">
    <path clip-path="url(#pd5d9c09845)" d="M 60.724091 109.520904 
L 60.724091 109.520904 
" style="fill:none;stroke:#aec7e8;stroke-width:1.5;"/>
    <path clip-path="url(#pd5d9c09845)" d="M 62.794956 147.093558 
L 62.794956 147.093558 
" style="fill:none;stroke:#aec7e8;stroke-width:1.5;"/>
    <path clip-path="url(#pd5d9c09845)" d="M 64.865821 171.710919 
L 64.865821 171.710919 
" style="fill:none;stroke:#aec7e8;stroke-width:1.5;"/>
    <path clip-path="url(#pd5d9c09845)" d="M 66.936687 183.979283 
L 66.936687 183.979283 
" style="fill:none;stroke:#aec7e8;stroke-width:1.5;"/>
    <path clip-path="url(#pd5d9c09845)" d="M 69.007552 194.974043 
L 69.007552 194.974043 
" style="fill:none;stroke:#aec7e8;stroke-width:1.5;"/>
    <path clip-path="url(#pd5d9c09845)" d="M 71.078417 199.825436 
L 71.078417 199.825436 
" style="fill:none;stroke:#aec7e8;stroke-width:1.5;"/>
    <path clip-path="url(#pd5d9c09845)" d="M 73.149283 206.36662 
L 73.149283 206.36662 
" style="fill:none;stroke:#aec7e8;stroke-width:1.5;"/>
    <path clip-path="url(#pd5d9c09845)" d="M 75.220148 211.839606 
L 75.220148 211.839606 
" style="fill:none;stroke:#aec7e8;stroke-width:1.5;"/>
    <path clip-path="url(#pd5d9c09845)" d="M 77.291013 216.514183 
L 77.291013 216.514183 
" style="fill:none;stroke:#aec7e8;stroke-width:1.5;"/>
    <path clip-path="url(#pd5d9c09845)" d="M 79.361878 220.011665 
L 79.361878 220.011665 
" style="fill:none;stroke:#aec7e8;stroke-width:1.5;"/>
    <path clip-path="url(#pd5d9c09845)" d="M 81.432744 220.968846 
L 81.432744 220.968846 
" style="fill:none;stroke:#aec7e8;stroke-width:1.5;"/>
    <path clip-path="url(#pd5d9c09845)" d="M 83.503609 226.560598 
L 83.503609 226.560598 
" style="fill:none;stroke:#aec7e8;stroke-width:1.5;"/>
    <path clip-path="url(#pd5d9c09845)" d="M 85.574474 226.319517 
L 85.574474 226.319517 
" style="fill:none;stroke:#aec7e8;stroke-width:1.5;"/>
    <path clip-path="url(#pd5d9c09845)" d="M 87.64534 229.73255 
L 87.64534 229.73255 
" style="fill:none;stroke:#aec7e8;stroke-width:1.5;"/>
    <path clip-path="url(#pd5d9c09845)" d="M 89.716205 229.886318 
L 89.716205 229.886318 
" style="fill:none;stroke:#aec7e8;stroke-width:1.5;"/>
    <path clip-path="url(#pd5d9c09845)" d="M 91.78707 231.954545 
L 91.78707 231.954545 
" style="fill:none;stroke:#aec7e8;stroke-width:1.5;"/>
    <path clip-path="url(#pd5d9c09845)" d="M 93.857935 229.601133 
L 93.857935 229.601133 
" style="fill:none;stroke:#aec7e8;stroke-width:1.5;"/>
    <path clip-path="url(#pd5d9c09845)" d="M 95.928801 230.158893 
L 95.928801 230.158893 
" style="fill:none;stroke:#aec7e8;stroke-width:1.5;"/>
    <path clip-path="url(#pd5d9c09845)" d="M 97.999666 228.827195 
L 97.999666 228.827195 
" style="fill:none;stroke:#aec7e8;stroke-width:1.5;"/>
    <path clip-path="url(#pd5d9c09845)" d="M 100.070531 230.313832 
L 100.070531 230.313832 
" style="fill:none;stroke:#aec7e8;stroke-width:1.5;"/>
    <path clip-path="url(#pd5d9c09845)" d="M 102.141396 229.948391 
L 102.141396 229.948391 
" style="fill:none;stroke:#aec7e8;stroke-width:1.5;"/>
    <path clip-path="url(#pd5d9c09845)" d="M 104.212262 229.453754 
L 104.212262 229.453754 
" style="fill:none;stroke:#aec7e8;stroke-width:1.5;"/>
    <path clip-path="url(#pd5d9c09845)" d="M 106.283127 226.303295 
L 106.283127 226.303295 
" style="fill:none;stroke:#aec7e8;stroke-width:1.5;"/>
    <path clip-path="url(#pd5d9c09845)" d="M 108.353992 220.844643 
L 108.353992 220.844643 
" style="fill:none;stroke:#aec7e8;stroke-width:1.5;"/>
    <path clip-path="url(#pd5d9c09845)" d="M 110.424858 224.10657 
L 110.424858 224.10657 
" style="fill:none;stroke:#aec7e8;stroke-width:1.5;"/>
    <path clip-path="url(#pd5d9c09845)" d="M 112.495723 217.900118 
L 112.495723 217.900118 
" style="fill:none;stroke:#aec7e8;stroke-width:1.5;"/>
    <path clip-path="url(#pd5d9c09845)" d="M 114.566588 216.103916 
L 114.566588 216.103916 
" style="fill:none;stroke:#aec7e8;stroke-width:1.5;"/>
    <path clip-path="url(#pd5d9c09845)" d="M 116.637453 214.129175 
L 116.637453 214.129175 
" style="fill:none;stroke:#aec7e8;stroke-width:1.5;"/>
    <path clip-path="url(#pd5d9c09845)" d="M 118.708319 218.044335 
L 118.708319 218.044335 
" style="fill:none;stroke:#aec7e8;stroke-width:1.5;"/>
    <path clip-path="url(#pd5d9c09845)" d="M 120.779184 216.646606 
L 120.779184 216.646606 
" style="fill:none;stroke:#aec7e8;stroke-width:1.5;"/>
    <path clip-path="url(#pd5d9c09845)" d="M 122.850049 213.618152 
L 122.850049 213.618152 
" style="fill:none;stroke:#aec7e8;stroke-width:1.5;"/>
    <path clip-path="url(#pd5d9c09845)" d="M 124.920915 216.425583 
L 124.920915 216.425583 
" style="fill:none;stroke:#aec7e8;stroke-width:1.5;"/>
    <path clip-path="url(#pd5d9c09845)" d="M 126.99178 212.029619 
L 126.99178 212.029619 
" style="fill:none;stroke:#aec7e8;stroke-width:1.5;"/>
    <path clip-path="url(#pd5d9c09845)" d="M 129.062645 210.081627 
L 129.062645 210.081627 
" style="fill:none;stroke:#aec7e8;stroke-width:1.5;"/>
    <path clip-path="url(#pd5d9c09845)" d="M 131.13351 207.814797 
L 131.13351 207.814797 
" style="fill:none;stroke:#aec7e8;stroke-width:1.5;"/>
    <path clip-path="url(#pd5d9c09845)" d="M 133.204376 209.930322 
L 133.204376 209.930322 
" style="fill:none;stroke:#aec7e8;stroke-width:1.5;"/>
    <path clip-path="url(#pd5d9c09845)" d="M 135.275241 206.7818 
L 135.275241 206.7818 
" style="fill:none;stroke:#aec7e8;stroke-width:1.5;"/>
    <path clip-path="url(#pd5d9c09845)" d="M 137.346106 206.415079 
L 137.346106 206.415079 
" style="fill:none;stroke:#aec7e8;stroke-width:1.5;"/>
    <path clip-path="url(#pd5d9c09845)" d="M 139.416972 205.680414 
L 139.416972 205.680414 
" style="fill:none;stroke:#aec7e8;stroke-width:1.5;"/>
    <path clip-path="url(#pd5d9c09845)" d="M 141.487837 201.219366 
L 141.487837 201.219366 
" style="fill:none;stroke:#aec7e8;stroke-width:1.5;"/>
    <path clip-path="url(#pd5d9c09845)" d="M 143.558702 201.228308 
L 143.558702 201.228308 
" style="fill:none;stroke:#aec7e8;stroke-width:1.5;"/>
    <path clip-path="url(#pd5d9c09845)" d="M 145.629567 200.073606 
L 145.629567 200.073606 
" style="fill:none;stroke:#aec7e8;stroke-width:1.5;"/>
    <path clip-path="url(#pd5d9c09845)" d="M 147.700433 201.272909 
L 147.700433 201.272909 
" style="fill:none;stroke:#aec7e8;stroke-width:1.5;"/>
    <path clip-path="url(#pd5d9c09845)" d="M 149.771298 200.979963 
L 149.771298 200.979963 
" style="fill:none;stroke:#aec7e8;stroke-width:1.5;"/>
    <path clip-path="url(#pd5d9c09845)" d="M 151.842163 202.245413 
L 151.842163 202.245413 
" style="fill:none;stroke:#aec7e8;stroke-width:1.5;"/>
    <path clip-path="url(#pd5d9c09845)" d="M 153.913028 199.49033 
L 153.913028 199.49033 
" style="fill:none;stroke:#aec7e8;stroke-width:1.5;"/>
    <path clip-path="url(#pd5d9c09845)" d="M 155.983894 197.945428 
L 155.983894 197.945428 
" style="fill:none;stroke:#aec7e8;stroke-width:1.5;"/>
    <path clip-path="url(#pd5d9c09845)" d="M 158.054759 200.20177 
L 158.054759 200.20177 
" style="fill:none;stroke:#aec7e8;stroke-width:1.5;"/>
    <path clip-path="url(#pd5d9c09845)" d="M 160.125624 198.00849 
L 160.125624 198.00849 
" style="fill:none;stroke:#aec7e8;stroke-width:1.5;"/>
    <path clip-path="url(#pd5d9c09845)" d="M 162.19649 197.912962 
L 162.19649 197.912962 
" style="fill:none;stroke:#aec7e8;stroke-width:1.5;"/>
    <path clip-path="url(#pd5d9c09845)" d="M 164.267355 197.515045 
L 164.267355 197.515045 
" style="fill:none;stroke:#aec7e8;stroke-width:1.5;"/>
    <path clip-path="url(#pd5d9c09845)" d="M 166.33822 196.310636 
L 166.33822 196.310636 
" style="fill:none;stroke:#aec7e8;stroke-width:1.5;"/>
    <path clip-path="url(#pd5d9c09845)" d="M 168.409085 199.908029 
L 168.409085 199.908029 
" style="fill:none;stroke:#aec7e8;stroke-width:1.5;"/>
    <path clip-path="url(#pd5d9c09845)" d="M 170.479951 196.761086 
L 170.479951 196.761086 
" style="fill:none;stroke:#aec7e8;stroke-width:1.5;"/>
    <path clip-path="url(#pd5d9c09845)" d="M 172.550816 193.869698 
L 172.550816 193.869698 
" style="fill:none;stroke:#aec7e8;stroke-width:1.5;"/>
   </g>
   <g id="line2d_21">
    <path clip-path="url(#pd5d9c09845)" d="M 60.724091 38.685533 
L 62.794956 50.530738 
L 64.865821 59.077726 
L 66.936687 62.22712 
L 69.007552 70.408639 
L 71.078417 71.148463 
L 73.149283 76.202693 
L 75.220148 82.755009 
L 77.291013 83.776564 
L 79.361878 86.267473 
L 81.432744 89.149161 
L 83.503609 92.996171 
L 85.574474 93.190119 
L 87.64534 98.089575 
L 89.716205 99.633035 
L 91.78707 99.341886 
L 93.857935 101.800111 
L 95.928801 105.218896 
L 97.999666 106.192602 
L 100.070531 110.026645 
L 102.141396 112.427669 
L 104.212262 113.490836 
L 106.283127 113.71929 
L 108.353992 114.359843 
L 110.424858 114.504354 
L 112.495723 115.768176 
L 114.566588 116.334374 
L 116.637453 119.094451 
L 118.708319 120.885911 
L 120.779184 120.360838 
L 122.850049 121.734303 
L 124.920915 117.615943 
L 126.99178 123.707573 
L 129.062645 125.606945 
L 131.13351 124.548797 
L 133.204376 127.23572 
L 135.275241 128.563887 
L 137.346106 129.419773 
L 139.416972 129.464051 
L 141.487837 130.618683 
L 143.558702 130.018775 
L 145.629567 130.635691 
L 147.700433 131.543431 
L 149.771298 135.755558 
L 151.842163 134.235041 
L 153.913028 135.709059 
L 155.983894 133.127578 
L 158.054759 138.145706 
L 160.125624 140.275823 
L 162.19649 141.327193 
L 164.267355 137.831694 
L 166.33822 141.05407 
L 168.409085 140.466295 
L 170.479951 142.939035 
L 172.550816 144.155726 
L 174.621681 137.489942 
L 176.692547 143.801782 
L 178.763412 142.811451 
L 180.834277 145.588534 
L 182.905142 146.09985 
L 184.976008 144.063411 
L 187.046873 144.265011 
L 189.117738 145.922702 
L 191.188604 146.781275 
L 193.259469 147.317541 
L 195.330334 149.237494 
L 197.401199 147.644538 
L 199.472065 150.82826 
L 201.54293 151.371056 
L 203.613795 152.266117 
L 205.68466 150.293651 
L 207.755526 150.287413 
L 209.826391 153.467239 
L 211.897256 152.270317 
L 213.968122 151.531035 
L 216.038987 154.181261 
L 218.109852 151.254709 
L 220.180717 153.63329 
L 222.251583 155.466056 
L 224.322448 155.408719 
L 226.393313 155.382952 
" style="fill:none;stroke:#7f7f7f;stroke-linecap:square;stroke-width:1.5;"/>
   </g>
   <g id="line2d_22">
    <path clip-path="url(#pd5d9c09845)" d="M 60.724091 64.599127 
L 62.794956 103.842659 
L 64.865821 120.0554 
L 66.936687 129.829795 
L 69.007552 143.171411 
L 71.078417 146.53019 
L 73.149283 158.508698 
L 75.220148 160.935639 
L 77.291013 167.561167 
L 79.361878 174.509806 
L 81.432744 167.314581 
L 83.503609 179.102423 
L 85.574474 185.378397 
L 87.64534 185.08888 
L 89.716205 190.366643 
L 91.78707 191.881684 
L 93.857935 194.257369 
L 95.928801 196.970569 
L 97.999666 199.506396 
L 100.070531 199.310432 
L 102.141396 203.81952 
L 104.212262 204.096402 
L 106.283127 204.917156 
L 108.353992 210.496794 
L 110.424858 211.527198 
L 112.495723 211.124252 
L 114.566588 214.582405 
L 116.637453 215.188716 
L 118.708319 217.15587 
L 120.779184 216.121348 
L 122.850049 218.005236 
L 124.920915 220.917364 
L 126.99178 222.415589 
L 129.062645 221.384673 
L 131.13351 221.064755 
L 133.204376 222.72211 
L 135.275241 220.272871 
L 137.346106 220.883301 
L 139.416972 223.67412 
L 141.487837 224.736604 
L 143.558702 225.911491 
L 145.629567 225.824469 
L 147.700433 225.68993 
L 149.771298 222.679321 
L 151.842163 225.579775 
L 153.913028 227.828274 
L 155.983894 225.221247 
L 158.054759 226.120927 
L 160.125624 226.295888 
L 162.19649 226.446695 
L 164.267355 227.921479 
L 166.33822 226.373021 
L 168.409085 224.763104 
L 170.479951 225.555648 
L 172.550816 225.248113 
L 174.621681 227.107776 
L 176.692547 225.717477 
L 178.763412 225.930263 
L 180.834277 225.417488 
L 182.905142 225.521929 
L 184.976008 226.128436 
L 187.046873 224.870917 
L 189.117738 223.551017 
L 191.188604 224.357337 
L 193.259469 223.658641 
L 195.330334 225.157627 
L 197.401199 223.384889 
L 199.472065 223.049241 
L 201.54293 223.054213 
L 203.613795 221.237851 
L 205.68466 222.155777 
L 207.755526 220.224497 
L 209.826391 217.163692 
L 211.897256 218.384408 
L 213.968122 219.517504 
L 216.038987 217.729645 
L 218.109852 216.429232 
L 220.180717 215.621761 
L 222.251583 214.1049 
L 224.322448 215.79248 
L 226.393313 217.67687 
L 228.464179 215.060523 
L 230.535044 213.116083 
L 232.605909 215.48402 
" style="fill:none;stroke:#2ca02c;stroke-linecap:square;stroke-width:1.5;"/>
   </g>
   <g id="line2d_23">
    <path clip-path="url(#pd5d9c09845)" d="M 60.724091 62.755585 
L 62.794956 92.788761 
L 64.865821 109.915967 
L 66.936687 128.725645 
L 69.007552 139.444812 
L 71.078417 146.999701 
L 73.149283 161.307453 
L 75.220148 162.982538 
L 77.291013 170.837457 
L 79.361878 175.189398 
L 81.432744 177.604258 
L 83.503609 182.202451 
L 85.574474 189.804117 
L 87.64534 190.218456 
L 89.716205 192.707002 
L 91.78707 197.552598 
L 93.857935 202.095431 
L 95.928801 200.647028 
L 97.999666 203.641569 
L 100.070531 206.610233 
L 102.141396 209.205736 
L 104.212262 211.41049 
L 106.283127 212.781779 
L 108.353992 213.370494 
L 110.424858 211.624124 
L 112.495723 216.302729 
L 114.566588 217.630086 
L 116.637453 215.900027 
L 118.708319 218.653482 
L 120.779184 221.98331 
L 122.850049 221.101667 
L 124.920915 221.741506 
L 126.99178 223.693299 
L 129.062645 221.907567 
L 131.13351 220.213141 
L 133.204376 224.774961 
L 135.275241 222.102784 
L 137.346106 224.208769 
L 139.416972 220.9705 
L 141.487837 223.487985 
L 143.558702 223.686858 
L 145.629567 225.778368 
L 147.700433 222.751056 
L 149.771298 225.207675 
L 151.842163 220.632006 
L 153.913028 225.236351 
L 155.983894 225.679598 
L 158.054759 222.504446 
L 160.125624 225.967419 
L 162.19649 224.013136 
L 164.267355 222.64376 
L 166.33822 223.368099 
L 168.409085 223.032833 
L 170.479951 221.26881 
L 172.550816 217.5233 
L 174.621681 225.177284 
L 176.692547 223.167157 
L 178.763412 223.460924 
L 180.834277 223.437376 
L 182.905142 221.616933 
L 184.976008 222.037862 
L 187.046873 222.061517 
L 189.117738 221.755543 
L 191.188604 222.145671 
L 193.259469 219.457234 
L 195.330334 216.902703 
L 197.401199 215.977667 
L 199.472065 216.370719 
L 201.54293 214.219332 
L 203.613795 216.307282 
L 205.68466 214.490562 
L 207.755526 211.016297 
L 209.826391 213.269307 
L 211.897256 211.898673 
L 213.968122 211.891361 
L 216.038987 211.040617 
L 218.109852 211.466258 
L 220.180717 212.923985 
L 222.251583 213.971909 
L 224.322448 212.083126 
" style="fill:none;stroke:#d62728;stroke-linecap:square;stroke-width:1.5;"/>
   </g>
   <g id="line2d_24">
    <path clip-path="url(#pd5d9c09845)" d="M 60.724091 109.520904 
L 62.794956 147.093558 
L 64.865821 171.710919 
L 66.936687 183.979283 
L 69.007552 194.974043 
L 71.078417 199.825436 
L 73.149283 206.36662 
L 75.220148 211.839606 
L 77.291013 216.514183 
L 79.361878 220.011665 
L 81.432744 220.968846 
L 83.503609 226.560598 
L 85.574474 226.319517 
L 87.64534 229.73255 
L 89.716205 229.886318 
L 91.78707 231.954545 
L 93.857935 229.601133 
L 95.928801 230.158893 
L 97.999666 228.827195 
L 100.070531 230.313832 
L 102.141396 229.948391 
L 104.212262 229.453754 
L 106.283127 226.303295 
L 108.353992 220.844643 
L 110.424858 224.10657 
L 112.495723 217.900118 
L 114.566588 216.103916 
L 116.637453 214.129175 
L 118.708319 218.044335 
L 120.779184 216.646606 
L 122.850049 213.618152 
L 124.920915 216.425583 
L 126.99178 212.029619 
L 129.062645 210.081627 
L 131.13351 207.814797 
L 133.204376 209.930322 
L 135.275241 206.7818 
L 137.346106 206.415079 
L 139.416972 205.680414 
L 141.487837 201.219366 
L 143.558702 201.228308 
L 145.629567 200.073606 
L 147.700433 201.272909 
L 149.771298 200.979963 
L 151.842163 202.245413 
L 153.913028 199.49033 
L 155.983894 197.945428 
L 158.054759 200.20177 
L 160.125624 198.00849 
L 162.19649 197.912962 
L 164.267355 197.515045 
L 166.33822 196.310636 
L 168.409085 199.908029 
L 170.479951 196.761086 
L 172.550816 193.869698 
" style="fill:none;stroke:#1f77b4;stroke-linecap:square;stroke-width:1.5;"/>
   </g>
   <g id="patch_3">
    <path d="M 52.13 241.72 
L 52.13 26.88 
" style="fill:none;stroke:#000000;stroke-linecap:square;stroke-linejoin:miter;stroke-width:0.8;"/>
   </g>
   <g id="patch_4">
    <path d="M 241.2 241.72 
L 241.2 26.88 
" style="fill:none;stroke:#000000;stroke-linecap:square;stroke-linejoin:miter;stroke-width:0.8;"/>
   </g>
   <g id="patch_5">
    <path d="M 52.13 241.72 
L 241.2 241.72 
" style="fill:none;stroke:#000000;stroke-linecap:square;stroke-linejoin:miter;stroke-width:0.8;"/>
   </g>
   <g id="patch_6">
    <path d="M 52.13 26.88 
L 241.2 26.88 
" style="fill:none;stroke:#000000;stroke-linecap:square;stroke-linejoin:miter;stroke-width:0.8;"/>
   </g>
   <g id="text_15">
    <!-- resnet32 cifar10 -->
    <g transform="translate(97.270938 20.88)scale(0.12 -0.12)">
     <defs>
      <path d="M 40.578125 39.3125 
Q 47.65625 37.796875 51.625 33 
Q 55.609375 28.21875 55.609375 21.1875 
Q 55.609375 10.40625 48.1875 4.484375 
Q 40.765625 -1.421875 27.09375 -1.421875 
Q 22.515625 -1.421875 17.65625 -0.515625 
Q 12.796875 0.390625 7.625 2.203125 
L 7.625 11.71875 
Q 11.71875 9.328125 16.59375 8.109375 
Q 21.484375 6.890625 26.8125 6.890625 
Q 36.078125 6.890625 40.9375 10.546875 
Q 45.796875 14.203125 45.796875 21.1875 
Q 45.796875 27.640625 41.28125 31.265625 
Q 36.765625 34.90625 28.71875 34.90625 
L 20.21875 34.90625 
L 20.21875 43.015625 
L 29.109375 43.015625 
Q 36.375 43.015625 40.234375 45.921875 
Q 44.09375 48.828125 44.09375 54.296875 
Q 44.09375 59.90625 40.109375 62.90625 
Q 36.140625 65.921875 28.71875 65.921875 
Q 24.65625 65.921875 20.015625 65.03125 
Q 15.375 64.15625 9.8125 62.3125 
L 9.8125 71.09375 
Q 15.4375 72.65625 20.34375 73.4375 
Q 25.25 74.21875 29.59375 74.21875 
Q 40.828125 74.21875 47.359375 69.109375 
Q 53.90625 64.015625 53.90625 55.328125 
Q 53.90625 49.265625 50.4375 45.09375 
Q 46.96875 40.921875 40.578125 39.3125 
z
" id="DejaVuSans-51"/>
      <path d="M 37.109375 75.984375 
L 37.109375 68.5 
L 28.515625 68.5 
Q 23.6875 68.5 21.796875 66.546875 
Q 19.921875 64.59375 19.921875 59.515625 
L 19.921875 54.6875 
L 34.71875 54.6875 
L 34.71875 47.703125 
L 19.921875 47.703125 
L 19.921875 0 
L 10.890625 0 
L 10.890625 47.703125 
L 2.296875 47.703125 
L 2.296875 54.6875 
L 10.890625 54.6875 
L 10.890625 58.5 
Q 10.890625 67.625 15.140625 71.796875 
Q 19.390625 75.984375 28.609375 75.984375 
z
" id="DejaVuSans-102"/>
      <path d="M 34.28125 27.484375 
Q 23.390625 27.484375 19.1875 25 
Q 14.984375 22.515625 14.984375 16.5 
Q 14.984375 11.71875 18.140625 8.90625 
Q 21.296875 6.109375 26.703125 6.109375 
Q 34.1875 6.109375 38.703125 11.40625 
Q 43.21875 16.703125 43.21875 25.484375 
L 43.21875 27.484375 
z
M 52.203125 31.203125 
L 52.203125 0 
L 43.21875 0 
L 43.21875 8.296875 
Q 40.140625 3.328125 35.546875 0.953125 
Q 30.953125 -1.421875 24.3125 -1.421875 
Q 15.921875 -1.421875 10.953125 3.296875 
Q 6 8.015625 6 15.921875 
Q 6 25.140625 12.171875 29.828125 
Q 18.359375 34.515625 30.609375 34.515625 
L 43.21875 34.515625 
L 43.21875 35.40625 
Q 43.21875 41.609375 39.140625 45 
Q 35.0625 48.390625 27.6875 48.390625 
Q 23 48.390625 18.546875 47.265625 
Q 14.109375 46.140625 10.015625 43.890625 
L 10.015625 52.203125 
Q 14.9375 54.109375 19.578125 55.046875 
Q 24.21875 56 28.609375 56 
Q 40.484375 56 46.34375 49.84375 
Q 52.203125 43.703125 52.203125 31.203125 
z
" id="DejaVuSans-97"/>
     </defs>
     <use xlink:href="#DejaVuSans-114"/>
     <use x="38.863281" xlink:href="#DejaVuSans-101"/>
     <use x="100.386719" xlink:href="#DejaVuSans-115"/>
     <use x="152.486328" xlink:href="#DejaVuSans-110"/>
     <use x="215.865234" xlink:href="#DejaVuSans-101"/>
     <use x="277.388672" xlink:href="#DejaVuSans-116"/>
     <use x="316.597656" xlink:href="#DejaVuSans-51"/>
     <use x="380.220703" xlink:href="#DejaVuSans-50"/>
     <use x="443.84375" xlink:href="#DejaVuSans-32"/>
     <use x="475.630859" xlink:href="#DejaVuSans-99"/>
     <use x="530.611328" xlink:href="#DejaVuSans-105"/>
     <use x="558.394531" xlink:href="#DejaVuSans-102"/>
     <use x="593.599609" xlink:href="#DejaVuSans-97"/>
     <use x="654.878906" xlink:href="#DejaVuSans-114"/>
     <use x="695.992188" xlink:href="#DejaVuSans-49"/>
     <use x="759.615234" xlink:href="#DejaVuSans-48"/>
    </g>
   </g>
   <g id="legend_1">
    <g id="patch_7">
     <path d="M 87.332813 93.5925 
L 234.2 93.5925 
Q 236.2 93.5925 236.2 91.5925 
L 236.2 33.88 
Q 236.2 31.88 234.2 31.88 
L 87.332813 31.88 
Q 85.332813 31.88 85.332813 33.88 
L 85.332813 91.5925 
Q 85.332813 93.5925 87.332813 93.5925 
z
" style="fill:#ffffff;opacity:0.8;stroke:#cccccc;stroke-linejoin:miter;"/>
    </g>
    <g id="LineCollection_5">
     <path d="M 99.332813 44.978437 
L 99.332813 34.978437 
" style="fill:none;stroke:#c7c7c7;stroke-width:1.5;"/>
    </g>
    <g id="line2d_25">
     <path d="M 89.332813 39.978437 
L 109.332813 39.978437 
" style="fill:none;stroke:#7f7f7f;stroke-linecap:square;stroke-width:1.5;"/>
    </g>
    <g id="line2d_26"/>
    <g id="text_16">
     <!-- DSGD -->
     <g transform="translate(117.332813 43.478437)scale(0.1 -0.1)">
      <defs>
       <path d="M 19.671875 64.796875 
L 19.671875 8.109375 
L 31.59375 8.109375 
Q 46.6875 8.109375 53.6875 14.9375 
Q 60.6875 21.78125 60.6875 36.53125 
Q 60.6875 51.171875 53.6875 57.984375 
Q 46.6875 64.796875 31.59375 64.796875 
z
M 9.8125 72.90625 
L 30.078125 72.90625 
Q 51.265625 72.90625 61.171875 64.09375 
Q 71.09375 55.28125 71.09375 36.53125 
Q 71.09375 17.671875 61.125 8.828125 
Q 51.171875 0 30.078125 0 
L 9.8125 0 
z
" id="DejaVuSans-68"/>
       <path d="M 53.515625 70.515625 
L 53.515625 60.890625 
Q 47.90625 63.578125 42.921875 64.890625 
Q 37.9375 66.21875 33.296875 66.21875 
Q 25.25 66.21875 20.875 63.09375 
Q 16.5 59.96875 16.5 54.203125 
Q 16.5 49.359375 19.40625 46.890625 
Q 22.3125 44.4375 30.421875 42.921875 
L 36.375 41.703125 
Q 47.40625 39.59375 52.65625 34.296875 
Q 57.90625 29 57.90625 20.125 
Q 57.90625 9.515625 50.796875 4.046875 
Q 43.703125 -1.421875 29.984375 -1.421875 
Q 24.8125 -1.421875 18.96875 -0.25 
Q 13.140625 0.921875 6.890625 3.21875 
L 6.890625 13.375 
Q 12.890625 10.015625 18.65625 8.296875 
Q 24.421875 6.59375 29.984375 6.59375 
Q 38.421875 6.59375 43.015625 9.90625 
Q 47.609375 13.234375 47.609375 19.390625 
Q 47.609375 24.75 44.3125 27.78125 
Q 41.015625 30.8125 33.5 32.328125 
L 27.484375 33.5 
Q 16.453125 35.6875 11.515625 40.375 
Q 6.59375 45.0625 6.59375 53.421875 
Q 6.59375 63.09375 13.40625 68.65625 
Q 20.21875 74.21875 32.171875 74.21875 
Q 37.3125 74.21875 42.625 73.28125 
Q 47.953125 72.359375 53.515625 70.515625 
z
" id="DejaVuSans-83"/>
       <path d="M 59.515625 10.40625 
L 59.515625 29.984375 
L 43.40625 29.984375 
L 43.40625 38.09375 
L 69.28125 38.09375 
L 69.28125 6.78125 
Q 63.578125 2.734375 56.6875 0.65625 
Q 49.8125 -1.421875 42 -1.421875 
Q 24.90625 -1.421875 15.25 8.5625 
Q 5.609375 18.5625 5.609375 36.375 
Q 5.609375 54.25 15.25 64.234375 
Q 24.90625 74.21875 42 74.21875 
Q 49.125 74.21875 55.546875 72.453125 
Q 61.96875 70.703125 67.390625 67.28125 
L 67.390625 56.78125 
Q 61.921875 61.421875 55.765625 63.765625 
Q 49.609375 66.109375 42.828125 66.109375 
Q 29.4375 66.109375 22.71875 58.640625 
Q 16.015625 51.171875 16.015625 36.375 
Q 16.015625 21.625 22.71875 14.15625 
Q 29.4375 6.6875 42.828125 6.6875 
Q 48.046875 6.6875 52.140625 7.59375 
Q 56.25 8.5 59.515625 10.40625 
z
" id="DejaVuSans-71"/>
      </defs>
      <use xlink:href="#DejaVuSans-68"/>
      <use x="77.001953" xlink:href="#DejaVuSans-83"/>
      <use x="140.478516" xlink:href="#DejaVuSans-71"/>
      <use x="217.96875" xlink:href="#DejaVuSans-68"/>
     </g>
    </g>
    <g id="LineCollection_6">
     <path d="M 99.332813 59.656562 
L 99.332813 49.656562 
" style="fill:none;stroke:#98df8a;stroke-width:1.5;"/>
    </g>
    <g id="line2d_27">
     <path d="M 89.332813 54.656562 
L 109.332813 54.656562 
" style="fill:none;stroke:#2ca02c;stroke-linecap:square;stroke-width:1.5;"/>
    </g>
    <g id="line2d_28"/>
    <g id="text_17">
     <!-- ECL-ISVR (ADMM-ISVR) -->
     <g transform="translate(117.332813 58.156562)scale(0.1 -0.1)">
      <defs>
       <path d="M 9.8125 72.90625 
L 55.90625 72.90625 
L 55.90625 64.59375 
L 19.671875 64.59375 
L 19.671875 43.015625 
L 54.390625 43.015625 
L 54.390625 34.71875 
L 19.671875 34.71875 
L 19.671875 8.296875 
L 56.78125 8.296875 
L 56.78125 0 
L 9.8125 0 
z
" id="DejaVuSans-69"/>
       <path d="M 9.8125 72.90625 
L 19.671875 72.90625 
L 19.671875 8.296875 
L 55.171875 8.296875 
L 55.171875 0 
L 9.8125 0 
z
" id="DejaVuSans-76"/>
       <path d="M 9.8125 72.90625 
L 19.671875 72.90625 
L 19.671875 0 
L 9.8125 0 
z
" id="DejaVuSans-73"/>
       <path d="M 28.609375 0 
L 0.78125 72.90625 
L 11.078125 72.90625 
L 34.1875 11.53125 
L 57.328125 72.90625 
L 67.578125 72.90625 
L 39.796875 0 
z
" id="DejaVuSans-86"/>
       <path d="M 44.390625 34.1875 
Q 47.5625 33.109375 50.5625 29.59375 
Q 53.5625 26.078125 56.59375 19.921875 
L 66.609375 0 
L 56 0 
L 46.6875 18.703125 
Q 43.0625 26.03125 39.671875 28.421875 
Q 36.28125 30.8125 30.421875 30.8125 
L 19.671875 30.8125 
L 19.671875 0 
L 9.8125 0 
L 9.8125 72.90625 
L 32.078125 72.90625 
Q 44.578125 72.90625 50.734375 67.671875 
Q 56.890625 62.453125 56.890625 51.90625 
Q 56.890625 45.015625 53.6875 40.46875 
Q 50.484375 35.9375 44.390625 34.1875 
z
M 19.671875 64.796875 
L 19.671875 38.921875 
L 32.078125 38.921875 
Q 39.203125 38.921875 42.84375 42.21875 
Q 46.484375 45.515625 46.484375 51.90625 
Q 46.484375 58.296875 42.84375 61.546875 
Q 39.203125 64.796875 32.078125 64.796875 
z
" id="DejaVuSans-82"/>
       <path d="M 31 75.875 
Q 24.46875 64.65625 21.28125 53.65625 
Q 18.109375 42.671875 18.109375 31.390625 
Q 18.109375 20.125 21.3125 9.0625 
Q 24.515625 -2 31 -13.1875 
L 23.1875 -13.1875 
Q 15.875 -1.703125 12.234375 9.375 
Q 8.59375 20.453125 8.59375 31.390625 
Q 8.59375 42.28125 12.203125 53.3125 
Q 15.828125 64.359375 23.1875 75.875 
z
" id="DejaVuSans-40"/>
       <path d="M 34.1875 63.1875 
L 20.796875 26.90625 
L 47.609375 26.90625 
z
M 28.609375 72.90625 
L 39.796875 72.90625 
L 67.578125 0 
L 57.328125 0 
L 50.6875 18.703125 
L 17.828125 18.703125 
L 11.1875 0 
L 0.78125 0 
z
" id="DejaVuSans-65"/>
       <path d="M 9.8125 72.90625 
L 24.515625 72.90625 
L 43.109375 23.296875 
L 61.8125 72.90625 
L 76.515625 72.90625 
L 76.515625 0 
L 66.890625 0 
L 66.890625 64.015625 
L 48.09375 14.015625 
L 38.1875 14.015625 
L 19.390625 64.015625 
L 19.390625 0 
L 9.8125 0 
z
" id="DejaVuSans-77"/>
       <path d="M 8.015625 75.875 
L 15.828125 75.875 
Q 23.140625 64.359375 26.78125 53.3125 
Q 30.421875 42.28125 30.421875 31.390625 
Q 30.421875 20.453125 26.78125 9.375 
Q 23.140625 -1.703125 15.828125 -13.1875 
L 8.015625 -13.1875 
Q 14.5 -2 17.703125 9.0625 
Q 20.90625 20.125 20.90625 31.390625 
Q 20.90625 42.671875 17.703125 53.65625 
Q 14.5 64.65625 8.015625 75.875 
z
" id="DejaVuSans-41"/>
      </defs>
      <use xlink:href="#DejaVuSans-69"/>
      <use x="63.183594" xlink:href="#DejaVuSans-67"/>
      <use x="133.007812" xlink:href="#DejaVuSans-76"/>
      <use x="186.970703" xlink:href="#DejaVuSans-45"/>
      <use x="223.054688" xlink:href="#DejaVuSans-73"/>
      <use x="252.546875" xlink:href="#DejaVuSans-83"/>
      <use x="316.023438" xlink:href="#DejaVuSans-86"/>
      <use x="384.431641" xlink:href="#DejaVuSans-82"/>
      <use x="453.914062" xlink:href="#DejaVuSans-32"/>
      <use x="485.701172" xlink:href="#DejaVuSans-40"/>
      <use x="524.714844" xlink:href="#DejaVuSans-65"/>
      <use x="593.123047" xlink:href="#DejaVuSans-68"/>
      <use x="670.125" xlink:href="#DejaVuSans-77"/>
      <use x="756.404297" xlink:href="#DejaVuSans-77"/>
      <use x="842.683594" xlink:href="#DejaVuSans-45"/>
      <use x="878.767578" xlink:href="#DejaVuSans-73"/>
      <use x="908.259766" xlink:href="#DejaVuSans-83"/>
      <use x="971.736328" xlink:href="#DejaVuSans-86"/>
      <use x="1040.144531" xlink:href="#DejaVuSans-82"/>
      <use x="1109.626953" xlink:href="#DejaVuSans-41"/>
     </g>
    </g>
    <g id="LineCollection_7">
     <path d="M 99.332813 74.334687 
L 99.332813 64.334687 
" style="fill:none;stroke:#ff9896;stroke-width:1.5;"/>
    </g>
    <g id="line2d_29">
     <path d="M 89.332813 69.334687 
L 109.332813 69.334687 
" style="fill:none;stroke:#d62728;stroke-linecap:square;stroke-width:1.5;"/>
    </g>
    <g id="line2d_30"/>
    <g id="text_18">
     <!-- ECL-ISVR (PDMM-ISVR) -->
     <g transform="translate(117.332813 72.834687)scale(0.1 -0.1)">
      <use xlink:href="#DejaVuSans-69"/>
      <use x="63.183594" xlink:href="#DejaVuSans-67"/>
      <use x="133.007812" xlink:href="#DejaVuSans-76"/>
      <use x="186.970703" xlink:href="#DejaVuSans-45"/>
      <use x="223.054688" xlink:href="#DejaVuSans-73"/>
      <use x="252.546875" xlink:href="#DejaVuSans-83"/>
      <use x="316.023438" xlink:href="#DejaVuSans-86"/>
      <use x="384.431641" xlink:href="#DejaVuSans-82"/>
      <use x="453.914062" xlink:href="#DejaVuSans-32"/>
      <use x="485.701172" xlink:href="#DejaVuSans-40"/>
      <use x="524.714844" xlink:href="#DejaVuSans-80"/>
      <use x="585.017578" xlink:href="#DejaVuSans-68"/>
      <use x="662.019531" xlink:href="#DejaVuSans-77"/>
      <use x="748.298828" xlink:href="#DejaVuSans-77"/>
      <use x="834.578125" xlink:href="#DejaVuSans-45"/>
      <use x="870.662109" xlink:href="#DejaVuSans-73"/>
      <use x="900.154297" xlink:href="#DejaVuSans-83"/>
      <use x="963.630859" xlink:href="#DejaVuSans-86"/>
      <use x="1032.039062" xlink:href="#DejaVuSans-82"/>
      <use x="1101.521484" xlink:href="#DejaVuSans-41"/>
     </g>
    </g>
    <g id="LineCollection_8">
     <path d="M 99.332813 89.012812 
L 99.332813 79.012812 
" style="fill:none;stroke:#aec7e8;stroke-width:1.5;"/>
    </g>
    <g id="line2d_31">
     <path d="M 89.332813 84.012812 
L 109.332813 84.012812 
" style="fill:none;stroke:#1f77b4;stroke-linecap:square;stroke-width:1.5;"/>
    </g>
    <g id="line2d_32"/>
    <g id="text_19">
     <!-- Reference(1 node) -->
     <g transform="translate(117.332813 87.512812)scale(0.1 -0.1)">
      <defs>
       <path d="M 45.40625 46.390625 
L 45.40625 75.984375 
L 54.390625 75.984375 
L 54.390625 0 
L 45.40625 0 
L 45.40625 8.203125 
Q 42.578125 3.328125 38.25 0.953125 
Q 33.9375 -1.421875 27.875 -1.421875 
Q 17.96875 -1.421875 11.734375 6.484375 
Q 5.515625 14.40625 5.515625 27.296875 
Q 5.515625 40.1875 11.734375 48.09375 
Q 17.96875 56 27.875 56 
Q 33.9375 56 38.25 53.625 
Q 42.578125 51.265625 45.40625 46.390625 
z
M 14.796875 27.296875 
Q 14.796875 17.390625 18.875 11.75 
Q 22.953125 6.109375 30.078125 6.109375 
Q 37.203125 6.109375 41.296875 11.75 
Q 45.40625 17.390625 45.40625 27.296875 
Q 45.40625 37.203125 41.296875 42.84375 
Q 37.203125 48.484375 30.078125 48.484375 
Q 22.953125 48.484375 18.875 42.84375 
Q 14.796875 37.203125 14.796875 27.296875 
z
" id="DejaVuSans-100"/>
      </defs>
      <use xlink:href="#DejaVuSans-82"/>
      <use x="64.982422" xlink:href="#DejaVuSans-101"/>
      <use x="126.505859" xlink:href="#DejaVuSans-102"/>
      <use x="161.710938" xlink:href="#DejaVuSans-101"/>
      <use x="223.234375" xlink:href="#DejaVuSans-114"/>
      <use x="262.097656" xlink:href="#DejaVuSans-101"/>
      <use x="323.621094" xlink:href="#DejaVuSans-110"/>
      <use x="387" xlink:href="#DejaVuSans-99"/>
      <use x="441.980469" xlink:href="#DejaVuSans-101"/>
      <use x="503.503906" xlink:href="#DejaVuSans-40"/>
      <use x="542.517578" xlink:href="#DejaVuSans-49"/>
      <use x="606.140625" xlink:href="#DejaVuSans-32"/>
      <use x="637.927734" xlink:href="#DejaVuSans-110"/>
      <use x="701.306641" xlink:href="#DejaVuSans-111"/>
      <use x="762.488281" xlink:href="#DejaVuSans-100"/>
      <use x="825.964844" xlink:href="#DejaVuSans-101"/>
      <use x="887.488281" xlink:href="#DejaVuSans-41"/>
     </g>
    </g>
   </g>
  </g>
 </g>
 <defs>
  <clipPath id="pd5d9c09845">
   <rect height="214.84" width="189.07" x="52.13" y="26.88"/>
  </clipPath>
 </defs>
</svg>
