<?xml version="1.0" encoding="utf-8" standalone="no"?>
<!DOCTYPE svg PUBLIC "-//W3C//DTD SVG 1.1//EN"
  "http://www.w3.org/Graphics/SVG/1.1/DTD/svg11.dtd">
<!-- Created with matplotlib (https://matplotlib.org/) -->
<svg height="288pt" version="1.1" viewBox="0 0 252 288" width="252pt" xmlns="http://www.w3.org/2000/svg" xmlns:xlink="http://www.w3.org/1999/xlink">
 <metadata>
  <rdf:RDF xmlns:cc="http://creativecommons.org/ns#" xmlns:dc="http://purl.org/dc/elements/1.1/" xmlns:rdf="http://www.w3.org/1999/02/22-rdf-syntax-ns#">
   <cc:Work>
    <dc:type rdf:resource="http://purl.org/dc/dcmitype/StillImage"/>
    <dc:date>2021-06-28T09:50:10.017272</dc:date>
    <dc:format>image/svg+xml</dc:format>
    <dc:creator>
     <cc:Agent>
      <dc:title>Matplotlib v3.3.2, https://matplotlib.org/</dc:title>
     </cc:Agent>
    </dc:creator>
   </cc:Work>
  </rdf:RDF>
 </metadata>
 <defs>
  <style type="text/css">*{stroke-linecap:butt;stroke-linejoin:round;}</style>
 </defs>
 <g id="figure_1">
  <g id="patch_1">
   <path d="M 0 288 
L 252 288 
L 252 0 
L 0 0 
z
" style="fill:#ffffff;"/>
  </g>
  <g id="axes_1">
   <g id="patch_2">
    <path d="M 48.89 241.72 
L 241.2 241.72 
L 241.2 26.88 
L 48.89 26.88 
z
" style="fill:#ffffff;"/>
   </g>
   <g id="matplotlib.axis_1">
    <g id="xtick_1">
     <g id="line2d_1">
      <defs>
       <path d="M 0 0 
L 0 3.5 
" id="m5c3f7f1e1b" style="stroke:#000000;stroke-width:0.8;"/>
      </defs>
      <g>
       <use style="stroke:#000000;stroke-width:0.8;" x="57.631364" xlink:href="#m5c3f7f1e1b" y="241.72"/>
      </g>
     </g>
     <g id="text_1">
      <!-- 0 -->
      <g transform="translate(54.450114 256.318438)scale(0.1 -0.1)">
       <defs>
        <path d="M 31.78125 66.40625 
Q 24.171875 66.40625 20.328125 58.90625 
Q 16.5 51.421875 16.5 36.375 
Q 16.5 21.390625 20.328125 13.890625 
Q 24.171875 6.390625 31.78125 6.390625 
Q 39.453125 6.390625 43.28125 13.890625 
Q 47.125 21.390625 47.125 36.375 
Q 47.125 51.421875 43.28125 58.90625 
Q 39.453125 66.40625 31.78125 66.40625 
z
M 31.78125 74.21875 
Q 44.046875 74.21875 50.515625 64.515625 
Q 56.984375 54.828125 56.984375 36.375 
Q 56.984375 17.96875 50.515625 8.265625 
Q 44.046875 -1.421875 31.78125 -1.421875 
Q 19.53125 -1.421875 13.0625 8.265625 
Q 6.59375 17.96875 6.59375 36.375 
Q 6.59375 54.828125 13.0625 64.515625 
Q 19.53125 74.21875 31.78125 74.21875 
z
" id="DejaVuSans-48"/>
       </defs>
       <use xlink:href="#DejaVuSans-48"/>
      </g>
     </g>
    </g>
    <g id="xtick_2">
     <g id="line2d_2">
      <g>
       <use style="stroke:#000000;stroke-width:0.8;" x="110.290181" xlink:href="#m5c3f7f1e1b" y="241.72"/>
      </g>
     </g>
     <g id="text_2">
      <!-- 50 -->
      <g transform="translate(103.927681 256.318438)scale(0.1 -0.1)">
       <defs>
        <path d="M 10.796875 72.90625 
L 49.515625 72.90625 
L 49.515625 64.59375 
L 19.828125 64.59375 
L 19.828125 46.734375 
Q 21.96875 47.46875 24.109375 47.828125 
Q 26.265625 48.1875 28.421875 48.1875 
Q 40.625 48.1875 47.75 41.5 
Q 54.890625 34.8125 54.890625 23.390625 
Q 54.890625 11.625 47.5625 5.09375 
Q 40.234375 -1.421875 26.90625 -1.421875 
Q 22.3125 -1.421875 17.546875 -0.640625 
Q 12.796875 0.140625 7.71875 1.703125 
L 7.71875 11.625 
Q 12.109375 9.234375 16.796875 8.0625 
Q 21.484375 6.890625 26.703125 6.890625 
Q 35.15625 6.890625 40.078125 11.328125 
Q 45.015625 15.765625 45.015625 23.390625 
Q 45.015625 31 40.078125 35.4375 
Q 35.15625 39.890625 26.703125 39.890625 
Q 22.75 39.890625 18.8125 39.015625 
Q 14.890625 38.140625 10.796875 36.28125 
z
" id="DejaVuSans-53"/>
       </defs>
       <use xlink:href="#DejaVuSans-53"/>
       <use x="63.623047" xlink:href="#DejaVuSans-48"/>
      </g>
     </g>
    </g>
    <g id="xtick_3">
     <g id="line2d_3">
      <g>
       <use style="stroke:#000000;stroke-width:0.8;" x="162.948998" xlink:href="#m5c3f7f1e1b" y="241.72"/>
      </g>
     </g>
     <g id="text_3">
      <!-- 100 -->
      <g transform="translate(153.405248 256.318438)scale(0.1 -0.1)">
       <defs>
        <path d="M 12.40625 8.296875 
L 28.515625 8.296875 
L 28.515625 63.921875 
L 10.984375 60.40625 
L 10.984375 69.390625 
L 28.421875 72.90625 
L 38.28125 72.90625 
L 38.28125 8.296875 
L 54.390625 8.296875 
L 54.390625 0 
L 12.40625 0 
z
" id="DejaVuSans-49"/>
       </defs>
       <use xlink:href="#DejaVuSans-49"/>
       <use x="63.623047" xlink:href="#DejaVuSans-48"/>
       <use x="127.246094" xlink:href="#DejaVuSans-48"/>
      </g>
     </g>
    </g>
    <g id="xtick_4">
     <g id="line2d_4">
      <g>
       <use style="stroke:#000000;stroke-width:0.8;" x="215.607815" xlink:href="#m5c3f7f1e1b" y="241.72"/>
      </g>
     </g>
     <g id="text_4">
      <!-- 150 -->
      <g transform="translate(206.064065 256.318438)scale(0.1 -0.1)">
       <use xlink:href="#DejaVuSans-49"/>
       <use x="63.623047" xlink:href="#DejaVuSans-53"/>
       <use x="127.246094" xlink:href="#DejaVuSans-48"/>
      </g>
     </g>
    </g>
    <g id="text_5">
     <!-- Processing time [min] -->
     <g transform="translate(57.84375 274.555625)scale(0.16 -0.16)">
      <defs>
       <path d="M 19.671875 64.796875 
L 19.671875 37.40625 
L 32.078125 37.40625 
Q 38.96875 37.40625 42.71875 40.96875 
Q 46.484375 44.53125 46.484375 51.125 
Q 46.484375 57.671875 42.71875 61.234375 
Q 38.96875 64.796875 32.078125 64.796875 
z
M 9.8125 72.90625 
L 32.078125 72.90625 
Q 44.34375 72.90625 50.609375 67.359375 
Q 56.890625 61.8125 56.890625 51.125 
Q 56.890625 40.328125 50.609375 34.8125 
Q 44.34375 29.296875 32.078125 29.296875 
L 19.671875 29.296875 
L 19.671875 0 
L 9.8125 0 
z
" id="DejaVuSans-80"/>
       <path d="M 41.109375 46.296875 
Q 39.59375 47.171875 37.8125 47.578125 
Q 36.03125 48 33.890625 48 
Q 26.265625 48 22.1875 43.046875 
Q 18.109375 38.09375 18.109375 28.8125 
L 18.109375 0 
L 9.078125 0 
L 9.078125 54.6875 
L 18.109375 54.6875 
L 18.109375 46.1875 
Q 20.953125 51.171875 25.484375 53.578125 
Q 30.03125 56 36.53125 56 
Q 37.453125 56 38.578125 55.875 
Q 39.703125 55.765625 41.0625 55.515625 
z
" id="DejaVuSans-114"/>
       <path d="M 30.609375 48.390625 
Q 23.390625 48.390625 19.1875 42.75 
Q 14.984375 37.109375 14.984375 27.296875 
Q 14.984375 17.484375 19.15625 11.84375 
Q 23.34375 6.203125 30.609375 6.203125 
Q 37.796875 6.203125 41.984375 11.859375 
Q 46.1875 17.53125 46.1875 27.296875 
Q 46.1875 37.015625 41.984375 42.703125 
Q 37.796875 48.390625 30.609375 48.390625 
z
M 30.609375 56 
Q 42.328125 56 49.015625 48.375 
Q 55.71875 40.765625 55.71875 27.296875 
Q 55.71875 13.875 49.015625 6.21875 
Q 42.328125 -1.421875 30.609375 -1.421875 
Q 18.84375 -1.421875 12.171875 6.21875 
Q 5.515625 13.875 5.515625 27.296875 
Q 5.515625 40.765625 12.171875 48.375 
Q 18.84375 56 30.609375 56 
z
" id="DejaVuSans-111"/>
       <path d="M 48.78125 52.59375 
L 48.78125 44.1875 
Q 44.96875 46.296875 41.140625 47.34375 
Q 37.3125 48.390625 33.40625 48.390625 
Q 24.65625 48.390625 19.8125 42.84375 
Q 14.984375 37.3125 14.984375 27.296875 
Q 14.984375 17.28125 19.8125 11.734375 
Q 24.65625 6.203125 33.40625 6.203125 
Q 37.3125 6.203125 41.140625 7.25 
Q 44.96875 8.296875 48.78125 10.40625 
L 48.78125 2.09375 
Q 45.015625 0.34375 40.984375 -0.53125 
Q 36.96875 -1.421875 32.421875 -1.421875 
Q 20.0625 -1.421875 12.78125 6.34375 
Q 5.515625 14.109375 5.515625 27.296875 
Q 5.515625 40.671875 12.859375 48.328125 
Q 20.21875 56 33.015625 56 
Q 37.15625 56 41.109375 55.140625 
Q 45.0625 54.296875 48.78125 52.59375 
z
" id="DejaVuSans-99"/>
       <path d="M 56.203125 29.59375 
L 56.203125 25.203125 
L 14.890625 25.203125 
Q 15.484375 15.921875 20.484375 11.0625 
Q 25.484375 6.203125 34.421875 6.203125 
Q 39.59375 6.203125 44.453125 7.46875 
Q 49.3125 8.734375 54.109375 11.28125 
L 54.109375 2.78125 
Q 49.265625 0.734375 44.1875 -0.34375 
Q 39.109375 -1.421875 33.890625 -1.421875 
Q 20.796875 -1.421875 13.15625 6.1875 
Q 5.515625 13.8125 5.515625 26.8125 
Q 5.515625 40.234375 12.765625 48.109375 
Q 20.015625 56 32.328125 56 
Q 43.359375 56 49.78125 48.890625 
Q 56.203125 41.796875 56.203125 29.59375 
z
M 47.21875 32.234375 
Q 47.125 39.59375 43.09375 43.984375 
Q 39.0625 48.390625 32.421875 48.390625 
Q 24.90625 48.390625 20.390625 44.140625 
Q 15.875 39.890625 15.1875 32.171875 
z
" id="DejaVuSans-101"/>
       <path d="M 44.28125 53.078125 
L 44.28125 44.578125 
Q 40.484375 46.53125 36.375 47.5 
Q 32.28125 48.484375 27.875 48.484375 
Q 21.1875 48.484375 17.84375 46.4375 
Q 14.5 44.390625 14.5 40.28125 
Q 14.5 37.15625 16.890625 35.375 
Q 19.28125 33.59375 26.515625 31.984375 
L 29.59375 31.296875 
Q 39.15625 29.25 43.1875 25.515625 
Q 47.21875 21.78125 47.21875 15.09375 
Q 47.21875 7.46875 41.1875 3.015625 
Q 35.15625 -1.421875 24.609375 -1.421875 
Q 20.21875 -1.421875 15.453125 -0.5625 
Q 10.6875 0.296875 5.421875 2 
L 5.421875 11.28125 
Q 10.40625 8.6875 15.234375 7.390625 
Q 20.0625 6.109375 24.8125 6.109375 
Q 31.15625 6.109375 34.5625 8.28125 
Q 37.984375 10.453125 37.984375 14.40625 
Q 37.984375 18.0625 35.515625 20.015625 
Q 33.0625 21.96875 24.703125 23.78125 
L 21.578125 24.515625 
Q 13.234375 26.265625 9.515625 29.90625 
Q 5.8125 33.546875 5.8125 39.890625 
Q 5.8125 47.609375 11.28125 51.796875 
Q 16.75 56 26.8125 56 
Q 31.78125 56 36.171875 55.265625 
Q 40.578125 54.546875 44.28125 53.078125 
z
" id="DejaVuSans-115"/>
       <path d="M 9.421875 54.6875 
L 18.40625 54.6875 
L 18.40625 0 
L 9.421875 0 
z
M 9.421875 75.984375 
L 18.40625 75.984375 
L 18.40625 64.59375 
L 9.421875 64.59375 
z
" id="DejaVuSans-105"/>
       <path d="M 54.890625 33.015625 
L 54.890625 0 
L 45.90625 0 
L 45.90625 32.71875 
Q 45.90625 40.484375 42.875 44.328125 
Q 39.84375 48.1875 33.796875 48.1875 
Q 26.515625 48.1875 22.3125 43.546875 
Q 18.109375 38.921875 18.109375 30.90625 
L 18.109375 0 
L 9.078125 0 
L 9.078125 54.6875 
L 18.109375 54.6875 
L 18.109375 46.1875 
Q 21.34375 51.125 25.703125 53.5625 
Q 30.078125 56 35.796875 56 
Q 45.21875 56 50.046875 50.171875 
Q 54.890625 44.34375 54.890625 33.015625 
z
" id="DejaVuSans-110"/>
       <path d="M 45.40625 27.984375 
Q 45.40625 37.75 41.375 43.109375 
Q 37.359375 48.484375 30.078125 48.484375 
Q 22.859375 48.484375 18.828125 43.109375 
Q 14.796875 37.75 14.796875 27.984375 
Q 14.796875 18.265625 18.828125 12.890625 
Q 22.859375 7.515625 30.078125 7.515625 
Q 37.359375 7.515625 41.375 12.890625 
Q 45.40625 18.265625 45.40625 27.984375 
z
M 54.390625 6.78125 
Q 54.390625 -7.171875 48.1875 -13.984375 
Q 42 -20.796875 29.203125 -20.796875 
Q 24.46875 -20.796875 20.265625 -20.09375 
Q 16.0625 -19.390625 12.109375 -17.921875 
L 12.109375 -9.1875 
Q 16.0625 -11.328125 19.921875 -12.34375 
Q 23.78125 -13.375 27.78125 -13.375 
Q 36.625 -13.375 41.015625 -8.765625 
Q 45.40625 -4.15625 45.40625 5.171875 
L 45.40625 9.625 
Q 42.625 4.78125 38.28125 2.390625 
Q 33.9375 0 27.875 0 
Q 17.828125 0 11.671875 7.65625 
Q 5.515625 15.328125 5.515625 27.984375 
Q 5.515625 40.671875 11.671875 48.328125 
Q 17.828125 56 27.875 56 
Q 33.9375 56 38.28125 53.609375 
Q 42.625 51.21875 45.40625 46.390625 
L 45.40625 54.6875 
L 54.390625 54.6875 
z
" id="DejaVuSans-103"/>
       <path id="DejaVuSans-32"/>
       <path d="M 18.3125 70.21875 
L 18.3125 54.6875 
L 36.8125 54.6875 
L 36.8125 47.703125 
L 18.3125 47.703125 
L 18.3125 18.015625 
Q 18.3125 11.328125 20.140625 9.421875 
Q 21.96875 7.515625 27.59375 7.515625 
L 36.8125 7.515625 
L 36.8125 0 
L 27.59375 0 
Q 17.1875 0 13.234375 3.875 
Q 9.28125 7.765625 9.28125 18.015625 
L 9.28125 47.703125 
L 2.6875 47.703125 
L 2.6875 54.6875 
L 9.28125 54.6875 
L 9.28125 70.21875 
z
" id="DejaVuSans-116"/>
       <path d="M 52 44.1875 
Q 55.375 50.25 60.0625 53.125 
Q 64.75 56 71.09375 56 
Q 79.640625 56 84.28125 50.015625 
Q 88.921875 44.046875 88.921875 33.015625 
L 88.921875 0 
L 79.890625 0 
L 79.890625 32.71875 
Q 79.890625 40.578125 77.09375 44.375 
Q 74.3125 48.1875 68.609375 48.1875 
Q 61.625 48.1875 57.5625 43.546875 
Q 53.515625 38.921875 53.515625 30.90625 
L 53.515625 0 
L 44.484375 0 
L 44.484375 32.71875 
Q 44.484375 40.625 41.703125 44.40625 
Q 38.921875 48.1875 33.109375 48.1875 
Q 26.21875 48.1875 22.15625 43.53125 
Q 18.109375 38.875 18.109375 30.90625 
L 18.109375 0 
L 9.078125 0 
L 9.078125 54.6875 
L 18.109375 54.6875 
L 18.109375 46.1875 
Q 21.1875 51.21875 25.484375 53.609375 
Q 29.78125 56 35.6875 56 
Q 41.65625 56 45.828125 52.96875 
Q 50 49.953125 52 44.1875 
z
" id="DejaVuSans-109"/>
       <path d="M 8.59375 75.984375 
L 29.296875 75.984375 
L 29.296875 69 
L 17.578125 69 
L 17.578125 -6.203125 
L 29.296875 -6.203125 
L 29.296875 -13.1875 
L 8.59375 -13.1875 
z
" id="DejaVuSans-91"/>
       <path d="M 30.421875 75.984375 
L 30.421875 -13.1875 
L 9.71875 -13.1875 
L 9.71875 -6.203125 
L 21.390625 -6.203125 
L 21.390625 69 
L 9.71875 69 
L 9.71875 75.984375 
z
" id="DejaVuSans-93"/>
      </defs>
      <use xlink:href="#DejaVuSans-80"/>
      <use x="58.552734" xlink:href="#DejaVuSans-114"/>
      <use x="97.416016" xlink:href="#DejaVuSans-111"/>
      <use x="158.597656" xlink:href="#DejaVuSans-99"/>
      <use x="213.578125" xlink:href="#DejaVuSans-101"/>
      <use x="275.101562" xlink:href="#DejaVuSans-115"/>
      <use x="327.201172" xlink:href="#DejaVuSans-115"/>
      <use x="379.300781" xlink:href="#DejaVuSans-105"/>
      <use x="407.083984" xlink:href="#DejaVuSans-110"/>
      <use x="470.462891" xlink:href="#DejaVuSans-103"/>
      <use x="533.939453" xlink:href="#DejaVuSans-32"/>
      <use x="565.726562" xlink:href="#DejaVuSans-116"/>
      <use x="604.935547" xlink:href="#DejaVuSans-105"/>
      <use x="632.71875" xlink:href="#DejaVuSans-109"/>
      <use x="730.130859" xlink:href="#DejaVuSans-101"/>
      <use x="791.654297" xlink:href="#DejaVuSans-32"/>
      <use x="823.441406" xlink:href="#DejaVuSans-91"/>
      <use x="862.455078" xlink:href="#DejaVuSans-109"/>
      <use x="959.867188" xlink:href="#DejaVuSans-105"/>
      <use x="987.650391" xlink:href="#DejaVuSans-110"/>
      <use x="1051.029297" xlink:href="#DejaVuSans-93"/>
     </g>
    </g>
   </g>
   <g id="matplotlib.axis_2">
    <g id="ytick_1">
     <g id="line2d_5">
      <path clip-path="url(#p4ea4147a50)" d="M 48.89 210.757586 
L 241.2 210.757586 
" style="fill:none;stroke:#000000;stroke-dasharray:0.37,0.16;stroke-dashoffset:0;stroke-opacity:0.5;stroke-width:0.1;"/>
     </g>
     <g id="line2d_6">
      <defs>
       <path d="M 0 0 
L -3.5 0 
" id="mbf18fbc2bf" style="stroke:#000000;stroke-width:0.8;"/>
      </defs>
      <g>
       <use style="stroke:#000000;stroke-width:0.8;" x="48.89" xlink:href="#mbf18fbc2bf" y="210.757586"/>
      </g>
     </g>
     <g id="text_6">
      <!-- 20 -->
      <g transform="translate(29.165 214.556805)scale(0.1 -0.1)">
       <defs>
        <path d="M 19.1875 8.296875 
L 53.609375 8.296875 
L 53.609375 0 
L 7.328125 0 
L 7.328125 8.296875 
Q 12.9375 14.109375 22.625 23.890625 
Q 32.328125 33.6875 34.8125 36.53125 
Q 39.546875 41.84375 41.421875 45.53125 
Q 43.3125 49.21875 43.3125 52.78125 
Q 43.3125 58.59375 39.234375 62.25 
Q 35.15625 65.921875 28.609375 65.921875 
Q 23.96875 65.921875 18.8125 64.3125 
Q 13.671875 62.703125 7.8125 59.421875 
L 7.8125 69.390625 
Q 13.765625 71.78125 18.9375 73 
Q 24.125 74.21875 28.421875 74.21875 
Q 39.75 74.21875 46.484375 68.546875 
Q 53.21875 62.890625 53.21875 53.421875 
Q 53.21875 48.921875 51.53125 44.890625 
Q 49.859375 40.875 45.40625 35.40625 
Q 44.1875 33.984375 37.640625 27.21875 
Q 31.109375 20.453125 19.1875 8.296875 
z
" id="DejaVuSans-50"/>
       </defs>
       <use xlink:href="#DejaVuSans-50"/>
       <use x="63.623047" xlink:href="#DejaVuSans-48"/>
      </g>
     </g>
    </g>
    <g id="ytick_2">
     <g id="line2d_7">
      <path clip-path="url(#p4ea4147a50)" d="M 48.89 178.384707 
L 241.2 178.384707 
" style="fill:none;stroke:#000000;stroke-dasharray:0.37,0.16;stroke-dashoffset:0;stroke-opacity:0.5;stroke-width:0.1;"/>
     </g>
     <g id="line2d_8">
      <g>
       <use style="stroke:#000000;stroke-width:0.8;" x="48.89" xlink:href="#mbf18fbc2bf" y="178.384707"/>
      </g>
     </g>
     <g id="text_7">
      <!-- 30 -->
      <g transform="translate(29.165 182.183926)scale(0.1 -0.1)">
       <defs>
        <path d="M 40.578125 39.3125 
Q 47.65625 37.796875 51.625 33 
Q 55.609375 28.21875 55.609375 21.1875 
Q 55.609375 10.40625 48.1875 4.484375 
Q 40.765625 -1.421875 27.09375 -1.421875 
Q 22.515625 -1.421875 17.65625 -0.515625 
Q 12.796875 0.390625 7.625 2.203125 
L 7.625 11.71875 
Q 11.71875 9.328125 16.59375 8.109375 
Q 21.484375 6.890625 26.8125 6.890625 
Q 36.078125 6.890625 40.9375 10.546875 
Q 45.796875 14.203125 45.796875 21.1875 
Q 45.796875 27.640625 41.28125 31.265625 
Q 36.765625 34.90625 28.71875 34.90625 
L 20.21875 34.90625 
L 20.21875 43.015625 
L 29.109375 43.015625 
Q 36.375 43.015625 40.234375 45.921875 
Q 44.09375 48.828125 44.09375 54.296875 
Q 44.09375 59.90625 40.109375 62.90625 
Q 36.140625 65.921875 28.71875 65.921875 
Q 24.65625 65.921875 20.015625 65.03125 
Q 15.375 64.15625 9.8125 62.3125 
L 9.8125 71.09375 
Q 15.4375 72.65625 20.34375 73.4375 
Q 25.25 74.21875 29.59375 74.21875 
Q 40.828125 74.21875 47.359375 69.109375 
Q 53.90625 64.015625 53.90625 55.328125 
Q 53.90625 49.265625 50.4375 45.09375 
Q 46.96875 40.921875 40.578125 39.3125 
z
" id="DejaVuSans-51"/>
       </defs>
       <use xlink:href="#DejaVuSans-51"/>
       <use x="63.623047" xlink:href="#DejaVuSans-48"/>
      </g>
     </g>
    </g>
    <g id="ytick_3">
     <g id="line2d_9">
      <path clip-path="url(#p4ea4147a50)" d="M 48.89 146.011829 
L 241.2 146.011829 
" style="fill:none;stroke:#000000;stroke-dasharray:0.37,0.16;stroke-dashoffset:0;stroke-opacity:0.5;stroke-width:0.1;"/>
     </g>
     <g id="line2d_10">
      <g>
       <use style="stroke:#000000;stroke-width:0.8;" x="48.89" xlink:href="#mbf18fbc2bf" y="146.011829"/>
      </g>
     </g>
     <g id="text_8">
      <!-- 40 -->
      <g transform="translate(29.165 149.811048)scale(0.1 -0.1)">
       <defs>
        <path d="M 37.796875 64.3125 
L 12.890625 25.390625 
L 37.796875 25.390625 
z
M 35.203125 72.90625 
L 47.609375 72.90625 
L 47.609375 25.390625 
L 58.015625 25.390625 
L 58.015625 17.1875 
L 47.609375 17.1875 
L 47.609375 0 
L 37.796875 0 
L 37.796875 17.1875 
L 4.890625 17.1875 
L 4.890625 26.703125 
z
" id="DejaVuSans-52"/>
       </defs>
       <use xlink:href="#DejaVuSans-52"/>
       <use x="63.623047" xlink:href="#DejaVuSans-48"/>
      </g>
     </g>
    </g>
    <g id="ytick_4">
     <g id="line2d_11">
      <path clip-path="url(#p4ea4147a50)" d="M 48.89 113.63895 
L 241.2 113.63895 
" style="fill:none;stroke:#000000;stroke-dasharray:0.37,0.16;stroke-dashoffset:0;stroke-opacity:0.5;stroke-width:0.1;"/>
     </g>
     <g id="line2d_12">
      <g>
       <use style="stroke:#000000;stroke-width:0.8;" x="48.89" xlink:href="#mbf18fbc2bf" y="113.63895"/>
      </g>
     </g>
     <g id="text_9">
      <!-- 50 -->
      <g transform="translate(29.165 117.438169)scale(0.1 -0.1)">
       <use xlink:href="#DejaVuSans-53"/>
       <use x="63.623047" xlink:href="#DejaVuSans-48"/>
      </g>
     </g>
    </g>
    <g id="ytick_5">
     <g id="line2d_13">
      <path clip-path="url(#p4ea4147a50)" d="M 48.89 81.266072 
L 241.2 81.266072 
" style="fill:none;stroke:#000000;stroke-dasharray:0.37,0.16;stroke-dashoffset:0;stroke-opacity:0.5;stroke-width:0.1;"/>
     </g>
     <g id="line2d_14">
      <g>
       <use style="stroke:#000000;stroke-width:0.8;" x="48.89" xlink:href="#mbf18fbc2bf" y="81.266072"/>
      </g>
     </g>
     <g id="text_10">
      <!-- 60 -->
      <g transform="translate(29.165 85.065291)scale(0.1 -0.1)">
       <defs>
        <path d="M 33.015625 40.375 
Q 26.375 40.375 22.484375 35.828125 
Q 18.609375 31.296875 18.609375 23.390625 
Q 18.609375 15.53125 22.484375 10.953125 
Q 26.375 6.390625 33.015625 6.390625 
Q 39.65625 6.390625 43.53125 10.953125 
Q 47.40625 15.53125 47.40625 23.390625 
Q 47.40625 31.296875 43.53125 35.828125 
Q 39.65625 40.375 33.015625 40.375 
z
M 52.59375 71.296875 
L 52.59375 62.3125 
Q 48.875 64.0625 45.09375 64.984375 
Q 41.3125 65.921875 37.59375 65.921875 
Q 27.828125 65.921875 22.671875 59.328125 
Q 17.53125 52.734375 16.796875 39.40625 
Q 19.671875 43.65625 24.015625 45.921875 
Q 28.375 48.1875 33.59375 48.1875 
Q 44.578125 48.1875 50.953125 41.515625 
Q 57.328125 34.859375 57.328125 23.390625 
Q 57.328125 12.15625 50.6875 5.359375 
Q 44.046875 -1.421875 33.015625 -1.421875 
Q 20.359375 -1.421875 13.671875 8.265625 
Q 6.984375 17.96875 6.984375 36.375 
Q 6.984375 53.65625 15.1875 63.9375 
Q 23.390625 74.21875 37.203125 74.21875 
Q 40.921875 74.21875 44.703125 73.484375 
Q 48.484375 72.75 52.59375 71.296875 
z
" id="DejaVuSans-54"/>
       </defs>
       <use xlink:href="#DejaVuSans-54"/>
       <use x="63.623047" xlink:href="#DejaVuSans-48"/>
      </g>
     </g>
    </g>
    <g id="ytick_6">
     <g id="line2d_15">
      <path clip-path="url(#p4ea4147a50)" d="M 48.89 48.893194 
L 241.2 48.893194 
" style="fill:none;stroke:#000000;stroke-dasharray:0.37,0.16;stroke-dashoffset:0;stroke-opacity:0.5;stroke-width:0.1;"/>
     </g>
     <g id="line2d_16">
      <g>
       <use style="stroke:#000000;stroke-width:0.8;" x="48.89" xlink:href="#mbf18fbc2bf" y="48.893194"/>
      </g>
     </g>
     <g id="text_11">
      <!-- 70 -->
      <g transform="translate(29.165 52.692412)scale(0.1 -0.1)">
       <defs>
        <path d="M 8.203125 72.90625 
L 55.078125 72.90625 
L 55.078125 68.703125 
L 28.609375 0 
L 18.3125 0 
L 43.21875 64.59375 
L 8.203125 64.59375 
z
" id="DejaVuSans-55"/>
       </defs>
       <use xlink:href="#DejaVuSans-55"/>
       <use x="63.623047" xlink:href="#DejaVuSans-48"/>
      </g>
     </g>
    </g>
    <g id="text_12">
     <!-- Accuracy [per] -->
     <g transform="translate(21.8375 192.9)rotate(-90)scale(0.16 -0.16)">
      <defs>
       <path d="M 34.1875 63.1875 
L 20.796875 26.90625 
L 47.609375 26.90625 
z
M 28.609375 72.90625 
L 39.796875 72.90625 
L 67.578125 0 
L 57.328125 0 
L 50.6875 18.703125 
L 17.828125 18.703125 
L 11.1875 0 
L 0.78125 0 
z
" id="DejaVuSans-65"/>
       <path d="M 8.5 21.578125 
L 8.5 54.6875 
L 17.484375 54.6875 
L 17.484375 21.921875 
Q 17.484375 14.15625 20.5 10.265625 
Q 23.53125 6.390625 29.59375 6.390625 
Q 36.859375 6.390625 41.078125 11.03125 
Q 45.3125 15.671875 45.3125 23.6875 
L 45.3125 54.6875 
L 54.296875 54.6875 
L 54.296875 0 
L 45.3125 0 
L 45.3125 8.40625 
Q 42.046875 3.421875 37.71875 1 
Q 33.40625 -1.421875 27.6875 -1.421875 
Q 18.265625 -1.421875 13.375 4.4375 
Q 8.5 10.296875 8.5 21.578125 
z
M 31.109375 56 
z
" id="DejaVuSans-117"/>
       <path d="M 34.28125 27.484375 
Q 23.390625 27.484375 19.1875 25 
Q 14.984375 22.515625 14.984375 16.5 
Q 14.984375 11.71875 18.140625 8.90625 
Q 21.296875 6.109375 26.703125 6.109375 
Q 34.1875 6.109375 38.703125 11.40625 
Q 43.21875 16.703125 43.21875 25.484375 
L 43.21875 27.484375 
z
M 52.203125 31.203125 
L 52.203125 0 
L 43.21875 0 
L 43.21875 8.296875 
Q 40.140625 3.328125 35.546875 0.953125 
Q 30.953125 -1.421875 24.3125 -1.421875 
Q 15.921875 -1.421875 10.953125 3.296875 
Q 6 8.015625 6 15.921875 
Q 6 25.140625 12.171875 29.828125 
Q 18.359375 34.515625 30.609375 34.515625 
L 43.21875 34.515625 
L 43.21875 35.40625 
Q 43.21875 41.609375 39.140625 45 
Q 35.0625 48.390625 27.6875 48.390625 
Q 23 48.390625 18.546875 47.265625 
Q 14.109375 46.140625 10.015625 43.890625 
L 10.015625 52.203125 
Q 14.9375 54.109375 19.578125 55.046875 
Q 24.21875 56 28.609375 56 
Q 40.484375 56 46.34375 49.84375 
Q 52.203125 43.703125 52.203125 31.203125 
z
" id="DejaVuSans-97"/>
       <path d="M 32.171875 -5.078125 
Q 28.375 -14.84375 24.75 -17.8125 
Q 21.140625 -20.796875 15.09375 -20.796875 
L 7.90625 -20.796875 
L 7.90625 -13.28125 
L 13.1875 -13.28125 
Q 16.890625 -13.28125 18.9375 -11.515625 
Q 21 -9.765625 23.484375 -3.21875 
L 25.09375 0.875 
L 2.984375 54.6875 
L 12.5 54.6875 
L 29.59375 11.921875 
L 46.6875 54.6875 
L 56.203125 54.6875 
z
" id="DejaVuSans-121"/>
       <path d="M 18.109375 8.203125 
L 18.109375 -20.796875 
L 9.078125 -20.796875 
L 9.078125 54.6875 
L 18.109375 54.6875 
L 18.109375 46.390625 
Q 20.953125 51.265625 25.265625 53.625 
Q 29.59375 56 35.59375 56 
Q 45.5625 56 51.78125 48.09375 
Q 58.015625 40.1875 58.015625 27.296875 
Q 58.015625 14.40625 51.78125 6.484375 
Q 45.5625 -1.421875 35.59375 -1.421875 
Q 29.59375 -1.421875 25.265625 0.953125 
Q 20.953125 3.328125 18.109375 8.203125 
z
M 48.6875 27.296875 
Q 48.6875 37.203125 44.609375 42.84375 
Q 40.53125 48.484375 33.40625 48.484375 
Q 26.265625 48.484375 22.1875 42.84375 
Q 18.109375 37.203125 18.109375 27.296875 
Q 18.109375 17.390625 22.1875 11.75 
Q 26.265625 6.109375 33.40625 6.109375 
Q 40.53125 6.109375 44.609375 11.75 
Q 48.6875 17.390625 48.6875 27.296875 
z
" id="DejaVuSans-112"/>
      </defs>
      <use xlink:href="#DejaVuSans-65"/>
      <use x="66.658203" xlink:href="#DejaVuSans-99"/>
      <use x="121.638672" xlink:href="#DejaVuSans-99"/>
      <use x="176.619141" xlink:href="#DejaVuSans-117"/>
      <use x="239.998047" xlink:href="#DejaVuSans-114"/>
      <use x="281.111328" xlink:href="#DejaVuSans-97"/>
      <use x="342.390625" xlink:href="#DejaVuSans-99"/>
      <use x="397.371094" xlink:href="#DejaVuSans-121"/>
      <use x="456.550781" xlink:href="#DejaVuSans-32"/>
      <use x="488.337891" xlink:href="#DejaVuSans-91"/>
      <use x="527.351562" xlink:href="#DejaVuSans-112"/>
      <use x="590.828125" xlink:href="#DejaVuSans-101"/>
      <use x="652.351562" xlink:href="#DejaVuSans-114"/>
      <use x="693.464844" xlink:href="#DejaVuSans-93"/>
     </g>
    </g>
   </g>
   <g id="LineCollection_1">
    <path clip-path="url(#p4ea4147a50)" d="M 57.631364 231.954545 
L 57.631364 230.424101 
" style="fill:none;stroke:#c7c7c7;stroke-width:1.5;"/>
    <path clip-path="url(#p4ea4147a50)" d="M 59.737716 220.48463 
L 59.737716 217.03286 
" style="fill:none;stroke:#c7c7c7;stroke-width:1.5;"/>
    <path clip-path="url(#p4ea4147a50)" d="M 61.844069 212.70313 
L 61.844069 210.954317 
" style="fill:none;stroke:#c7c7c7;stroke-width:1.5;"/>
    <path clip-path="url(#p4ea4147a50)" d="M 63.950422 207.88996 
L 63.950422 205.29041 
" style="fill:none;stroke:#c7c7c7;stroke-width:1.5;"/>
    <path clip-path="url(#p4ea4147a50)" d="M 66.056774 201.433018 
L 66.056774 199.086453 
" style="fill:none;stroke:#c7c7c7;stroke-width:1.5;"/>
    <path clip-path="url(#p4ea4147a50)" d="M 68.163127 200.162644 
L 68.163127 195.599499 
" style="fill:none;stroke:#c7c7c7;stroke-width:1.5;"/>
    <path clip-path="url(#p4ea4147a50)" d="M 70.26948 195.027769 
L 70.26948 191.295251 
" style="fill:none;stroke:#c7c7c7;stroke-width:1.5;"/>
    <path clip-path="url(#p4ea4147a50)" d="M 72.375832 189.697459 
L 72.375832 186.143628 
" style="fill:none;stroke:#c7c7c7;stroke-width:1.5;"/>
    <path clip-path="url(#p4ea4147a50)" d="M 74.482185 186.471738 
L 74.482185 183.368766 
" style="fill:none;stroke:#c7c7c7;stroke-width:1.5;"/>
    <path clip-path="url(#p4ea4147a50)" d="M 76.588538 184.964952 
L 76.588538 181.469386 
" style="fill:none;stroke:#c7c7c7;stroke-width:1.5;"/>
    <path clip-path="url(#p4ea4147a50)" d="M 78.69489 182.97739 
L 78.69489 178.963323 
" style="fill:none;stroke:#c7c7c7;stroke-width:1.5;"/>
    <path clip-path="url(#p4ea4147a50)" d="M 80.801243 179.673819 
L 80.801243 175.80176 
" style="fill:none;stroke:#c7c7c7;stroke-width:1.5;"/>
    <path clip-path="url(#p4ea4147a50)" d="M 82.907596 177.9806 
L 82.907596 173.847904 
" style="fill:none;stroke:#c7c7c7;stroke-width:1.5;"/>
    <path clip-path="url(#p4ea4147a50)" d="M 85.013949 173.601762 
L 85.013949 170.157532 
" style="fill:none;stroke:#c7c7c7;stroke-width:1.5;"/>
    <path clip-path="url(#p4ea4147a50)" d="M 87.120301 172.082217 
L 87.120301 169.101681 
" style="fill:none;stroke:#c7c7c7;stroke-width:1.5;"/>
    <path clip-path="url(#p4ea4147a50)" d="M 89.226654 171.999352 
L 89.226654 168.40827 
" style="fill:none;stroke:#c7c7c7;stroke-width:1.5;"/>
    <path clip-path="url(#p4ea4147a50)" d="M 91.333007 169.878849 
L 91.333007 165.832008 
" style="fill:none;stroke:#c7c7c7;stroke-width:1.5;"/>
    <path clip-path="url(#p4ea4147a50)" d="M 93.439359 167.418283 
L 93.439359 164.457603 
" style="fill:none;stroke:#c7c7c7;stroke-width:1.5;"/>
    <path clip-path="url(#p4ea4147a50)" d="M 95.545712 164.897426 
L 95.545712 162.646833 
" style="fill:none;stroke:#c7c7c7;stroke-width:1.5;"/>
    <path clip-path="url(#p4ea4147a50)" d="M 97.652065 162.794271 
L 97.652065 159.548611 
" style="fill:none;stroke:#c7c7c7;stroke-width:1.5;"/>
    <path clip-path="url(#p4ea4147a50)" d="M 99.758417 161.127343 
L 99.758417 158.013186 
" style="fill:none;stroke:#c7c7c7;stroke-width:1.5;"/>
    <path clip-path="url(#p4ea4147a50)" d="M 101.86477 159.050667 
L 101.86477 157.364606 
" style="fill:none;stroke:#c7c7c7;stroke-width:1.5;"/>
    <path clip-path="url(#p4ea4147a50)" d="M 103.971123 160.016479 
L 103.971123 156.224925 
" style="fill:none;stroke:#c7c7c7;stroke-width:1.5;"/>
    <path clip-path="url(#p4ea4147a50)" d="M 106.077475 159.295713 
L 106.077475 156.484917 
" style="fill:none;stroke:#c7c7c7;stroke-width:1.5;"/>
    <path clip-path="url(#p4ea4147a50)" d="M 108.183828 157.565243 
L 108.183828 153.71124 
" style="fill:none;stroke:#c7c7c7;stroke-width:1.5;"/>
    <path clip-path="url(#p4ea4147a50)" d="M 110.290181 156.641209 
L 110.290181 153.2021 
" style="fill:none;stroke:#c7c7c7;stroke-width:1.5;"/>
    <path clip-path="url(#p4ea4147a50)" d="M 112.396533 156.035352 
L 112.396533 153.019543 
" style="fill:none;stroke:#c7c7c7;stroke-width:1.5;"/>
    <path clip-path="url(#p4ea4147a50)" d="M 114.502886 154.590341 
L 114.502886 151.420424 
" style="fill:none;stroke:#c7c7c7;stroke-width:1.5;"/>
    <path clip-path="url(#p4ea4147a50)" d="M 116.609239 152.904067 
L 116.609239 150.163194 
" style="fill:none;stroke:#c7c7c7;stroke-width:1.5;"/>
    <path clip-path="url(#p4ea4147a50)" d="M 118.715591 153.633436 
L 118.715591 149.642495 
" style="fill:none;stroke:#c7c7c7;stroke-width:1.5;"/>
    <path clip-path="url(#p4ea4147a50)" d="M 120.821944 151.69477 
L 120.821944 148.900687 
" style="fill:none;stroke:#c7c7c7;stroke-width:1.5;"/>
    <path clip-path="url(#p4ea4147a50)" d="M 122.928297 154.650467 
L 122.928297 150.129994 
" style="fill:none;stroke:#c7c7c7;stroke-width:1.5;"/>
    <path clip-path="url(#p4ea4147a50)" d="M 125.03465 150.547762 
L 125.03465 146.68739 
" style="fill:none;stroke:#c7c7c7;stroke-width:1.5;"/>
    <path clip-path="url(#p4ea4147a50)" d="M 127.141002 148.128034 
L 127.141002 145.697715 
" style="fill:none;stroke:#c7c7c7;stroke-width:1.5;"/>
    <path clip-path="url(#p4ea4147a50)" d="M 129.247355 149.085024 
L 129.247355 146.187792 
" style="fill:none;stroke:#c7c7c7;stroke-width:1.5;"/>
    <path clip-path="url(#p4ea4147a50)" d="M 131.353708 146.91324 
L 131.353708 144.039685 
" style="fill:none;stroke:#c7c7c7;stroke-width:1.5;"/>
    <path clip-path="url(#p4ea4147a50)" d="M 133.46006 145.543281 
L 133.46006 141.72696 
" style="fill:none;stroke:#c7c7c7;stroke-width:1.5;"/>
    <path clip-path="url(#p4ea4147a50)" d="M 135.566413 145.168453 
L 135.566413 142.078317 
" style="fill:none;stroke:#c7c7c7;stroke-width:1.5;"/>
    <path clip-path="url(#p4ea4147a50)" d="M 137.672766 144.44473 
L 137.672766 141.784587 
" style="fill:none;stroke:#c7c7c7;stroke-width:1.5;"/>
    <path clip-path="url(#p4ea4147a50)" d="M 139.779118 143.756009 
L 139.779118 141.588045 
" style="fill:none;stroke:#c7c7c7;stroke-width:1.5;"/>
    <path clip-path="url(#p4ea4147a50)" d="M 141.885471 144.838582 
L 141.885471 141.33098 
" style="fill:none;stroke:#c7c7c7;stroke-width:1.5;"/>
    <path clip-path="url(#p4ea4147a50)" d="M 143.991824 144.00283 
L 143.991824 140.455556 
" style="fill:none;stroke:#c7c7c7;stroke-width:1.5;"/>
    <path clip-path="url(#p4ea4147a50)" d="M 146.098176 141.354101 
L 146.098176 139.391656 
" style="fill:none;stroke:#c7c7c7;stroke-width:1.5;"/>
    <path clip-path="url(#p4ea4147a50)" d="M 148.204529 139.414597 
L 148.204529 137.272275 
" style="fill:none;stroke:#c7c7c7;stroke-width:1.5;"/>
    <path clip-path="url(#p4ea4147a50)" d="M 150.310882 140.715289 
L 150.310882 137.80119 
" style="fill:none;stroke:#c7c7c7;stroke-width:1.5;"/>
    <path clip-path="url(#p4ea4147a50)" d="M 152.417234 139.075048 
L 152.417234 136.783617 
" style="fill:none;stroke:#c7c7c7;stroke-width:1.5;"/>
    <path clip-path="url(#p4ea4147a50)" d="M 154.523587 141.40703 
L 154.523587 136.950417 
" style="fill:none;stroke:#c7c7c7;stroke-width:1.5;"/>
    <path clip-path="url(#p4ea4147a50)" d="M 156.62994 137.964508 
L 156.62994 134.337592 
" style="fill:none;stroke:#c7c7c7;stroke-width:1.5;"/>
    <path clip-path="url(#p4ea4147a50)" d="M 158.736292 135.384181 
L 158.736292 133.243328 
" style="fill:none;stroke:#c7c7c7;stroke-width:1.5;"/>
    <path clip-path="url(#p4ea4147a50)" d="M 160.842645 134.966873 
L 160.842645 132.404568 
" style="fill:none;stroke:#c7c7c7;stroke-width:1.5;"/>
    <path clip-path="url(#p4ea4147a50)" d="M 162.948998 136.515553 
L 162.948998 134.514563 
" style="fill:none;stroke:#c7c7c7;stroke-width:1.5;"/>
    <path clip-path="url(#p4ea4147a50)" d="M 165.05535 134.944572 
L 165.05535 132.344184 
" style="fill:none;stroke:#c7c7c7;stroke-width:1.5;"/>
    <path clip-path="url(#p4ea4147a50)" d="M 167.161703 135.498084 
L 167.161703 132.038998 
" style="fill:none;stroke:#c7c7c7;stroke-width:1.5;"/>
    <path clip-path="url(#p4ea4147a50)" d="M 169.268056 132.946928 
L 169.268056 130.010876 
" style="fill:none;stroke:#c7c7c7;stroke-width:1.5;"/>
    <path clip-path="url(#p4ea4147a50)" d="M 171.374409 131.399506 
L 171.374409 128.880926 
" style="fill:none;stroke:#c7c7c7;stroke-width:1.5;"/>
    <path clip-path="url(#p4ea4147a50)" d="M 173.480761 136.250366 
L 173.480761 132.061372 
" style="fill:none;stroke:#c7c7c7;stroke-width:1.5;"/>
    <path clip-path="url(#p4ea4147a50)" d="M 175.587114 131.32273 
L 175.587114 129.210481 
" style="fill:none;stroke:#c7c7c7;stroke-width:1.5;"/>
    <path clip-path="url(#p4ea4147a50)" d="M 177.693467 132.087214 
L 177.693467 129.474509 
" style="fill:none;stroke:#c7c7c7;stroke-width:1.5;"/>
    <path clip-path="url(#p4ea4147a50)" d="M 179.799819 130.68004 
L 179.799819 127.379747 
" style="fill:none;stroke:#c7c7c7;stroke-width:1.5;"/>
    <path clip-path="url(#p4ea4147a50)" d="M 181.906172 129.347762 
L 181.906172 127.563058 
" style="fill:none;stroke:#c7c7c7;stroke-width:1.5;"/>
    <path clip-path="url(#p4ea4147a50)" d="M 184.012525 131.222574 
L 184.012525 128.078578 
" style="fill:none;stroke:#c7c7c7;stroke-width:1.5;"/>
    <path clip-path="url(#p4ea4147a50)" d="M 186.118877 130.579115 
L 186.118877 127.65643 
" style="fill:none;stroke:#c7c7c7;stroke-width:1.5;"/>
    <path clip-path="url(#p4ea4147a50)" d="M 188.22523 129.354652 
L 188.22523 127.306492 
" style="fill:none;stroke:#c7c7c7;stroke-width:1.5;"/>
    <path clip-path="url(#p4ea4147a50)" d="M 190.331583 128.539404 
L 190.331583 126.769363 
" style="fill:none;stroke:#c7c7c7;stroke-width:1.5;"/>
    <path clip-path="url(#p4ea4147a50)" d="M 192.437935 127.763491 
L 192.437935 125.254895 
" style="fill:none;stroke:#c7c7c7;stroke-width:1.5;"/>
    <path clip-path="url(#p4ea4147a50)" d="M 194.544288 127.170248 
L 194.544288 124.564149 
" style="fill:none;stroke:#c7c7c7;stroke-width:1.5;"/>
    <path clip-path="url(#p4ea4147a50)" d="M 196.650641 127.776091 
L 196.650641 125.029848 
" style="fill:none;stroke:#c7c7c7;stroke-width:1.5;"/>
    <path clip-path="url(#p4ea4147a50)" d="M 198.756993 125.59601 
L 198.756993 122.787793 
" style="fill:none;stroke:#c7c7c7;stroke-width:1.5;"/>
    <path clip-path="url(#p4ea4147a50)" d="M 200.863346 125.494132 
L 200.863346 122.650113 
" style="fill:none;stroke:#c7c7c7;stroke-width:1.5;"/>
    <path clip-path="url(#p4ea4147a50)" d="M 202.969699 123.819186 
L 202.969699 121.691795 
" style="fill:none;stroke:#c7c7c7;stroke-width:1.5;"/>
    <path clip-path="url(#p4ea4147a50)" d="M 205.076051 124.835512 
L 205.076051 122.280893 
" style="fill:none;stroke:#c7c7c7;stroke-width:1.5;"/>
    <path clip-path="url(#p4ea4147a50)" d="M 207.182404 126.041567 
L 207.182404 122.772526 
" style="fill:none;stroke:#c7c7c7;stroke-width:1.5;"/>
    <path clip-path="url(#p4ea4147a50)" d="M 209.288757 122.999 
L 209.288757 120.207976 
" style="fill:none;stroke:#c7c7c7;stroke-width:1.5;"/>
    <path clip-path="url(#p4ea4147a50)" d="M 211.39511 123.090607 
L 211.39511 120.800786 
" style="fill:none;stroke:#c7c7c7;stroke-width:1.5;"/>
    <path clip-path="url(#p4ea4147a50)" d="M 213.501462 124.019651 
L 213.501462 121.443175 
" style="fill:none;stroke:#c7c7c7;stroke-width:1.5;"/>
    <path clip-path="url(#p4ea4147a50)" d="M 215.607815 122.566449 
L 215.607815 119.959078 
" style="fill:none;stroke:#c7c7c7;stroke-width:1.5;"/>
    <path clip-path="url(#p4ea4147a50)" d="M 217.714168 123.889975 
L 217.714168 120.896932 
" style="fill:none;stroke:#c7c7c7;stroke-width:1.5;"/>
    <path clip-path="url(#p4ea4147a50)" d="M 219.82052 122.150681 
L 219.82052 119.238828 
" style="fill:none;stroke:#c7c7c7;stroke-width:1.5;"/>
    <path clip-path="url(#p4ea4147a50)" d="M 221.926873 120.671264 
L 221.926873 118.051663 
" style="fill:none;stroke:#c7c7c7;stroke-width:1.5;"/>
    <path clip-path="url(#p4ea4147a50)" d="M 224.033226 121.436199 
L 224.033226 117.782439 
" style="fill:none;stroke:#c7c7c7;stroke-width:1.5;"/>
    <path clip-path="url(#p4ea4147a50)" d="M 226.139578 121.091901 
L 226.139578 118.293861 
" style="fill:none;stroke:#c7c7c7;stroke-width:1.5;"/>
   </g>
   <g id="LineCollection_2">
    <path clip-path="url(#p4ea4147a50)" d="M 57.631364 209.761374 
L 57.631364 208.240531 
" style="fill:none;stroke:#98df8a;stroke-width:1.5;"/>
    <path clip-path="url(#p4ea4147a50)" d="M 59.737716 172.289763 
L 59.737716 170.495243 
" style="fill:none;stroke:#98df8a;stroke-width:1.5;"/>
    <path clip-path="url(#p4ea4147a50)" d="M 61.844069 157.176487 
L 61.844069 153.763723 
" style="fill:none;stroke:#98df8a;stroke-width:1.5;"/>
    <path clip-path="url(#p4ea4147a50)" d="M 63.950422 146.419987 
L 63.950422 144.098197 
" style="fill:none;stroke:#98df8a;stroke-width:1.5;"/>
    <path clip-path="url(#p4ea4147a50)" d="M 66.056774 134.096431 
L 66.056774 132.186607 
" style="fill:none;stroke:#98df8a;stroke-width:1.5;"/>
    <path clip-path="url(#p4ea4147a50)" d="M 68.163127 131.429435 
L 68.163127 128.414233 
" style="fill:none;stroke:#98df8a;stroke-width:1.5;"/>
    <path clip-path="url(#p4ea4147a50)" d="M 70.26948 120.6404 
L 70.26948 117.778222 
" style="fill:none;stroke:#98df8a;stroke-width:1.5;"/>
    <path clip-path="url(#p4ea4147a50)" d="M 72.375832 118.169659 
L 72.375832 115.261786 
" style="fill:none;stroke:#98df8a;stroke-width:1.5;"/>
    <path clip-path="url(#p4ea4147a50)" d="M 74.482185 111.644086 
L 74.482185 108.375411 
" style="fill:none;stroke:#98df8a;stroke-width:1.5;"/>
    <path clip-path="url(#p4ea4147a50)" d="M 76.588538 103.734419 
L 76.588538 103.002621 
" style="fill:none;stroke:#98df8a;stroke-width:1.5;"/>
    <path clip-path="url(#p4ea4147a50)" d="M 78.69489 109.806361 
L 78.69489 107.440669 
" style="fill:none;stroke:#98df8a;stroke-width:1.5;"/>
    <path clip-path="url(#p4ea4147a50)" d="M 80.801243 99.413969 
L 80.801243 97.485898 
" style="fill:none;stroke:#98df8a;stroke-width:1.5;"/>
    <path clip-path="url(#p4ea4147a50)" d="M 82.907596 94.354535 
L 82.907596 91.856347 
" style="fill:none;stroke:#98df8a;stroke-width:1.5;"/>
    <path clip-path="url(#p4ea4147a50)" d="M 85.013949 93.601093 
L 85.013949 91.512887 
" style="fill:none;stroke:#98df8a;stroke-width:1.5;"/>
    <path clip-path="url(#p4ea4147a50)" d="M 87.120301 89.514862 
L 87.120301 86.87692 
" style="fill:none;stroke:#98df8a;stroke-width:1.5;"/>
    <path clip-path="url(#p4ea4147a50)" d="M 89.226654 86.72744 
L 89.226654 84.787369 
" style="fill:none;stroke:#98df8a;stroke-width:1.5;"/>
    <path clip-path="url(#p4ea4147a50)" d="M 91.333007 85.457409 
L 91.333007 83.024195 
" style="fill:none;stroke:#98df8a;stroke-width:1.5;"/>
    <path clip-path="url(#p4ea4147a50)" d="M 93.439359 82.756552 
L 93.439359 81.242218 
" style="fill:none;stroke:#98df8a;stroke-width:1.5;"/>
    <path clip-path="url(#p4ea4147a50)" d="M 95.545712 80.212236 
L 95.545712 78.330625 
" style="fill:none;stroke:#98df8a;stroke-width:1.5;"/>
    <path clip-path="url(#p4ea4147a50)" d="M 97.652065 80.5378 
L 97.652065 78.033523 
" style="fill:none;stroke:#98df8a;stroke-width:1.5;"/>
    <path clip-path="url(#p4ea4147a50)" d="M 99.758417 76.760019 
L 99.758417 74.512299 
" style="fill:none;stroke:#98df8a;stroke-width:1.5;"/>
    <path clip-path="url(#p4ea4147a50)" d="M 101.86477 75.733467 
L 101.86477 73.77237 
" style="fill:none;stroke:#98df8a;stroke-width:1.5;"/>
    <path clip-path="url(#p4ea4147a50)" d="M 103.971123 73.490911 
L 103.971123 71.568646 
" style="fill:none;stroke:#98df8a;stroke-width:1.5;"/>
    <path clip-path="url(#p4ea4147a50)" d="M 106.077475 69.248456 
L 106.077475 67.765632 
" style="fill:none;stroke:#98df8a;stroke-width:1.5;"/>
    <path clip-path="url(#p4ea4147a50)" d="M 108.183828 67.977478 
L 108.183828 66.384866 
" style="fill:none;stroke:#98df8a;stroke-width:1.5;"/>
    <path clip-path="url(#p4ea4147a50)" d="M 110.290181 68.253366 
L 110.290181 66.45874 
" style="fill:none;stroke:#98df8a;stroke-width:1.5;"/>
    <path clip-path="url(#p4ea4147a50)" d="M 112.396533 65.1128 
L 112.396533 63.042045 
" style="fill:none;stroke:#98df8a;stroke-width:1.5;"/>
    <path clip-path="url(#p4ea4147a50)" d="M 114.502886 64.767257 
L 114.502886 63.548643 
" style="fill:none;stroke:#98df8a;stroke-width:1.5;"/>
    <path clip-path="url(#p4ea4147a50)" d="M 116.609239 62.770969 
L 116.609239 61.217891 
" style="fill:none;stroke:#98df8a;stroke-width:1.5;"/>
    <path clip-path="url(#p4ea4147a50)" d="M 118.715591 63.591482 
L 118.715591 61.577774 
" style="fill:none;stroke:#98df8a;stroke-width:1.5;"/>
    <path clip-path="url(#p4ea4147a50)" d="M 120.821944 61.150381 
L 120.821944 58.851489 
" style="fill:none;stroke:#98df8a;stroke-width:1.5;"/>
    <path clip-path="url(#p4ea4147a50)" d="M 122.928297 58.746773 
L 122.928297 57.003998 
" style="fill:none;stroke:#98df8a;stroke-width:1.5;"/>
    <path clip-path="url(#p4ea4147a50)" d="M 125.03465 57.745573 
L 125.03465 56.485023 
" style="fill:none;stroke:#98df8a;stroke-width:1.5;"/>
    <path clip-path="url(#p4ea4147a50)" d="M 127.141002 58.320242 
L 127.141002 56.49954 
" style="fill:none;stroke:#98df8a;stroke-width:1.5;"/>
    <path clip-path="url(#p4ea4147a50)" d="M 129.247355 58.729129 
L 129.247355 56.492076 
" style="fill:none;stroke:#98df8a;stroke-width:1.5;"/>
    <path clip-path="url(#p4ea4147a50)" d="M 131.353708 56.391803 
L 131.353708 54.260105 
" style="fill:none;stroke:#98df8a;stroke-width:1.5;"/>
    <path clip-path="url(#p4ea4147a50)" d="M 133.46006 58.13456 
L 133.46006 55.107718 
" style="fill:none;stroke:#98df8a;stroke-width:1.5;"/>
    <path clip-path="url(#p4ea4147a50)" d="M 135.566413 57.554352 
L 135.566413 56.050098 
" style="fill:none;stroke:#98df8a;stroke-width:1.5;"/>
    <path clip-path="url(#p4ea4147a50)" d="M 137.672766 54.413391 
L 137.672766 52.425936 
" style="fill:none;stroke:#98df8a;stroke-width:1.5;"/>
    <path clip-path="url(#p4ea4147a50)" d="M 139.779118 54.819512 
L 139.779118 52.507837 
" style="fill:none;stroke:#98df8a;stroke-width:1.5;"/>
    <path clip-path="url(#p4ea4147a50)" d="M 141.885471 52.345257 
L 141.885471 50.800865 
" style="fill:none;stroke:#98df8a;stroke-width:1.5;"/>
    <path clip-path="url(#p4ea4147a50)" d="M 143.991824 51.928753 
L 143.991824 50.085263 
" style="fill:none;stroke:#98df8a;stroke-width:1.5;"/>
    <path clip-path="url(#p4ea4147a50)" d="M 146.098176 50.845239 
L 146.098176 49.429814 
" style="fill:none;stroke:#98df8a;stroke-width:1.5;"/>
    <path clip-path="url(#p4ea4147a50)" d="M 148.204529 54.105881 
L 148.204529 50.981265 
" style="fill:none;stroke:#98df8a;stroke-width:1.5;"/>
    <path clip-path="url(#p4ea4147a50)" d="M 150.310882 50.896298 
L 150.310882 49.262616 
" style="fill:none;stroke:#98df8a;stroke-width:1.5;"/>
    <path clip-path="url(#p4ea4147a50)" d="M 152.417234 49.261084 
L 152.417234 47.743902 
" style="fill:none;stroke:#98df8a;stroke-width:1.5;"/>
    <path clip-path="url(#p4ea4147a50)" d="M 154.523587 49.835728 
L 154.523587 47.958078 
" style="fill:none;stroke:#98df8a;stroke-width:1.5;"/>
    <path clip-path="url(#p4ea4147a50)" d="M 156.62994 49.917514 
L 156.62994 47.501981 
" style="fill:none;stroke:#98df8a;stroke-width:1.5;"/>
    <path clip-path="url(#p4ea4147a50)" d="M 158.736292 49.88671 
L 158.736292 47.120435 
" style="fill:none;stroke:#98df8a;stroke-width:1.5;"/>
    <path clip-path="url(#p4ea4147a50)" d="M 160.842645 48.761138 
L 160.842645 46.285964 
" style="fill:none;stroke:#98df8a;stroke-width:1.5;"/>
    <path clip-path="url(#p4ea4147a50)" d="M 162.948998 47.217623 
L 162.948998 45.523317 
" style="fill:none;stroke:#98df8a;stroke-width:1.5;"/>
    <path clip-path="url(#p4ea4147a50)" d="M 165.05535 48.069122 
L 165.05535 45.877032 
" style="fill:none;stroke:#98df8a;stroke-width:1.5;"/>
    <path clip-path="url(#p4ea4147a50)" d="M 167.161703 49.277632 
L 167.161703 46.406946 
" style="fill:none;stroke:#98df8a;stroke-width:1.5;"/>
    <path clip-path="url(#p4ea4147a50)" d="M 169.268056 47.884726 
L 169.268056 45.349225 
" style="fill:none;stroke:#98df8a;stroke-width:1.5;"/>
    <path clip-path="url(#p4ea4147a50)" d="M 171.374409 48.775582 
L 171.374409 45.828821 
" style="fill:none;stroke:#98df8a;stroke-width:1.5;"/>
    <path clip-path="url(#p4ea4147a50)" d="M 173.480761 46.998218 
L 173.480761 45.015815 
" style="fill:none;stroke:#98df8a;stroke-width:1.5;"/>
    <path clip-path="url(#p4ea4147a50)" d="M 175.587114 46.440882 
L 175.587114 44.641082 
" style="fill:none;stroke:#98df8a;stroke-width:1.5;"/>
    <path clip-path="url(#p4ea4147a50)" d="M 177.693467 47.191251 
L 177.693467 44.19313 
" style="fill:none;stroke:#98df8a;stroke-width:1.5;"/>
    <path clip-path="url(#p4ea4147a50)" d="M 179.799819 45.52429 
L 179.799819 43.775143 
" style="fill:none;stroke:#98df8a;stroke-width:1.5;"/>
    <path clip-path="url(#p4ea4147a50)" d="M 181.906172 45.417584 
L 181.906172 43.235605 
" style="fill:none;stroke:#98df8a;stroke-width:1.5;"/>
    <path clip-path="url(#p4ea4147a50)" d="M 184.012525 45.941031 
L 184.012525 43.457274 
" style="fill:none;stroke:#98df8a;stroke-width:1.5;"/>
    <path clip-path="url(#p4ea4147a50)" d="M 186.118877 45.760287 
L 186.118877 43.166183 
" style="fill:none;stroke:#98df8a;stroke-width:1.5;"/>
    <path clip-path="url(#p4ea4147a50)" d="M 188.22523 46.509958 
L 188.22523 44.392471 
" style="fill:none;stroke:#98df8a;stroke-width:1.5;"/>
    <path clip-path="url(#p4ea4147a50)" d="M 190.331583 46.066963 
L 190.331583 44.3782 
" style="fill:none;stroke:#98df8a;stroke-width:1.5;"/>
    <path clip-path="url(#p4ea4147a50)" d="M 192.437935 45.369172 
L 192.437935 43.002643 
" style="fill:none;stroke:#98df8a;stroke-width:1.5;"/>
    <path clip-path="url(#p4ea4147a50)" d="M 194.544288 44.071669 
L 194.544288 41.889849 
" style="fill:none;stroke:#98df8a;stroke-width:1.5;"/>
    <path clip-path="url(#p4ea4147a50)" d="M 196.650641 43.049781 
L 196.650641 41.450507 
" style="fill:none;stroke:#98df8a;stroke-width:1.5;"/>
    <path clip-path="url(#p4ea4147a50)" d="M 198.756993 44.120343 
L 198.756993 42.750315 
" style="fill:none;stroke:#98df8a;stroke-width:1.5;"/>
    <path clip-path="url(#p4ea4147a50)" d="M 200.863346 43.291208 
L 200.863346 41.708701 
" style="fill:none;stroke:#98df8a;stroke-width:1.5;"/>
    <path clip-path="url(#p4ea4147a50)" d="M 202.969699 43.767638 
L 202.969699 41.495841 
" style="fill:none;stroke:#98df8a;stroke-width:1.5;"/>
    <path clip-path="url(#p4ea4147a50)" d="M 205.076051 44.795394 
L 205.076051 42.140009 
" style="fill:none;stroke:#98df8a;stroke-width:1.5;"/>
    <path clip-path="url(#p4ea4147a50)" d="M 207.182404 44.016929 
L 207.182404 41.701793 
" style="fill:none;stroke:#98df8a;stroke-width:1.5;"/>
    <path clip-path="url(#p4ea4147a50)" d="M 209.288757 44.989386 
L 209.288757 42.570948 
" style="fill:none;stroke:#98df8a;stroke-width:1.5;"/>
    <path clip-path="url(#p4ea4147a50)" d="M 211.39511 44.309899 
L 211.39511 41.815778 
" style="fill:none;stroke:#98df8a;stroke-width:1.5;"/>
    <path clip-path="url(#p4ea4147a50)" d="M 213.501462 43.443868 
L 213.501462 41.497905 
" style="fill:none;stroke:#98df8a;stroke-width:1.5;"/>
    <path clip-path="url(#p4ea4147a50)" d="M 215.607815 45.193492 
L 215.607815 42.265003 
" style="fill:none;stroke:#98df8a;stroke-width:1.5;"/>
    <path clip-path="url(#p4ea4147a50)" d="M 217.714168 43.646366 
L 217.714168 41.408577 
" style="fill:none;stroke:#98df8a;stroke-width:1.5;"/>
    <path clip-path="url(#p4ea4147a50)" d="M 219.82052 42.326341 
L 219.82052 40.261249 
" style="fill:none;stroke:#98df8a;stroke-width:1.5;"/>
    <path clip-path="url(#p4ea4147a50)" d="M 221.926873 43.383118 
L 221.926873 41.547865 
" style="fill:none;stroke:#98df8a;stroke-width:1.5;"/>
    <path clip-path="url(#p4ea4147a50)" d="M 224.033226 44.602306 
L 224.033226 41.837118 
" style="fill:none;stroke:#98df8a;stroke-width:1.5;"/>
    <path clip-path="url(#p4ea4147a50)" d="M 226.139578 43.341936 
L 226.139578 41.761296 
" style="fill:none;stroke:#98df8a;stroke-width:1.5;"/>
    <path clip-path="url(#p4ea4147a50)" d="M 228.245931 45.424955 
L 228.245931 41.938984 
" style="fill:none;stroke:#98df8a;stroke-width:1.5;"/>
    <path clip-path="url(#p4ea4147a50)" d="M 230.352284 43.436552 
L 230.352284 41.431843 
" style="fill:none;stroke:#98df8a;stroke-width:1.5;"/>
    <path clip-path="url(#p4ea4147a50)" d="M 232.458636 42.482876 
L 232.458636 40.976489 
" style="fill:none;stroke:#98df8a;stroke-width:1.5;"/>
   </g>
   <g id="LineCollection_3">
    <path clip-path="url(#p4ea4147a50)" d="M 57.631364 213.969378 
L 57.631364 212.031057 
" style="fill:none;stroke:#ff9896;stroke-width:1.5;"/>
    <path clip-path="url(#p4ea4147a50)" d="M 59.737716 182.505999 
L 59.737716 179.770177 
" style="fill:none;stroke:#ff9896;stroke-width:1.5;"/>
    <path clip-path="url(#p4ea4147a50)" d="M 61.844069 167.650324 
L 61.844069 163.398165 
" style="fill:none;stroke:#ff9896;stroke-width:1.5;"/>
    <path clip-path="url(#p4ea4147a50)" d="M 63.950422 147.67704 
L 63.950422 143.226112 
" style="fill:none;stroke:#ff9896;stroke-width:1.5;"/>
    <path clip-path="url(#p4ea4147a50)" d="M 66.056774 136.949021 
L 66.056774 134.413861 
" style="fill:none;stroke:#ff9896;stroke-width:1.5;"/>
    <path clip-path="url(#p4ea4147a50)" d="M 68.163127 129.949986 
L 68.163127 127.671419 
" style="fill:none;stroke:#ff9896;stroke-width:1.5;"/>
    <path clip-path="url(#p4ea4147a50)" d="M 70.26948 116.639475 
L 70.26948 114.593987 
" style="fill:none;stroke:#ff9896;stroke-width:1.5;"/>
    <path clip-path="url(#p4ea4147a50)" d="M 72.375832 114.352178 
L 72.375832 111.19809 
" style="fill:none;stroke:#ff9896;stroke-width:1.5;"/>
    <path clip-path="url(#p4ea4147a50)" d="M 74.482185 108.010207 
L 74.482185 105.256037 
" style="fill:none;stroke:#ff9896;stroke-width:1.5;"/>
    <path clip-path="url(#p4ea4147a50)" d="M 76.588538 102.862753 
L 76.588538 100.107028 
" style="fill:none;stroke:#ff9896;stroke-width:1.5;"/>
    <path clip-path="url(#p4ea4147a50)" d="M 78.69489 99.257942 
L 78.69489 97.027649 
" style="fill:none;stroke:#ff9896;stroke-width:1.5;"/>
    <path clip-path="url(#p4ea4147a50)" d="M 80.801243 96.073014 
L 80.801243 92.632602 
" style="fill:none;stroke:#ff9896;stroke-width:1.5;"/>
    <path clip-path="url(#p4ea4147a50)" d="M 82.907596 88.842213 
L 82.907596 86.830217 
" style="fill:none;stroke:#ff9896;stroke-width:1.5;"/>
    <path clip-path="url(#p4ea4147a50)" d="M 85.013949 88.595739 
L 85.013949 84.015566 
" style="fill:none;stroke:#ff9896;stroke-width:1.5;"/>
    <path clip-path="url(#p4ea4147a50)" d="M 87.120301 85.97925 
L 87.120301 82.846452 
" style="fill:none;stroke:#ff9896;stroke-width:1.5;"/>
    <path clip-path="url(#p4ea4147a50)" d="M 89.226654 81.777822 
L 89.226654 78.735738 
" style="fill:none;stroke:#ff9896;stroke-width:1.5;"/>
    <path clip-path="url(#p4ea4147a50)" d="M 91.333007 77.014435 
L 91.333007 74.617356 
" style="fill:none;stroke:#ff9896;stroke-width:1.5;"/>
    <path clip-path="url(#p4ea4147a50)" d="M 93.439359 78.420683 
L 93.439359 75.873777 
" style="fill:none;stroke:#ff9896;stroke-width:1.5;"/>
    <path clip-path="url(#p4ea4147a50)" d="M 95.545712 76.018955 
L 95.545712 73.182307 
" style="fill:none;stroke:#ff9896;stroke-width:1.5;"/>
    <path clip-path="url(#p4ea4147a50)" d="M 97.652065 73.089481 
L 97.652065 69.534017 
" style="fill:none;stroke:#ff9896;stroke-width:1.5;"/>
    <path clip-path="url(#p4ea4147a50)" d="M 99.758417 69.879498 
L 99.758417 67.651477 
" style="fill:none;stroke:#ff9896;stroke-width:1.5;"/>
    <path clip-path="url(#p4ea4147a50)" d="M 101.86477 68.078604 
L 101.86477 66.194984 
" style="fill:none;stroke:#ff9896;stroke-width:1.5;"/>
    <path clip-path="url(#p4ea4147a50)" d="M 103.971123 66.742551 
L 103.971123 64.873494 
" style="fill:none;stroke:#ff9896;stroke-width:1.5;"/>
    <path clip-path="url(#p4ea4147a50)" d="M 106.077475 66.302868 
L 106.077475 64.216545 
" style="fill:none;stroke:#ff9896;stroke-width:1.5;"/>
    <path clip-path="url(#p4ea4147a50)" d="M 108.183828 67.206464 
L 108.183828 64.31489 
" style="fill:none;stroke:#ff9896;stroke-width:1.5;"/>
    <path clip-path="url(#p4ea4147a50)" d="M 110.290181 63.270024 
L 110.290181 60.48103 
" style="fill:none;stroke:#ff9896;stroke-width:1.5;"/>
    <path clip-path="url(#p4ea4147a50)" d="M 112.396533 61.458368 
L 112.396533 60.088363 
" style="fill:none;stroke:#ff9896;stroke-width:1.5;"/>
    <path clip-path="url(#p4ea4147a50)" d="M 114.502886 63.857254 
L 114.502886 60.683969 
" style="fill:none;stroke:#ff9896;stroke-width:1.5;"/>
    <path clip-path="url(#p4ea4147a50)" d="M 116.609239 61.107113 
L 116.609239 58.176889 
" style="fill:none;stroke:#ff9896;stroke-width:1.5;"/>
    <path clip-path="url(#p4ea4147a50)" d="M 118.715591 57.190598 
L 118.715591 55.67602 
" style="fill:none;stroke:#ff9896;stroke-width:1.5;"/>
    <path clip-path="url(#p4ea4147a50)" d="M 120.821944 57.563151 
L 120.821944 55.894003 
" style="fill:none;stroke:#ff9896;stroke-width:1.5;"/>
    <path clip-path="url(#p4ea4147a50)" d="M 122.928297 57.151471 
L 122.928297 55.309676 
" style="fill:none;stroke:#ff9896;stroke-width:1.5;"/>
    <path clip-path="url(#p4ea4147a50)" d="M 125.03465 55.272102 
L 125.03465 53.068923 
" style="fill:none;stroke:#ff9896;stroke-width:1.5;"/>
    <path clip-path="url(#p4ea4147a50)" d="M 127.141002 56.375585 
L 127.141002 54.069003 
" style="fill:none;stroke:#ff9896;stroke-width:1.5;"/>
    <path clip-path="url(#p4ea4147a50)" d="M 129.247355 57.939871 
L 129.247355 54.287922 
" style="fill:none;stroke:#ff9896;stroke-width:1.5;"/>
    <path clip-path="url(#p4ea4147a50)" d="M 131.353708 52.77921 
L 131.353708 50.361517 
" style="fill:none;stroke:#ff9896;stroke-width:1.5;"/>
    <path clip-path="url(#p4ea4147a50)" d="M 133.46006 55.549856 
L 133.46006 52.730739 
" style="fill:none;stroke:#ff9896;stroke-width:1.5;"/>
    <path clip-path="url(#p4ea4147a50)" d="M 135.566413 52.327595 
L 135.566413 50.200474 
" style="fill:none;stroke:#ff9896;stroke-width:1.5;"/>
    <path clip-path="url(#p4ea4147a50)" d="M 137.672766 54.103397 
L 137.672766 51.524915 
" style="fill:none;stroke:#ff9896;stroke-width:1.5;"/>
    <path clip-path="url(#p4ea4147a50)" d="M 139.779118 51.615461 
L 139.779118 49.485504 
" style="fill:none;stroke:#ff9896;stroke-width:1.5;"/>
    <path clip-path="url(#p4ea4147a50)" d="M 141.885471 51.446507 
L 141.885471 49.664035 
" style="fill:none;stroke:#ff9896;stroke-width:1.5;"/>
    <path clip-path="url(#p4ea4147a50)" d="M 143.991824 49.873241 
L 143.991824 47.536811 
" style="fill:none;stroke:#ff9896;stroke-width:1.5;"/>
    <path clip-path="url(#p4ea4147a50)" d="M 146.098176 51.993226 
L 146.098176 48.143837 
" style="fill:none;stroke:#ff9896;stroke-width:1.5;"/>
    <path clip-path="url(#p4ea4147a50)" d="M 148.204529 49.832378 
L 148.204529 47.416214 
" style="fill:none;stroke:#ff9896;stroke-width:1.5;"/>
    <path clip-path="url(#p4ea4147a50)" d="M 150.310882 53.957249 
L 150.310882 49.923333 
" style="fill:none;stroke:#ff9896;stroke-width:1.5;"/>
    <path clip-path="url(#p4ea4147a50)" d="M 152.417234 47.842324 
L 152.417234 45.508034 
" style="fill:none;stroke:#ff9896;stroke-width:1.5;"/>
    <path clip-path="url(#p4ea4147a50)" d="M 154.523587 46.858594 
L 154.523587 45.121178 
" style="fill:none;stroke:#ff9896;stroke-width:1.5;"/>
    <path clip-path="url(#p4ea4147a50)" d="M 156.62994 49.975345 
L 156.62994 47.59954 
" style="fill:none;stroke:#ff9896;stroke-width:1.5;"/>
    <path clip-path="url(#p4ea4147a50)" d="M 158.736292 47.432699 
L 158.736292 45.587591 
" style="fill:none;stroke:#ff9896;stroke-width:1.5;"/>
    <path clip-path="url(#p4ea4147a50)" d="M 160.842645 47.552481 
L 160.842645 44.729168 
" style="fill:none;stroke:#ff9896;stroke-width:1.5;"/>
    <path clip-path="url(#p4ea4147a50)" d="M 162.948998 48.831813 
L 162.948998 45.530737 
" style="fill:none;stroke:#ff9896;stroke-width:1.5;"/>
    <path clip-path="url(#p4ea4147a50)" d="M 165.05535 48.627767 
L 165.05535 45.303954 
" style="fill:none;stroke:#ff9896;stroke-width:1.5;"/>
    <path clip-path="url(#p4ea4147a50)" d="M 167.161703 45.638548 
L 167.161703 43.245297 
" style="fill:none;stroke:#ff9896;stroke-width:1.5;"/>
    <path clip-path="url(#p4ea4147a50)" d="M 169.268056 47.437775 
L 169.268056 44.6812 
" style="fill:none;stroke:#ff9896;stroke-width:1.5;"/>
    <path clip-path="url(#p4ea4147a50)" d="M 171.374409 52.792405 
L 171.374409 48.088829 
" style="fill:none;stroke:#ff9896;stroke-width:1.5;"/>
    <path clip-path="url(#p4ea4147a50)" d="M 173.480761 45.173253 
L 173.480761 43.231609 
" style="fill:none;stroke:#ff9896;stroke-width:1.5;"/>
    <path clip-path="url(#p4ea4147a50)" d="M 175.587114 47.239967 
L 175.587114 44.180428 
" style="fill:none;stroke:#ff9896;stroke-width:1.5;"/>
    <path clip-path="url(#p4ea4147a50)" d="M 177.693467 46.901338 
L 177.693467 44.067186 
" style="fill:none;stroke:#ff9896;stroke-width:1.5;"/>
    <path clip-path="url(#p4ea4147a50)" d="M 179.799819 44.188444 
L 179.799819 41.909311 
" style="fill:none;stroke:#ff9896;stroke-width:1.5;"/>
    <path clip-path="url(#p4ea4147a50)" d="M 181.906172 44.674391 
L 181.906172 42.636672 
" style="fill:none;stroke:#ff9896;stroke-width:1.5;"/>
    <path clip-path="url(#p4ea4147a50)" d="M 184.012525 46.17891 
L 184.012525 43.316648 
" style="fill:none;stroke:#ff9896;stroke-width:1.5;"/>
    <path clip-path="url(#p4ea4147a50)" d="M 186.118877 44.034026 
L 186.118877 41.306338 
" style="fill:none;stroke:#ff9896;stroke-width:1.5;"/>
    <path clip-path="url(#p4ea4147a50)" d="M 188.22523 42.703663 
L 188.22523 40.797517 
" style="fill:none;stroke:#ff9896;stroke-width:1.5;"/>
    <path clip-path="url(#p4ea4147a50)" d="M 190.331583 42.13308 
L 190.331583 40.630942 
" style="fill:none;stroke:#ff9896;stroke-width:1.5;"/>
    <path clip-path="url(#p4ea4147a50)" d="M 192.437935 43.749527 
L 192.437935 41.087709 
" style="fill:none;stroke:#ff9896;stroke-width:1.5;"/>
    <path clip-path="url(#p4ea4147a50)" d="M 194.544288 42.954887 
L 194.544288 40.916693 
" style="fill:none;stroke:#ff9896;stroke-width:1.5;"/>
    <path clip-path="url(#p4ea4147a50)" d="M 196.650641 44.118905 
L 196.650641 41.926379 
" style="fill:none;stroke:#ff9896;stroke-width:1.5;"/>
    <path clip-path="url(#p4ea4147a50)" d="M 198.756993 44.253602 
L 198.756993 41.699149 
" style="fill:none;stroke:#ff9896;stroke-width:1.5;"/>
    <path clip-path="url(#p4ea4147a50)" d="M 200.863346 42.733056 
L 200.863346 40.166528 
" style="fill:none;stroke:#ff9896;stroke-width:1.5;"/>
    <path clip-path="url(#p4ea4147a50)" d="M 202.969699 43.039844 
L 202.969699 40.778994 
" style="fill:none;stroke:#ff9896;stroke-width:1.5;"/>
    <path clip-path="url(#p4ea4147a50)" d="M 205.076051 43.769513 
L 205.076051 41.312813 
" style="fill:none;stroke:#ff9896;stroke-width:1.5;"/>
    <path clip-path="url(#p4ea4147a50)" d="M 207.182404 42.715391 
L 207.182404 40.589529 
" style="fill:none;stroke:#ff9896;stroke-width:1.5;"/>
    <path clip-path="url(#p4ea4147a50)" d="M 209.288757 43.620484 
L 209.288757 41.519977 
" style="fill:none;stroke:#ff9896;stroke-width:1.5;"/>
    <path clip-path="url(#p4ea4147a50)" d="M 211.39511 42.965348 
L 211.39511 40.650217 
" style="fill:none;stroke:#ff9896;stroke-width:1.5;"/>
    <path clip-path="url(#p4ea4147a50)" d="M 213.501462 41.632429 
L 213.501462 39.959965 
" style="fill:none;stroke:#ff9896;stroke-width:1.5;"/>
    <path clip-path="url(#p4ea4147a50)" d="M 215.607815 41.929615 
L 215.607815 40.430826 
" style="fill:none;stroke:#ff9896;stroke-width:1.5;"/>
    <path clip-path="url(#p4ea4147a50)" d="M 217.714168 44.436722 
L 217.714168 41.686931 
" style="fill:none;stroke:#ff9896;stroke-width:1.5;"/>
    <path clip-path="url(#p4ea4147a50)" d="M 219.82052 43.920821 
L 219.82052 41.151927 
" style="fill:none;stroke:#ff9896;stroke-width:1.5;"/>
    <path clip-path="url(#p4ea4147a50)" d="M 221.926873 40.604675 
L 221.926873 38.764917 
" style="fill:none;stroke:#ff9896;stroke-width:1.5;"/>
    <path clip-path="url(#p4ea4147a50)" d="M 224.033226 43.079952 
L 224.033226 40.450499 
" style="fill:none;stroke:#ff9896;stroke-width:1.5;"/>
   </g>
   <g id="LineCollection_4">
    <path clip-path="url(#p4ea4147a50)" d="M 57.631364 167.604539 
L 57.631364 167.604539 
" style="fill:none;stroke:#aec7e8;stroke-width:1.5;"/>
    <path clip-path="url(#p4ea4147a50)" d="M 59.737716 128.387109 
L 59.737716 128.387109 
" style="fill:none;stroke:#aec7e8;stroke-width:1.5;"/>
    <path clip-path="url(#p4ea4147a50)" d="M 61.844069 105.887958 
L 61.844069 105.887958 
" style="fill:none;stroke:#aec7e8;stroke-width:1.5;"/>
    <path clip-path="url(#p4ea4147a50)" d="M 63.950422 94.571325 
L 63.950422 94.571325 
" style="fill:none;stroke:#aec7e8;stroke-width:1.5;"/>
    <path clip-path="url(#p4ea4147a50)" d="M 66.056774 83.966895 
L 66.056774 83.966895 
" style="fill:none;stroke:#aec7e8;stroke-width:1.5;"/>
    <path clip-path="url(#p4ea4147a50)" d="M 68.163127 79.172626 
L 68.163127 79.172626 
" style="fill:none;stroke:#aec7e8;stroke-width:1.5;"/>
    <path clip-path="url(#p4ea4147a50)" d="M 70.26948 72.899995 
L 70.26948 72.899995 
" style="fill:none;stroke:#aec7e8;stroke-width:1.5;"/>
    <path clip-path="url(#p4ea4147a50)" d="M 72.375832 67.077502 
L 72.375832 67.077502 
" style="fill:none;stroke:#aec7e8;stroke-width:1.5;"/>
    <path clip-path="url(#p4ea4147a50)" d="M 74.482185 63.470238 
L 74.482185 63.470238 
" style="fill:none;stroke:#aec7e8;stroke-width:1.5;"/>
    <path clip-path="url(#p4ea4147a50)" d="M 76.588538 60.434125 
L 76.588538 60.434125 
" style="fill:none;stroke:#aec7e8;stroke-width:1.5;"/>
    <path clip-path="url(#p4ea4147a50)" d="M 78.69489 58.572684 
L 78.69489 58.572684 
" style="fill:none;stroke:#aec7e8;stroke-width:1.5;"/>
    <path clip-path="url(#p4ea4147a50)" d="M 80.801243 53.60576 
L 80.801243 53.60576 
" style="fill:none;stroke:#aec7e8;stroke-width:1.5;"/>
    <path clip-path="url(#p4ea4147a50)" d="M 82.907596 52.787188 
L 82.907596 52.787188 
" style="fill:none;stroke:#aec7e8;stroke-width:1.5;"/>
    <path clip-path="url(#p4ea4147a50)" d="M 85.013949 49.351039 
L 85.013949 49.351039 
" style="fill:none;stroke:#aec7e8;stroke-width:1.5;"/>
    <path clip-path="url(#p4ea4147a50)" d="M 87.120301 48.402205 
L 87.120301 48.402205 
" style="fill:none;stroke:#aec7e8;stroke-width:1.5;"/>
    <path clip-path="url(#p4ea4147a50)" d="M 89.226654 46.525349 
L 89.226654 46.525349 
" style="fill:none;stroke:#aec7e8;stroke-width:1.5;"/>
    <path clip-path="url(#p4ea4147a50)" d="M 91.333007 45.956511 
L 91.333007 45.956511 
" style="fill:none;stroke:#aec7e8;stroke-width:1.5;"/>
    <path clip-path="url(#p4ea4147a50)" d="M 93.439359 45.466293 
L 93.439359 45.466293 
" style="fill:none;stroke:#aec7e8;stroke-width:1.5;"/>
    <path clip-path="url(#p4ea4147a50)" d="M 95.545712 44.721717 
L 95.545712 44.721717 
" style="fill:none;stroke:#aec7e8;stroke-width:1.5;"/>
    <path clip-path="url(#p4ea4147a50)" d="M 97.652065 43.141612 
L 97.652065 43.141612 
" style="fill:none;stroke:#aec7e8;stroke-width:1.5;"/>
    <path clip-path="url(#p4ea4147a50)" d="M 99.758417 42.53886 
L 99.758417 42.53886 
" style="fill:none;stroke:#aec7e8;stroke-width:1.5;"/>
    <path clip-path="url(#p4ea4147a50)" d="M 101.86477 42.04633 
L 101.86477 42.04633 
" style="fill:none;stroke:#aec7e8;stroke-width:1.5;"/>
    <path clip-path="url(#p4ea4147a50)" d="M 103.971123 42.731556 
L 103.971123 42.731556 
" style="fill:none;stroke:#aec7e8;stroke-width:1.5;"/>
    <path clip-path="url(#p4ea4147a50)" d="M 106.077475 44.393363 
L 106.077475 44.393363 
" style="fill:none;stroke:#aec7e8;stroke-width:1.5;"/>
    <path clip-path="url(#p4ea4147a50)" d="M 108.183828 41.598505 
L 108.183828 41.598505 
" style="fill:none;stroke:#aec7e8;stroke-width:1.5;"/>
    <path clip-path="url(#p4ea4147a50)" d="M 110.290181 43.492318 
L 110.290181 43.492318 
" style="fill:none;stroke:#aec7e8;stroke-width:1.5;"/>
    <path clip-path="url(#p4ea4147a50)" d="M 112.396533 44.851979 
L 112.396533 44.851979 
" style="fill:none;stroke:#aec7e8;stroke-width:1.5;"/>
    <path clip-path="url(#p4ea4147a50)" d="M 114.502886 43.670369 
L 114.502886 43.670369 
" style="fill:none;stroke:#aec7e8;stroke-width:1.5;"/>
    <path clip-path="url(#p4ea4147a50)" d="M 116.609239 41.035833 
L 116.609239 41.035833 
" style="fill:none;stroke:#aec7e8;stroke-width:1.5;"/>
    <path clip-path="url(#p4ea4147a50)" d="M 118.715591 41.139889 
L 118.715591 41.139889 
" style="fill:none;stroke:#aec7e8;stroke-width:1.5;"/>
    <path clip-path="url(#p4ea4147a50)" d="M 120.821944 41.533759 
L 120.821944 41.533759 
" style="fill:none;stroke:#aec7e8;stroke-width:1.5;"/>
    <path clip-path="url(#p4ea4147a50)" d="M 122.928297 39.07342 
L 122.928297 39.07342 
" style="fill:none;stroke:#aec7e8;stroke-width:1.5;"/>
    <path clip-path="url(#p4ea4147a50)" d="M 125.03465 40.314381 
L 125.03465 40.314381 
" style="fill:none;stroke:#aec7e8;stroke-width:1.5;"/>
    <path clip-path="url(#p4ea4147a50)" d="M 127.141002 40.023025 
L 127.141002 40.023025 
" style="fill:none;stroke:#aec7e8;stroke-width:1.5;"/>
    <path clip-path="url(#p4ea4147a50)" d="M 129.247355 40.180265 
L 129.247355 40.180265 
" style="fill:none;stroke:#aec7e8;stroke-width:1.5;"/>
    <path clip-path="url(#p4ea4147a50)" d="M 131.353708 39.688505 
L 131.353708 39.688505 
" style="fill:none;stroke:#aec7e8;stroke-width:1.5;"/>
    <path clip-path="url(#p4ea4147a50)" d="M 133.46006 39.030257 
L 133.46006 39.030257 
" style="fill:none;stroke:#aec7e8;stroke-width:1.5;"/>
    <path clip-path="url(#p4ea4147a50)" d="M 135.566413 39.526641 
L 135.566413 39.526641 
" style="fill:none;stroke:#aec7e8;stroke-width:1.5;"/>
    <path clip-path="url(#p4ea4147a50)" d="M 137.672766 40.023025 
L 137.672766 40.023025 
" style="fill:none;stroke:#aec7e8;stroke-width:1.5;"/>
    <path clip-path="url(#p4ea4147a50)" d="M 139.779118 39.817997 
L 139.779118 39.817997 
" style="fill:none;stroke:#aec7e8;stroke-width:1.5;"/>
    <path clip-path="url(#p4ea4147a50)" d="M 141.885471 39.380192 
L 141.885471 39.380192 
" style="fill:none;stroke:#aec7e8;stroke-width:1.5;"/>
    <path clip-path="url(#p4ea4147a50)" d="M 143.991824 40.557177 
L 143.991824 40.557177 
" style="fill:none;stroke:#aec7e8;stroke-width:1.5;"/>
    <path clip-path="url(#p4ea4147a50)" d="M 146.098176 38.992488 
L 146.098176 38.992488 
" style="fill:none;stroke:#aec7e8;stroke-width:1.5;"/>
    <path clip-path="url(#p4ea4147a50)" d="M 148.204529 38.706528 
L 148.204529 38.706528 
" style="fill:none;stroke:#aec7e8;stroke-width:1.5;"/>
    <path clip-path="url(#p4ea4147a50)" d="M 150.310882 37.827065 
L 150.310882 37.827065 
" style="fill:none;stroke:#aec7e8;stroke-width:1.5;"/>
    <path clip-path="url(#p4ea4147a50)" d="M 152.417234 38.547747 
L 152.417234 38.547747 
" style="fill:none;stroke:#aec7e8;stroke-width:1.5;"/>
    <path clip-path="url(#p4ea4147a50)" d="M 154.523587 38.5015 
L 154.523587 38.5015 
" style="fill:none;stroke:#aec7e8;stroke-width:1.5;"/>
    <path clip-path="url(#p4ea4147a50)" d="M 156.62994 38.048279 
L 156.62994 38.048279 
" style="fill:none;stroke:#aec7e8;stroke-width:1.5;"/>
    <path clip-path="url(#p4ea4147a50)" d="M 158.736292 37.864833 
L 158.736292 37.864833 
" style="fill:none;stroke:#aec7e8;stroke-width:1.5;"/>
    <path clip-path="url(#p4ea4147a50)" d="M 160.842645 38.102234 
L 160.842645 38.102234 
" style="fill:none;stroke:#aec7e8;stroke-width:1.5;"/>
    <path clip-path="url(#p4ea4147a50)" d="M 162.948998 38.140002 
L 162.948998 38.140002 
" style="fill:none;stroke:#aec7e8;stroke-width:1.5;"/>
    <path clip-path="url(#p4ea4147a50)" d="M 165.05535 37.941911 
L 165.05535 37.941911 
" style="fill:none;stroke:#aec7e8;stroke-width:1.5;"/>
    <path clip-path="url(#p4ea4147a50)" d="M 167.161703 36.645455 
L 167.161703 36.645455 
" style="fill:none;stroke:#aec7e8;stroke-width:1.5;"/>
    <path clip-path="url(#p4ea4147a50)" d="M 169.268056 38.032093 
L 169.268056 38.032093 
" style="fill:none;stroke:#aec7e8;stroke-width:1.5;"/>
    <path clip-path="url(#p4ea4147a50)" d="M 171.374409 39.019466 
L 171.374409 39.019466 
" style="fill:none;stroke:#aec7e8;stroke-width:1.5;"/>
   </g>
   <g id="line2d_17">
    <path clip-path="url(#p4ea4147a50)" d="M 57.631364 231.189323 
L 59.737716 218.758745 
L 61.844069 211.828724 
L 63.950422 206.590185 
L 66.056774 200.259736 
L 68.163127 197.881071 
L 70.26948 193.16151 
L 72.375832 187.920543 
L 74.482185 184.920252 
L 76.588538 183.217169 
L 78.69489 180.970356 
L 80.801243 177.737789 
L 82.907596 175.914252 
L 85.013949 171.879647 
L 87.120301 170.591949 
L 89.226654 170.203811 
L 91.333007 167.855429 
L 93.439359 165.937943 
L 95.545712 163.77213 
L 97.652065 161.171441 
L 99.758417 159.570265 
L 101.86477 158.207636 
L 103.971123 158.120702 
L 106.077475 157.890315 
L 108.183828 155.638242 
L 110.290181 154.921654 
L 112.396533 154.527447 
L 114.502886 153.005382 
L 116.609239 151.53363 
L 118.715591 151.637965 
L 120.821944 150.297728 
L 122.928297 152.39023 
L 125.03465 148.617576 
L 127.141002 146.912874 
L 129.247355 147.636408 
L 131.353708 145.476462 
L 133.46006 143.63512 
L 135.566413 143.623385 
L 137.672766 143.114659 
L 139.779118 142.672027 
L 141.885471 143.084781 
L 143.991824 142.229193 
L 146.098176 140.372878 
L 148.204529 138.343436 
L 150.310882 139.25824 
L 152.417234 137.929333 
L 154.523587 139.178724 
L 156.62994 136.15105 
L 158.736292 134.313754 
L 160.842645 133.685721 
L 162.948998 135.515058 
L 165.05535 133.644378 
L 167.161703 133.768541 
L 169.268056 131.478902 
L 171.374409 130.140216 
L 173.480761 134.155869 
L 175.587114 130.266605 
L 177.693467 130.780862 
L 179.799819 129.029894 
L 181.906172 128.45541 
L 184.012525 129.650576 
L 186.118877 129.117773 
L 188.22523 128.330572 
L 190.331583 127.654384 
L 192.437935 126.509193 
L 194.544288 125.867198 
L 196.650641 126.402969 
L 198.756993 124.191902 
L 200.863346 124.072122 
L 202.969699 122.75549 
L 205.076051 123.558203 
L 207.182404 124.407047 
L 209.288757 121.603488 
L 211.39511 121.945696 
L 213.501462 122.731413 
L 215.607815 121.262763 
L 217.714168 122.393454 
L 219.82052 120.694754 
L 221.926873 119.361464 
L 224.033226 119.609319 
L 226.139578 119.692881 
" style="fill:none;stroke:#7f7f7f;stroke-linecap:square;stroke-width:1.5;"/>
   </g>
   <g id="line2d_18">
    <path clip-path="url(#p4ea4147a50)" d="M 57.631364 209.000953 
L 59.737716 171.392503 
L 61.844069 155.470105 
L 63.950422 145.259092 
L 66.056774 133.141519 
L 68.163127 129.921834 
L 70.26948 119.209311 
L 72.375832 116.715723 
L 74.482185 110.009748 
L 76.588538 103.36852 
L 78.69489 108.623515 
L 80.801243 98.449933 
L 82.907596 93.105441 
L 85.013949 92.55699 
L 87.120301 88.195891 
L 89.226654 85.757404 
L 91.333007 84.240802 
L 93.439359 81.999385 
L 95.545712 79.271431 
L 97.652065 79.285661 
L 99.758417 75.636159 
L 101.86477 74.752919 
L 103.971123 72.529779 
L 106.077475 68.507044 
L 108.183828 67.181172 
L 110.290181 67.356053 
L 112.396533 64.077422 
L 114.502886 64.15795 
L 116.609239 61.99443 
L 118.715591 62.584628 
L 120.821944 60.000935 
L 122.928297 57.875386 
L 125.03465 57.115298 
L 127.141002 57.409891 
L 129.247355 57.610603 
L 131.353708 55.325954 
L 133.46006 56.621139 
L 135.566413 56.802225 
L 137.672766 53.419664 
L 139.779118 53.663674 
L 141.885471 51.573061 
L 143.991824 51.007008 
L 146.098176 50.137526 
L 148.204529 52.543573 
L 150.310882 50.079457 
L 152.417234 48.502493 
L 154.523587 48.896903 
L 156.62994 48.709747 
L 158.736292 48.503572 
L 160.842645 47.523551 
L 162.948998 46.37047 
L 165.05535 46.973077 
L 167.161703 47.842289 
L 169.268056 46.616976 
L 171.374409 47.302201 
L 173.480761 46.007017 
L 175.587114 45.540982 
L 177.693467 45.69219 
L 179.799819 44.649716 
L 181.906172 44.326594 
L 184.012525 44.699152 
L 186.118877 44.463235 
L 188.22523 45.451215 
L 190.331583 45.222581 
L 192.437935 44.185907 
L 194.544288 42.980759 
L 196.650641 42.250144 
L 198.756993 43.435329 
L 200.863346 42.499955 
L 202.969699 42.631739 
L 205.076051 43.467701 
L 207.182404 42.859361 
L 209.288757 43.780167 
L 211.39511 43.062838 
L 213.501462 42.470887 
L 215.607815 43.729247 
L 217.714168 42.527472 
L 219.82052 41.293795 
L 221.926873 42.465491 
L 224.033226 43.219712 
L 226.139578 42.551616 
L 228.245931 43.681969 
L 230.352284 42.434197 
L 232.458636 41.729683 
" style="fill:none;stroke:#2ca02c;stroke-linecap:square;stroke-width:1.5;"/>
   </g>
   <g id="line2d_19">
    <path clip-path="url(#p4ea4147a50)" d="M 57.631364 213.000217 
L 59.737716 181.138088 
L 61.844069 165.524244 
L 63.950422 145.451576 
L 66.056774 135.681441 
L 68.163127 128.810702 
L 70.26948 115.616731 
L 72.375832 112.775134 
L 74.482185 106.633122 
L 76.588538 101.48489 
L 78.69489 98.142795 
L 80.801243 94.352808 
L 82.907596 87.836215 
L 85.013949 86.305652 
L 87.120301 84.412851 
L 89.226654 80.25678 
L 91.333007 75.815896 
L 93.439359 77.14723 
L 95.545712 74.600631 
L 97.652065 71.311749 
L 99.758417 68.765487 
L 101.86477 67.136794 
L 103.971123 65.808023 
L 106.077475 65.259707 
L 108.183828 65.760677 
L 110.290181 61.875527 
L 112.396533 60.773366 
L 114.502886 62.270611 
L 116.609239 59.642001 
L 118.715591 56.433309 
L 120.821944 56.728577 
L 122.928297 56.230574 
L 125.03465 54.170512 
L 127.141002 55.222294 
L 129.247355 56.113897 
L 131.353708 51.570363 
L 133.46006 54.140298 
L 135.566413 51.264035 
L 137.672766 52.814156 
L 139.779118 50.550483 
L 141.885471 50.555271 
L 143.991824 48.705026 
L 146.098176 50.068531 
L 148.204529 48.624296 
L 150.310882 51.940291 
L 152.417234 46.675179 
L 154.523587 45.989886 
L 156.62994 48.787442 
L 158.736292 46.510145 
L 160.842645 46.140824 
L 162.948998 47.181275 
L 165.05535 46.965861 
L 167.161703 44.441923 
L 169.268056 46.059488 
L 171.374409 50.440617 
L 173.480761 44.202431 
L 175.587114 45.710198 
L 177.693467 45.484262 
L 179.799819 43.048877 
L 181.906172 43.655532 
L 184.012525 44.747779 
L 186.118877 42.670182 
L 188.22523 41.75059 
L 190.331583 41.382011 
L 192.437935 42.418618 
L 194.544288 41.93579 
L 196.650641 43.022642 
L 198.756993 42.976376 
L 200.863346 41.449792 
L 202.969699 41.909419 
L 205.076051 42.541163 
L 207.182404 41.65246 
L 209.288757 42.570231 
L 211.39511 41.807782 
L 213.501462 40.796197 
L 215.607815 41.18022 
L 217.714168 43.061827 
L 219.82052 42.536374 
L 221.926873 39.684796 
L 224.033226 41.765225 
" style="fill:none;stroke:#d62728;stroke-linecap:square;stroke-width:1.5;"/>
   </g>
   <g id="line2d_20">
    <path clip-path="url(#p4ea4147a50)" d="M 57.631364 167.604539 
L 59.737716 128.387109 
L 61.844069 105.887958 
L 63.950422 94.571325 
L 66.056774 83.966895 
L 68.163127 79.172626 
L 70.26948 72.899995 
L 72.375832 67.077502 
L 74.482185 63.470238 
L 76.588538 60.434125 
L 78.69489 58.572684 
L 80.801243 53.60576 
L 82.907596 52.787188 
L 85.013949 49.351039 
L 87.120301 48.402205 
L 89.226654 46.525349 
L 91.333007 45.956511 
L 93.439359 45.466293 
L 95.545712 44.721717 
L 97.652065 43.141612 
L 99.758417 42.53886 
L 101.86477 42.04633 
L 103.971123 42.731556 
L 106.077475 44.393363 
L 108.183828 41.598505 
L 110.290181 43.492318 
L 112.396533 44.851979 
L 114.502886 43.670369 
L 116.609239 41.035833 
L 118.715591 41.139889 
L 120.821944 41.533759 
L 122.928297 39.07342 
L 125.03465 40.314381 
L 127.141002 40.023025 
L 129.247355 40.180265 
L 131.353708 39.688505 
L 133.46006 39.030257 
L 135.566413 39.526641 
L 137.672766 40.023025 
L 139.779118 39.817997 
L 141.885471 39.380192 
L 143.991824 40.557177 
L 146.098176 38.992488 
L 148.204529 38.706528 
L 150.310882 37.827065 
L 152.417234 38.547747 
L 154.523587 38.5015 
L 156.62994 38.048279 
L 158.736292 37.864833 
L 160.842645 38.102234 
L 162.948998 38.140002 
L 165.05535 37.941911 
L 167.161703 36.645455 
L 169.268056 38.032093 
L 171.374409 39.019466 
" style="fill:none;stroke:#1f77b4;stroke-linecap:square;stroke-width:1.5;"/>
   </g>
   <g id="patch_3">
    <path d="M 48.89 241.72 
L 48.89 26.88 
" style="fill:none;stroke:#000000;stroke-linecap:square;stroke-linejoin:miter;stroke-width:0.8;"/>
   </g>
   <g id="patch_4">
    <path d="M 241.2 241.72 
L 241.2 26.88 
" style="fill:none;stroke:#000000;stroke-linecap:square;stroke-linejoin:miter;stroke-width:0.8;"/>
   </g>
   <g id="patch_5">
    <path d="M 48.89 241.72 
L 241.2 241.72 
" style="fill:none;stroke:#000000;stroke-linecap:square;stroke-linejoin:miter;stroke-width:0.8;"/>
   </g>
   <g id="patch_6">
    <path d="M 48.89 26.88 
L 241.2 26.88 
" style="fill:none;stroke:#000000;stroke-linecap:square;stroke-linejoin:miter;stroke-width:0.8;"/>
   </g>
   <g id="text_13">
    <!-- resnet32 cifar10 -->
    <g transform="translate(95.650938 20.88)scale(0.12 -0.12)">
     <defs>
      <path d="M 37.109375 75.984375 
L 37.109375 68.5 
L 28.515625 68.5 
Q 23.6875 68.5 21.796875 66.546875 
Q 19.921875 64.59375 19.921875 59.515625 
L 19.921875 54.6875 
L 34.71875 54.6875 
L 34.71875 47.703125 
L 19.921875 47.703125 
L 19.921875 0 
L 10.890625 0 
L 10.890625 47.703125 
L 2.296875 47.703125 
L 2.296875 54.6875 
L 10.890625 54.6875 
L 10.890625 58.5 
Q 10.890625 67.625 15.140625 71.796875 
Q 19.390625 75.984375 28.609375 75.984375 
z
" id="DejaVuSans-102"/>
     </defs>
     <use xlink:href="#DejaVuSans-114"/>
     <use x="38.863281" xlink:href="#DejaVuSans-101"/>
     <use x="100.386719" xlink:href="#DejaVuSans-115"/>
     <use x="152.486328" xlink:href="#DejaVuSans-110"/>
     <use x="215.865234" xlink:href="#DejaVuSans-101"/>
     <use x="277.388672" xlink:href="#DejaVuSans-116"/>
     <use x="316.597656" xlink:href="#DejaVuSans-51"/>
     <use x="380.220703" xlink:href="#DejaVuSans-50"/>
     <use x="443.84375" xlink:href="#DejaVuSans-32"/>
     <use x="475.630859" xlink:href="#DejaVuSans-99"/>
     <use x="530.611328" xlink:href="#DejaVuSans-105"/>
     <use x="558.394531" xlink:href="#DejaVuSans-102"/>
     <use x="593.599609" xlink:href="#DejaVuSans-97"/>
     <use x="654.878906" xlink:href="#DejaVuSans-114"/>
     <use x="695.992188" xlink:href="#DejaVuSans-49"/>
     <use x="759.615234" xlink:href="#DejaVuSans-48"/>
    </g>
   </g>
   <g id="legend_1">
    <g id="patch_7">
     <path d="M 87.332813 236.72 
L 234.2 236.72 
Q 236.2 236.72 236.2 234.72 
L 236.2 177.0075 
Q 236.2 175.0075 234.2 175.0075 
L 87.332813 175.0075 
Q 85.332813 175.0075 85.332813 177.0075 
L 85.332813 234.72 
Q 85.332813 236.72 87.332813 236.72 
z
" style="fill:#ffffff;opacity:0.8;stroke:#cccccc;stroke-linejoin:miter;"/>
    </g>
    <g id="LineCollection_5">
     <path d="M 99.332813 188.105937 
L 99.332813 178.105937 
" style="fill:none;stroke:#c7c7c7;stroke-width:1.5;"/>
    </g>
    <g id="line2d_21">
     <path d="M 89.332813 183.105937 
L 109.332813 183.105937 
" style="fill:none;stroke:#7f7f7f;stroke-linecap:square;stroke-width:1.5;"/>
    </g>
    <g id="line2d_22"/>
    <g id="text_14">
     <!-- DSGD -->
     <g transform="translate(117.332813 186.605937)scale(0.1 -0.1)">
      <defs>
       <path d="M 19.671875 64.796875 
L 19.671875 8.109375 
L 31.59375 8.109375 
Q 46.6875 8.109375 53.6875 14.9375 
Q 60.6875 21.78125 60.6875 36.53125 
Q 60.6875 51.171875 53.6875 57.984375 
Q 46.6875 64.796875 31.59375 64.796875 
z
M 9.8125 72.90625 
L 30.078125 72.90625 
Q 51.265625 72.90625 61.171875 64.09375 
Q 71.09375 55.28125 71.09375 36.53125 
Q 71.09375 17.671875 61.125 8.828125 
Q 51.171875 0 30.078125 0 
L 9.8125 0 
z
" id="DejaVuSans-68"/>
       <path d="M 53.515625 70.515625 
L 53.515625 60.890625 
Q 47.90625 63.578125 42.921875 64.890625 
Q 37.9375 66.21875 33.296875 66.21875 
Q 25.25 66.21875 20.875 63.09375 
Q 16.5 59.96875 16.5 54.203125 
Q 16.5 49.359375 19.40625 46.890625 
Q 22.3125 44.4375 30.421875 42.921875 
L 36.375 41.703125 
Q 47.40625 39.59375 52.65625 34.296875 
Q 57.90625 29 57.90625 20.125 
Q 57.90625 9.515625 50.796875 4.046875 
Q 43.703125 -1.421875 29.984375 -1.421875 
Q 24.8125 -1.421875 18.96875 -0.25 
Q 13.140625 0.921875 6.890625 3.21875 
L 6.890625 13.375 
Q 12.890625 10.015625 18.65625 8.296875 
Q 24.421875 6.59375 29.984375 6.59375 
Q 38.421875 6.59375 43.015625 9.90625 
Q 47.609375 13.234375 47.609375 19.390625 
Q 47.609375 24.75 44.3125 27.78125 
Q 41.015625 30.8125 33.5 32.328125 
L 27.484375 33.5 
Q 16.453125 35.6875 11.515625 40.375 
Q 6.59375 45.0625 6.59375 53.421875 
Q 6.59375 63.09375 13.40625 68.65625 
Q 20.21875 74.21875 32.171875 74.21875 
Q 37.3125 74.21875 42.625 73.28125 
Q 47.953125 72.359375 53.515625 70.515625 
z
" id="DejaVuSans-83"/>
       <path d="M 59.515625 10.40625 
L 59.515625 29.984375 
L 43.40625 29.984375 
L 43.40625 38.09375 
L 69.28125 38.09375 
L 69.28125 6.78125 
Q 63.578125 2.734375 56.6875 0.65625 
Q 49.8125 -1.421875 42 -1.421875 
Q 24.90625 -1.421875 15.25 8.5625 
Q 5.609375 18.5625 5.609375 36.375 
Q 5.609375 54.25 15.25 64.234375 
Q 24.90625 74.21875 42 74.21875 
Q 49.125 74.21875 55.546875 72.453125 
Q 61.96875 70.703125 67.390625 67.28125 
L 67.390625 56.78125 
Q 61.921875 61.421875 55.765625 63.765625 
Q 49.609375 66.109375 42.828125 66.109375 
Q 29.4375 66.109375 22.71875 58.640625 
Q 16.015625 51.171875 16.015625 36.375 
Q 16.015625 21.625 22.71875 14.15625 
Q 29.4375 6.6875 42.828125 6.6875 
Q 48.046875 6.6875 52.140625 7.59375 
Q 56.25 8.5 59.515625 10.40625 
z
" id="DejaVuSans-71"/>
      </defs>
      <use xlink:href="#DejaVuSans-68"/>
      <use x="77.001953" xlink:href="#DejaVuSans-83"/>
      <use x="140.478516" xlink:href="#DejaVuSans-71"/>
      <use x="217.96875" xlink:href="#DejaVuSans-68"/>
     </g>
    </g>
    <g id="LineCollection_6">
     <path d="M 99.332813 202.784062 
L 99.332813 192.784062 
" style="fill:none;stroke:#98df8a;stroke-width:1.5;"/>
    </g>
    <g id="line2d_23">
     <path d="M 89.332813 197.784062 
L 109.332813 197.784062 
" style="fill:none;stroke:#2ca02c;stroke-linecap:square;stroke-width:1.5;"/>
    </g>
    <g id="line2d_24"/>
    <g id="text_15">
     <!-- ECL-ISVR (ADMM-ISVR) -->
     <g transform="translate(117.332813 201.284062)scale(0.1 -0.1)">
      <defs>
       <path d="M 9.8125 72.90625 
L 55.90625 72.90625 
L 55.90625 64.59375 
L 19.671875 64.59375 
L 19.671875 43.015625 
L 54.390625 43.015625 
L 54.390625 34.71875 
L 19.671875 34.71875 
L 19.671875 8.296875 
L 56.78125 8.296875 
L 56.78125 0 
L 9.8125 0 
z
" id="DejaVuSans-69"/>
       <path d="M 64.40625 67.28125 
L 64.40625 56.890625 
Q 59.421875 61.53125 53.78125 63.8125 
Q 48.140625 66.109375 41.796875 66.109375 
Q 29.296875 66.109375 22.65625 58.46875 
Q 16.015625 50.828125 16.015625 36.375 
Q 16.015625 21.96875 22.65625 14.328125 
Q 29.296875 6.6875 41.796875 6.6875 
Q 48.140625 6.6875 53.78125 8.984375 
Q 59.421875 11.28125 64.40625 15.921875 
L 64.40625 5.609375 
Q 59.234375 2.09375 53.4375 0.328125 
Q 47.65625 -1.421875 41.21875 -1.421875 
Q 24.65625 -1.421875 15.125 8.703125 
Q 5.609375 18.84375 5.609375 36.375 
Q 5.609375 53.953125 15.125 64.078125 
Q 24.65625 74.21875 41.21875 74.21875 
Q 47.75 74.21875 53.53125 72.484375 
Q 59.328125 70.75 64.40625 67.28125 
z
" id="DejaVuSans-67"/>
       <path d="M 9.8125 72.90625 
L 19.671875 72.90625 
L 19.671875 8.296875 
L 55.171875 8.296875 
L 55.171875 0 
L 9.8125 0 
z
" id="DejaVuSans-76"/>
       <path d="M 4.890625 31.390625 
L 31.203125 31.390625 
L 31.203125 23.390625 
L 4.890625 23.390625 
z
" id="DejaVuSans-45"/>
       <path d="M 9.8125 72.90625 
L 19.671875 72.90625 
L 19.671875 0 
L 9.8125 0 
z
" id="DejaVuSans-73"/>
       <path d="M 28.609375 0 
L 0.78125 72.90625 
L 11.078125 72.90625 
L 34.1875 11.53125 
L 57.328125 72.90625 
L 67.578125 72.90625 
L 39.796875 0 
z
" id="DejaVuSans-86"/>
       <path d="M 44.390625 34.1875 
Q 47.5625 33.109375 50.5625 29.59375 
Q 53.5625 26.078125 56.59375 19.921875 
L 66.609375 0 
L 56 0 
L 46.6875 18.703125 
Q 43.0625 26.03125 39.671875 28.421875 
Q 36.28125 30.8125 30.421875 30.8125 
L 19.671875 30.8125 
L 19.671875 0 
L 9.8125 0 
L 9.8125 72.90625 
L 32.078125 72.90625 
Q 44.578125 72.90625 50.734375 67.671875 
Q 56.890625 62.453125 56.890625 51.90625 
Q 56.890625 45.015625 53.6875 40.46875 
Q 50.484375 35.9375 44.390625 34.1875 
z
M 19.671875 64.796875 
L 19.671875 38.921875 
L 32.078125 38.921875 
Q 39.203125 38.921875 42.84375 42.21875 
Q 46.484375 45.515625 46.484375 51.90625 
Q 46.484375 58.296875 42.84375 61.546875 
Q 39.203125 64.796875 32.078125 64.796875 
z
" id="DejaVuSans-82"/>
       <path d="M 31 75.875 
Q 24.46875 64.65625 21.28125 53.65625 
Q 18.109375 42.671875 18.109375 31.390625 
Q 18.109375 20.125 21.3125 9.0625 
Q 24.515625 -2 31 -13.1875 
L 23.1875 -13.1875 
Q 15.875 -1.703125 12.234375 9.375 
Q 8.59375 20.453125 8.59375 31.390625 
Q 8.59375 42.28125 12.203125 53.3125 
Q 15.828125 64.359375 23.1875 75.875 
z
" id="DejaVuSans-40"/>
       <path d="M 9.8125 72.90625 
L 24.515625 72.90625 
L 43.109375 23.296875 
L 61.8125 72.90625 
L 76.515625 72.90625 
L 76.515625 0 
L 66.890625 0 
L 66.890625 64.015625 
L 48.09375 14.015625 
L 38.1875 14.015625 
L 19.390625 64.015625 
L 19.390625 0 
L 9.8125 0 
z
" id="DejaVuSans-77"/>
       <path d="M 8.015625 75.875 
L 15.828125 75.875 
Q 23.140625 64.359375 26.78125 53.3125 
Q 30.421875 42.28125 30.421875 31.390625 
Q 30.421875 20.453125 26.78125 9.375 
Q 23.140625 -1.703125 15.828125 -13.1875 
L 8.015625 -13.1875 
Q 14.5 -2 17.703125 9.0625 
Q 20.90625 20.125 20.90625 31.390625 
Q 20.90625 42.671875 17.703125 53.65625 
Q 14.5 64.65625 8.015625 75.875 
z
" id="DejaVuSans-41"/>
      </defs>
      <use xlink:href="#DejaVuSans-69"/>
      <use x="63.183594" xlink:href="#DejaVuSans-67"/>
      <use x="133.007812" xlink:href="#DejaVuSans-76"/>
      <use x="186.970703" xlink:href="#DejaVuSans-45"/>
      <use x="223.054688" xlink:href="#DejaVuSans-73"/>
      <use x="252.546875" xlink:href="#DejaVuSans-83"/>
      <use x="316.023438" xlink:href="#DejaVuSans-86"/>
      <use x="384.431641" xlink:href="#DejaVuSans-82"/>
      <use x="453.914062" xlink:href="#DejaVuSans-32"/>
      <use x="485.701172" xlink:href="#DejaVuSans-40"/>
      <use x="524.714844" xlink:href="#DejaVuSans-65"/>
      <use x="593.123047" xlink:href="#DejaVuSans-68"/>
      <use x="670.125" xlink:href="#DejaVuSans-77"/>
      <use x="756.404297" xlink:href="#DejaVuSans-77"/>
      <use x="842.683594" xlink:href="#DejaVuSans-45"/>
      <use x="878.767578" xlink:href="#DejaVuSans-73"/>
      <use x="908.259766" xlink:href="#DejaVuSans-83"/>
      <use x="971.736328" xlink:href="#DejaVuSans-86"/>
      <use x="1040.144531" xlink:href="#DejaVuSans-82"/>
      <use x="1109.626953" xlink:href="#DejaVuSans-41"/>
     </g>
    </g>
    <g id="LineCollection_7">
     <path d="M 99.332813 217.462187 
L 99.332813 207.462187 
" style="fill:none;stroke:#ff9896;stroke-width:1.5;"/>
    </g>
    <g id="line2d_25">
     <path d="M 89.332813 212.462187 
L 109.332813 212.462187 
" style="fill:none;stroke:#d62728;stroke-linecap:square;stroke-width:1.5;"/>
    </g>
    <g id="line2d_26"/>
    <g id="text_16">
     <!-- ECL-ISVR (PDMM-ISVR) -->
     <g transform="translate(117.332813 215.962187)scale(0.1 -0.1)">
      <use xlink:href="#DejaVuSans-69"/>
      <use x="63.183594" xlink:href="#DejaVuSans-67"/>
      <use x="133.007812" xlink:href="#DejaVuSans-76"/>
      <use x="186.970703" xlink:href="#DejaVuSans-45"/>
      <use x="223.054688" xlink:href="#DejaVuSans-73"/>
      <use x="252.546875" xlink:href="#DejaVuSans-83"/>
      <use x="316.023438" xlink:href="#DejaVuSans-86"/>
      <use x="384.431641" xlink:href="#DejaVuSans-82"/>
      <use x="453.914062" xlink:href="#DejaVuSans-32"/>
      <use x="485.701172" xlink:href="#DejaVuSans-40"/>
      <use x="524.714844" xlink:href="#DejaVuSans-80"/>
      <use x="585.017578" xlink:href="#DejaVuSans-68"/>
      <use x="662.019531" xlink:href="#DejaVuSans-77"/>
      <use x="748.298828" xlink:href="#DejaVuSans-77"/>
      <use x="834.578125" xlink:href="#DejaVuSans-45"/>
      <use x="870.662109" xlink:href="#DejaVuSans-73"/>
      <use x="900.154297" xlink:href="#DejaVuSans-83"/>
      <use x="963.630859" xlink:href="#DejaVuSans-86"/>
      <use x="1032.039062" xlink:href="#DejaVuSans-82"/>
      <use x="1101.521484" xlink:href="#DejaVuSans-41"/>
     </g>
    </g>
    <g id="LineCollection_8">
     <path d="M 99.332813 232.140312 
L 99.332813 222.140312 
" style="fill:none;stroke:#aec7e8;stroke-width:1.5;"/>
    </g>
    <g id="line2d_27">
     <path d="M 89.332813 227.140312 
L 109.332813 227.140312 
" style="fill:none;stroke:#1f77b4;stroke-linecap:square;stroke-width:1.5;"/>
    </g>
    <g id="line2d_28"/>
    <g id="text_17">
     <!-- Reference(1 node) -->
     <g transform="translate(117.332813 230.640312)scale(0.1 -0.1)">
      <defs>
       <path d="M 45.40625 46.390625 
L 45.40625 75.984375 
L 54.390625 75.984375 
L 54.390625 0 
L 45.40625 0 
L 45.40625 8.203125 
Q 42.578125 3.328125 38.25 0.953125 
Q 33.9375 -1.421875 27.875 -1.421875 
Q 17.96875 -1.421875 11.734375 6.484375 
Q 5.515625 14.40625 5.515625 27.296875 
Q 5.515625 40.1875 11.734375 48.09375 
Q 17.96875 56 27.875 56 
Q 33.9375 56 38.25 53.625 
Q 42.578125 51.265625 45.40625 46.390625 
z
M 14.796875 27.296875 
Q 14.796875 17.390625 18.875 11.75 
Q 22.953125 6.109375 30.078125 6.109375 
Q 37.203125 6.109375 41.296875 11.75 
Q 45.40625 17.390625 45.40625 27.296875 
Q 45.40625 37.203125 41.296875 42.84375 
Q 37.203125 48.484375 30.078125 48.484375 
Q 22.953125 48.484375 18.875 42.84375 
Q 14.796875 37.203125 14.796875 27.296875 
z
" id="DejaVuSans-100"/>
      </defs>
      <use xlink:href="#DejaVuSans-82"/>
      <use x="64.982422" xlink:href="#DejaVuSans-101"/>
      <use x="126.505859" xlink:href="#DejaVuSans-102"/>
      <use x="161.710938" xlink:href="#DejaVuSans-101"/>
      <use x="223.234375" xlink:href="#DejaVuSans-114"/>
      <use x="262.097656" xlink:href="#DejaVuSans-101"/>
      <use x="323.621094" xlink:href="#DejaVuSans-110"/>
      <use x="387" xlink:href="#DejaVuSans-99"/>
      <use x="441.980469" xlink:href="#DejaVuSans-101"/>
      <use x="503.503906" xlink:href="#DejaVuSans-40"/>
      <use x="542.517578" xlink:href="#DejaVuSans-49"/>
      <use x="606.140625" xlink:href="#DejaVuSans-32"/>
      <use x="637.927734" xlink:href="#DejaVuSans-110"/>
      <use x="701.306641" xlink:href="#DejaVuSans-111"/>
      <use x="762.488281" xlink:href="#DejaVuSans-100"/>
      <use x="825.964844" xlink:href="#DejaVuSans-101"/>
      <use x="887.488281" xlink:href="#DejaVuSans-41"/>
     </g>
    </g>
   </g>
  </g>
 </g>
 <defs>
  <clipPath id="p4ea4147a50">
   <rect height="214.84" width="192.31" x="48.89" y="26.88"/>
  </clipPath>
 </defs>
</svg>
